<?xml version="1.0" encoding="UTF-8"?>
<!DOCTYPE svg PUBLIC "-//W3C//DTD SVG 1.1//EN" "http://www.w3.org/Graphics/SVG/1.1/DTD/svg11.dtd">
<svg xmlns="http://www.w3.org/2000/svg" version="1.1" width="1024px" height="1024px" style="shape-rendering:geometricPrecision; text-rendering:geometricPrecision; image-rendering:optimizeQuality; fill-rule:evenodd; clip-rule:evenodd" xmlns:xlink="http://www.w3.org/1999/xlink">
<g><path style="opacity:0.996" fill="#fefffe" d="M 479.5,-0.5 C 500.833,-0.5 522.167,-0.5 543.5,-0.5C 703.863,13.4098 832.029,84.4098 928,212.5C 984.515,292.536 1016.35,381.536 1023.5,479.5C 1023.5,500.833 1023.5,522.167 1023.5,543.5C 1011.1,693.645 947.103,816.312 831.5,911.5C 799.5,911.5 767.5,911.5 735.5,911.5C 735.5,900.833 735.5,890.167 735.5,879.5C 730.167,879.5 724.833,879.5 719.5,879.5C 719.5,863.5 719.5,847.5 719.5,831.5C 724.833,831.5 730.167,831.5 735.5,831.5C 735.5,788.833 735.5,746.167 735.5,703.5C 751.5,703.5 767.5,703.5 783.5,703.5C 783.5,692.833 783.5,682.167 783.5,671.5C 788.833,671.5 794.167,671.5 799.5,671.5C 799.5,655.5 799.5,639.5 799.5,623.5C 804.833,623.5 810.167,623.5 815.5,623.5C 815.5,586.167 815.5,548.833 815.5,511.5C 804.833,511.5 794.167,511.5 783.5,511.5C 783.5,468.833 783.5,426.167 783.5,383.5C 788.833,383.5 794.167,383.5 799.5,383.5C 799.5,367.5 799.5,351.5 799.5,335.5C 794.167,335.5 788.833,335.5 783.5,335.5C 783.5,308.833 783.5,282.167 783.5,255.5C 778.167,255.5 772.833,255.5 767.5,255.5C 767.5,244.833 767.5,234.167 767.5,223.5C 772.833,223.5 778.167,223.5 783.5,223.5C 783.5,212.833 783.5,202.167 783.5,191.5C 778.167,191.5 772.833,191.5 767.5,191.5C 767.5,180.833 767.5,170.167 767.5,159.5C 762.167,159.5 756.833,159.5 751.5,159.5C 751.5,148.833 751.5,138.167 751.5,127.5C 746.167,127.5 740.833,127.5 735.5,127.5C 735.5,122.167 735.5,116.833 735.5,111.5C 730.167,111.5 724.833,111.5 719.5,111.5C 719.5,106.167 719.5,100.833 719.5,95.5C 714.167,95.5 708.833,95.5 703.5,95.5C 703.5,90.1667 703.5,84.8333 703.5,79.5C 692.833,79.5 682.167,79.5 671.5,79.5C 671.5,74.1667 671.5,68.8333 671.5,63.5C 660.833,63.5 650.167,63.5 639.5,63.5C 639.5,58.1667 639.5,52.8333 639.5,47.5C 623.5,47.5 607.5,47.5 591.5,47.5C 591.5,42.1667 591.5,36.8333 591.5,31.5C 527.5,31.5 463.5,31.5 399.5,31.5C 399.5,36.8333 399.5,42.1667 399.5,47.5C 388.833,47.5 378.167,47.5 367.5,47.5C 367.5,52.8333 367.5,58.1667 367.5,63.5C 356.833,63.5 346.167,63.5 335.5,63.5C 335.5,68.8333 335.5,74.1667 335.5,79.5C 324.833,79.5 314.167,79.5 303.5,79.5C 303.5,84.8333 303.5,90.1667 303.5,95.5C 298.167,95.5 292.833,95.5 287.5,95.5C 287.5,106.167 287.5,116.833 287.5,127.5C 282.167,127.5 276.833,127.5 271.5,127.5C 271.5,132.833 271.5,138.167 271.5,143.5C 266.167,143.5 260.833,143.5 255.5,143.5C 255.5,148.833 255.5,154.167 255.5,159.5C 250.167,159.5 244.833,159.5 239.5,159.5C 239.5,266.167 239.5,372.833 239.5,479.5C 244.833,479.5 250.167,479.5 255.5,479.5C 255.5,490.167 255.5,500.833 255.5,511.5C 239.5,511.5 223.5,511.5 207.5,511.5C 207.5,554.167 207.5,596.833 207.5,639.5C 212.833,639.5 218.167,639.5 223.5,639.5C 223.5,650.167 223.5,660.833 223.5,671.5C 228.833,671.5 234.167,671.5 239.5,671.5C 239.5,682.167 239.5,692.833 239.5,703.5C 255.5,703.5 271.5,703.5 287.5,703.5C 287.5,719.5 287.5,735.5 287.5,751.5C 292.833,751.5 298.167,751.5 303.5,751.5C 303.5,767.5 303.5,783.5 303.5,799.5C 308.833,799.5 314.167,799.5 319.5,799.5C 319.5,815.5 319.5,831.5 319.5,847.5C 324.833,847.5 330.167,847.5 335.5,847.5C 335.5,863.5 335.5,879.5 335.5,895.5C 314.167,895.5 292.833,895.5 271.5,895.5C 271.5,900.833 271.5,906.167 271.5,911.5C 255.5,911.5 239.5,911.5 223.5,911.5C 223.5,916.833 223.5,922.167 223.5,927.5C 219.833,927.5 216.167,927.5 212.5,927.5C 103.333,847.605 35.1667,740.938 8,607.5C 4.16778,586.148 1.33444,564.814 -0.5,543.5C -0.5,522.167 -0.5,500.833 -0.5,479.5C 13.4098,319.137 84.4098,190.971 212.5,95C 292.536,38.4852 381.536,6.65183 479.5,-0.5 Z"/></g>
<g><path style="opacity:1" fill="#000000" d="M 591.5,47.5 C 527.5,47.5 463.5,47.5 399.5,47.5C 399.5,42.1667 399.5,36.8333 399.5,31.5C 463.5,31.5 527.5,31.5 591.5,31.5C 591.5,36.8333 591.5,42.1667 591.5,47.5 Z"/></g>
<g><path style="opacity:1" fill="#000000" d="M 399.5,47.5 C 399.5,52.8333 399.5,58.1667 399.5,63.5C 394.167,63.5 388.833,63.5 383.5,63.5C 378.167,63.5 372.833,63.5 367.5,63.5C 367.5,58.1667 367.5,52.8333 367.5,47.5C 378.167,47.5 388.833,47.5 399.5,47.5 Z"/></g>
<g><path style="opacity:1" fill="#664d3c" d="M 399.5,47.5 C 463.5,47.5 527.5,47.5 591.5,47.5C 591.5,52.8333 591.5,58.1667 591.5,63.5C 607.5,63.5 623.5,63.5 639.5,63.5C 639.5,68.8333 639.5,74.1667 639.5,79.5C 650.167,79.5 660.833,79.5 671.5,79.5C 671.5,84.8333 671.5,90.1667 671.5,95.5C 660.833,95.5 650.167,95.5 639.5,95.5C 639.5,100.833 639.5,106.167 639.5,111.5C 639.5,116.833 639.5,122.167 639.5,127.5C 634.167,127.5 628.833,127.5 623.5,127.5C 618.167,127.5 612.833,127.5 607.5,127.5C 607.5,122.167 607.5,116.833 607.5,111.5C 602.167,111.5 596.833,111.5 591.5,111.5C 591.5,106.167 591.5,100.833 591.5,95.5C 580.833,95.5 570.167,95.5 559.5,95.5C 559.5,90.1667 559.5,84.8333 559.5,79.5C 554.167,79.5 548.833,79.5 543.5,79.5C 543.5,90.1667 543.5,100.833 543.5,111.5C 538.167,111.5 532.833,111.5 527.5,111.5C 527.5,106.167 527.5,100.833 527.5,95.5C 522.167,95.5 516.833,95.5 511.5,95.5C 511.5,90.1667 511.5,84.8333 511.5,79.5C 468.833,79.5 426.167,79.5 383.5,79.5C 383.5,74.1667 383.5,68.8333 383.5,63.5C 388.833,63.5 394.167,63.5 399.5,63.5C 399.5,58.1667 399.5,52.8333 399.5,47.5 Z"/></g>
<g><path style="opacity:1" fill="#000000" d="M 591.5,47.5 C 607.5,47.5 623.5,47.5 639.5,47.5C 639.5,52.8333 639.5,58.1667 639.5,63.5C 623.5,63.5 607.5,63.5 591.5,63.5C 591.5,58.1667 591.5,52.8333 591.5,47.5 Z"/></g>
<g><path style="opacity:1" fill="#000000" d="M 367.5,63.5 C 367.5,68.8333 367.5,74.1667 367.5,79.5C 356.833,79.5 346.167,79.5 335.5,79.5C 335.5,74.1667 335.5,68.8333 335.5,63.5C 346.167,63.5 356.833,63.5 367.5,63.5 Z"/></g>
<g><path style="opacity:1" fill="#342518" d="M 367.5,63.5 C 372.833,63.5 378.167,63.5 383.5,63.5C 383.5,68.8333 383.5,74.1667 383.5,79.5C 426.167,79.5 468.833,79.5 511.5,79.5C 511.5,84.8333 511.5,90.1667 511.5,95.5C 516.833,95.5 522.167,95.5 527.5,95.5C 527.5,100.833 527.5,106.167 527.5,111.5C 532.833,111.5 538.167,111.5 543.5,111.5C 543.5,100.833 543.5,90.1667 543.5,79.5C 548.833,79.5 554.167,79.5 559.5,79.5C 559.5,84.8333 559.5,90.1667 559.5,95.5C 570.167,95.5 580.833,95.5 591.5,95.5C 591.5,100.833 591.5,106.167 591.5,111.5C 596.833,111.5 602.167,111.5 607.5,111.5C 607.5,116.833 607.5,122.167 607.5,127.5C 612.833,127.5 618.167,127.5 623.5,127.5C 623.5,132.833 623.5,138.167 623.5,143.5C 634.167,143.5 644.833,143.5 655.5,143.5C 655.5,148.833 655.5,154.167 655.5,159.5C 660.833,159.5 666.167,159.5 671.5,159.5C 671.5,154.167 671.5,148.833 671.5,143.5C 676.833,143.5 682.167,143.5 687.5,143.5C 687.5,148.833 687.5,154.167 687.5,159.5C 703.5,159.5 719.5,159.5 735.5,159.5C 740.833,159.5 746.167,159.5 751.5,159.5C 751.5,170.167 751.5,180.833 751.5,191.5C 751.5,202.167 751.5,212.833 751.5,223.5C 751.5,234.167 751.5,244.833 751.5,255.5C 756.833,255.5 762.167,255.5 767.5,255.5C 767.5,282.167 767.5,308.833 767.5,335.5C 772.833,335.5 778.167,335.5 783.5,335.5C 783.5,351.5 783.5,367.5 783.5,383.5C 778.167,383.5 772.833,383.5 767.5,383.5C 767.5,372.833 767.5,362.167 767.5,351.5C 762.167,351.5 756.833,351.5 751.5,351.5C 751.5,330.167 751.5,308.833 751.5,287.5C 746.167,287.5 740.833,287.5 735.5,287.5C 735.5,276.833 735.5,266.167 735.5,255.5C 730.167,255.5 724.833,255.5 719.5,255.5C 719.5,250.167 719.5,244.833 719.5,239.5C 708.833,239.5 698.167,239.5 687.5,239.5C 687.5,234.167 687.5,228.833 687.5,223.5C 687.5,218.167 687.5,212.833 687.5,207.5C 698.167,207.5 708.833,207.5 719.5,207.5C 719.5,202.167 719.5,196.833 719.5,191.5C 714.167,191.5 708.833,191.5 703.5,191.5C 703.5,186.167 703.5,180.833 703.5,175.5C 692.833,175.5 682.167,175.5 671.5,175.5C 671.5,180.833 671.5,186.167 671.5,191.5C 666.167,191.5 660.833,191.5 655.5,191.5C 655.5,186.167 655.5,180.833 655.5,175.5C 650.167,175.5 644.833,175.5 639.5,175.5C 639.5,180.833 639.5,186.167 639.5,191.5C 634.167,191.5 628.833,191.5 623.5,191.5C 623.5,186.167 623.5,180.833 623.5,175.5C 612.833,175.5 602.167,175.5 591.5,175.5C 591.5,170.167 591.5,164.833 591.5,159.5C 559.5,159.5 527.5,159.5 495.5,159.5C 495.5,154.167 495.5,148.833 495.5,143.5C 468.833,143.5 442.167,143.5 415.5,143.5C 415.5,148.833 415.5,154.167 415.5,159.5C 394.167,159.5 372.833,159.5 351.5,159.5C 351.5,154.167 351.5,148.833 351.5,143.5C 356.833,143.5 362.167,143.5 367.5,143.5C 367.5,138.167 367.5,132.833 367.5,127.5C 346.167,127.5 324.833,127.5 303.5,127.5C 303.5,116.833 303.5,106.167 303.5,95.5C 314.167,95.5 324.833,95.5 335.5,95.5C 335.5,90.1667 335.5,84.8333 335.5,79.5C 346.167,79.5 356.833,79.5 367.5,79.5C 367.5,74.1667 367.5,68.8333 367.5,63.5 Z"/></g>
<g><path style="opacity:1" fill="#000000" d="M 639.5,63.5 C 650.167,63.5 660.833,63.5 671.5,63.5C 671.5,68.8333 671.5,74.1667 671.5,79.5C 660.833,79.5 650.167,79.5 639.5,79.5C 639.5,74.1667 639.5,68.8333 639.5,63.5 Z"/></g>
<g><path style="opacity:1" fill="#000000" d="M 335.5,79.5 C 335.5,84.8333 335.5,90.1667 335.5,95.5C 324.833,95.5 314.167,95.5 303.5,95.5C 303.5,90.1667 303.5,84.8333 303.5,79.5C 314.167,79.5 324.833,79.5 335.5,79.5 Z"/></g>
<g><path style="opacity:1" fill="#000000" d="M 671.5,79.5 C 682.167,79.5 692.833,79.5 703.5,79.5C 703.5,84.8333 703.5,90.1667 703.5,95.5C 692.833,95.5 682.167,95.5 671.5,95.5C 671.5,90.1667 671.5,84.8333 671.5,79.5 Z"/></g>
<g><path style="opacity:1" fill="#000000" d="M 303.5,95.5 C 303.5,106.167 303.5,116.833 303.5,127.5C 298.167,127.5 292.833,127.5 287.5,127.5C 287.5,116.833 287.5,106.167 287.5,95.5C 292.833,95.5 298.167,95.5 303.5,95.5 Z"/></g>
<g><path style="opacity:1" fill="#332519" d="M 671.5,95.5 C 682.167,95.5 692.833,95.5 703.5,95.5C 708.833,95.5 714.167,95.5 719.5,95.5C 719.5,100.833 719.5,106.167 719.5,111.5C 714.167,111.5 708.833,111.5 703.5,111.5C 703.5,116.833 703.5,122.167 703.5,127.5C 692.833,127.5 682.167,127.5 671.5,127.5C 671.5,122.167 671.5,116.833 671.5,111.5C 660.833,111.5 650.167,111.5 639.5,111.5C 639.5,106.167 639.5,100.833 639.5,95.5C 650.167,95.5 660.833,95.5 671.5,95.5 Z"/></g>
<g><path style="opacity:1" fill="#614a39" d="M 639.5,111.5 C 650.167,111.5 660.833,111.5 671.5,111.5C 671.5,116.833 671.5,122.167 671.5,127.5C 682.167,127.5 692.833,127.5 703.5,127.5C 703.5,122.167 703.5,116.833 703.5,111.5C 708.833,111.5 714.167,111.5 719.5,111.5C 724.833,111.5 730.167,111.5 735.5,111.5C 735.5,116.833 735.5,122.167 735.5,127.5C 735.5,138.167 735.5,148.833 735.5,159.5C 719.5,159.5 703.5,159.5 687.5,159.5C 687.5,154.167 687.5,148.833 687.5,143.5C 682.167,143.5 676.833,143.5 671.5,143.5C 671.5,148.833 671.5,154.167 671.5,159.5C 666.167,159.5 660.833,159.5 655.5,159.5C 655.5,154.167 655.5,148.833 655.5,143.5C 644.833,143.5 634.167,143.5 623.5,143.5C 623.5,138.167 623.5,132.833 623.5,127.5C 628.833,127.5 634.167,127.5 639.5,127.5C 639.5,122.167 639.5,116.833 639.5,111.5 Z"/></g>
<g><path style="opacity:1" fill="#2f2016" d="M 287.5,127.5 C 287.5,138.167 287.5,148.833 287.5,159.5C 298.167,159.5 308.833,159.5 319.5,159.5C 319.5,164.833 319.5,170.167 319.5,175.5C 324.833,175.5 330.167,175.5 335.5,175.5C 335.5,180.833 335.5,186.167 335.5,191.5C 330.167,191.5 324.833,191.5 319.5,191.5C 319.5,196.833 319.5,202.167 319.5,207.5C 330.167,207.5 340.833,207.5 351.5,207.5C 351.5,212.833 351.5,218.167 351.5,223.5C 340.833,223.5 330.167,223.5 319.5,223.5C 319.5,228.833 319.5,234.167 319.5,239.5C 314.167,239.5 308.833,239.5 303.5,239.5C 298.167,239.5 292.833,239.5 287.5,239.5C 287.5,260.833 287.5,282.167 287.5,303.5C 282.167,303.5 276.833,303.5 271.5,303.5C 271.5,314.167 271.5,324.833 271.5,335.5C 266.167,335.5 260.833,335.5 255.5,335.5C 255.5,276.833 255.5,218.167 255.5,159.5C 255.5,154.167 255.5,148.833 255.5,143.5C 260.833,143.5 266.167,143.5 271.5,143.5C 271.5,138.167 271.5,132.833 271.5,127.5C 276.833,127.5 282.167,127.5 287.5,127.5 Z"/></g>
<g><path style="opacity:1" fill="#69503e" d="M 287.5,127.5 C 292.833,127.5 298.167,127.5 303.5,127.5C 324.833,127.5 346.167,127.5 367.5,127.5C 367.5,132.833 367.5,138.167 367.5,143.5C 362.167,143.5 356.833,143.5 351.5,143.5C 351.5,148.833 351.5,154.167 351.5,159.5C 372.833,159.5 394.167,159.5 415.5,159.5C 415.5,154.167 415.5,148.833 415.5,143.5C 442.167,143.5 468.833,143.5 495.5,143.5C 495.5,148.833 495.5,154.167 495.5,159.5C 527.5,159.5 559.5,159.5 591.5,159.5C 591.5,164.833 591.5,170.167 591.5,175.5C 580.833,175.5 570.167,175.5 559.5,175.5C 559.5,180.833 559.5,186.167 559.5,191.5C 543.5,191.5 527.5,191.5 511.5,191.5C 511.5,186.167 511.5,180.833 511.5,175.5C 468.833,175.5 426.167,175.5 383.5,175.5C 383.5,180.833 383.5,186.167 383.5,191.5C 372.833,191.5 362.167,191.5 351.5,191.5C 351.5,196.833 351.5,202.167 351.5,207.5C 340.833,207.5 330.167,207.5 319.5,207.5C 319.5,202.167 319.5,196.833 319.5,191.5C 324.833,191.5 330.167,191.5 335.5,191.5C 335.5,186.167 335.5,180.833 335.5,175.5C 330.167,175.5 324.833,175.5 319.5,175.5C 319.5,170.167 319.5,164.833 319.5,159.5C 308.833,159.5 298.167,159.5 287.5,159.5C 287.5,148.833 287.5,138.167 287.5,127.5 Z"/></g>
<g><path style="opacity:1" fill="#000000" d="M 735.5,127.5 C 740.833,127.5 746.167,127.5 751.5,127.5C 751.5,138.167 751.5,148.833 751.5,159.5C 746.167,159.5 740.833,159.5 735.5,159.5C 735.5,148.833 735.5,138.167 735.5,127.5 Z"/></g>
<g><path style="opacity:1" fill="#000000" d="M 255.5,159.5 C 255.5,218.167 255.5,276.833 255.5,335.5C 255.5,362.167 255.5,388.833 255.5,415.5C 255.5,436.833 255.5,458.167 255.5,479.5C 250.167,479.5 244.833,479.5 239.5,479.5C 239.5,372.833 239.5,266.167 239.5,159.5C 244.833,159.5 250.167,159.5 255.5,159.5 Z"/></g>
<g><path style="opacity:1" fill="#000000" d="M 751.5,159.5 C 756.833,159.5 762.167,159.5 767.5,159.5C 767.5,170.167 767.5,180.833 767.5,191.5C 762.167,191.5 756.833,191.5 751.5,191.5C 751.5,180.833 751.5,170.167 751.5,159.5 Z"/></g>
<g><path style="opacity:1" fill="#2a1a0f" d="M 511.5,191.5 C 468.833,191.5 426.167,191.5 383.5,191.5C 383.5,186.167 383.5,180.833 383.5,175.5C 426.167,175.5 468.833,175.5 511.5,175.5C 511.5,180.833 511.5,186.167 511.5,191.5 Z"/></g>
<g><path style="opacity:1" fill="#2a1a0f" d="M 591.5,175.5 C 591.5,180.833 591.5,186.167 591.5,191.5C 580.833,191.5 570.167,191.5 559.5,191.5C 559.5,186.167 559.5,180.833 559.5,175.5C 570.167,175.5 580.833,175.5 591.5,175.5 Z"/></g>
<g><path style="opacity:1" fill="#69503e" d="M 591.5,175.5 C 602.167,175.5 612.833,175.5 623.5,175.5C 623.5,180.833 623.5,186.167 623.5,191.5C 612.833,191.5 602.167,191.5 591.5,191.5C 591.5,186.167 591.5,180.833 591.5,175.5 Z"/></g>
<g><path style="opacity:1" fill="#69503e" d="M 687.5,207.5 C 671.5,207.5 655.5,207.5 639.5,207.5C 639.5,202.167 639.5,196.833 639.5,191.5C 639.5,186.167 639.5,180.833 639.5,175.5C 644.833,175.5 650.167,175.5 655.5,175.5C 655.5,180.833 655.5,186.167 655.5,191.5C 660.833,191.5 666.167,191.5 671.5,191.5C 671.5,186.167 671.5,180.833 671.5,175.5C 682.167,175.5 692.833,175.5 703.5,175.5C 703.5,180.833 703.5,186.167 703.5,191.5C 708.833,191.5 714.167,191.5 719.5,191.5C 719.5,196.833 719.5,202.167 719.5,207.5C 708.833,207.5 698.167,207.5 687.5,207.5 Z"/></g>
<g><path style="opacity:1" fill="#2a1a0f" d="M 383.5,191.5 C 383.5,196.833 383.5,202.167 383.5,207.5C 372.833,207.5 362.167,207.5 351.5,207.5C 351.5,202.167 351.5,196.833 351.5,191.5C 362.167,191.5 372.833,191.5 383.5,191.5 Z"/></g>
<g><path style="opacity:1" fill="#481d02" d="M 383.5,191.5 C 426.167,191.5 468.833,191.5 511.5,191.5C 511.5,196.833 511.5,202.167 511.5,207.5C 495.5,207.5 479.5,207.5 463.5,207.5C 436.833,207.5 410.167,207.5 383.5,207.5C 383.5,202.167 383.5,196.833 383.5,191.5 Z"/></g>
<g><path style="opacity:1" fill="#2a1a0f" d="M 511.5,191.5 C 527.5,191.5 543.5,191.5 559.5,191.5C 559.5,196.833 559.5,202.167 559.5,207.5C 543.5,207.5 527.5,207.5 511.5,207.5C 511.5,202.167 511.5,196.833 511.5,191.5 Z"/></g>
<g><path style="opacity:1" fill="#481d02" d="M 559.5,191.5 C 570.167,191.5 580.833,191.5 591.5,191.5C 602.167,191.5 612.833,191.5 623.5,191.5C 628.833,191.5 634.167,191.5 639.5,191.5C 639.5,196.833 639.5,202.167 639.5,207.5C 623.5,207.5 607.5,207.5 591.5,207.5C 580.833,207.5 570.167,207.5 559.5,207.5C 559.5,202.167 559.5,196.833 559.5,191.5 Z"/></g>
<g><path style="opacity:1" fill="#69503e" d="M 751.5,191.5 C 756.833,191.5 762.167,191.5 767.5,191.5C 767.5,202.167 767.5,212.833 767.5,223.5C 762.167,223.5 756.833,223.5 751.5,223.5C 751.5,212.833 751.5,202.167 751.5,191.5 Z"/></g>
<g><path style="opacity:1" fill="#000000" d="M 767.5,191.5 C 772.833,191.5 778.167,191.5 783.5,191.5C 783.5,202.167 783.5,212.833 783.5,223.5C 778.167,223.5 772.833,223.5 767.5,223.5C 767.5,212.833 767.5,202.167 767.5,191.5 Z"/></g>
<g><path style="opacity:1" fill="#481d02" d="M 351.5,207.5 C 362.167,207.5 372.833,207.5 383.5,207.5C 383.5,212.833 383.5,218.167 383.5,223.5C 372.833,223.5 362.167,223.5 351.5,223.5C 351.5,218.167 351.5,212.833 351.5,207.5 Z"/></g>
<g><path style="opacity:1" fill="#ecbb97" d="M 383.5,207.5 C 410.167,207.5 436.833,207.5 463.5,207.5C 463.5,212.833 463.5,218.167 463.5,223.5C 479.5,223.5 495.5,223.5 511.5,223.5C 527.5,223.5 543.5,223.5 559.5,223.5C 559.5,218.167 559.5,212.833 559.5,207.5C 570.167,207.5 580.833,207.5 591.5,207.5C 591.5,212.833 591.5,218.167 591.5,223.5C 607.5,223.5 623.5,223.5 639.5,223.5C 639.5,228.833 639.5,234.167 639.5,239.5C 655.5,239.5 671.5,239.5 687.5,239.5C 687.5,244.833 687.5,250.167 687.5,255.5C 692.833,255.5 698.167,255.5 703.5,255.5C 703.5,266.167 703.5,276.833 703.5,287.5C 703.5,292.833 703.5,298.167 703.5,303.5C 698.167,303.5 692.833,303.5 687.5,303.5C 687.5,314.167 687.5,324.833 687.5,335.5C 692.833,335.5 698.167,335.5 703.5,335.5C 703.5,340.833 703.5,346.167 703.5,351.5C 698.167,351.5 692.833,351.5 687.5,351.5C 687.5,383.5 687.5,415.5 687.5,447.5C 682.167,447.5 676.833,447.5 671.5,447.5C 671.5,442.167 671.5,436.833 671.5,431.5C 650.167,431.5 628.833,431.5 607.5,431.5C 602.167,431.5 596.833,431.5 591.5,431.5C 580.833,431.5 570.167,431.5 559.5,431.5C 559.5,436.833 559.5,442.167 559.5,447.5C 548.833,447.5 538.167,447.5 527.5,447.5C 527.5,463.5 527.5,479.5 527.5,495.5C 516.833,495.5 506.167,495.5 495.5,495.5C 495.5,484.833 495.5,474.167 495.5,463.5C 490.167,463.5 484.833,463.5 479.5,463.5C 479.5,458.167 479.5,452.833 479.5,447.5C 474.167,447.5 468.833,447.5 463.5,447.5C 463.5,442.167 463.5,436.833 463.5,431.5C 426.167,431.5 388.833,431.5 351.5,431.5C 351.5,436.833 351.5,442.167 351.5,447.5C 340.833,447.5 330.167,447.5 319.5,447.5C 319.5,431.5 319.5,415.5 319.5,399.5C 324.833,399.5 330.167,399.5 335.5,399.5C 335.5,394.167 335.5,388.833 335.5,383.5C 330.167,383.5 324.833,383.5 319.5,383.5C 319.5,335.5 319.5,287.5 319.5,239.5C 330.167,239.5 340.833,239.5 351.5,239.5C 351.5,234.167 351.5,228.833 351.5,223.5C 362.167,223.5 372.833,223.5 383.5,223.5C 383.5,218.167 383.5,212.833 383.5,207.5 Z"/></g>
<g><path style="opacity:1" fill="#b7825d" d="M 463.5,207.5 C 479.5,207.5 495.5,207.5 511.5,207.5C 511.5,212.833 511.5,218.167 511.5,223.5C 495.5,223.5 479.5,223.5 463.5,223.5C 463.5,218.167 463.5,212.833 463.5,207.5 Z"/></g>
<g><path style="opacity:1" fill="#501e00" d="M 511.5,207.5 C 527.5,207.5 543.5,207.5 559.5,207.5C 559.5,212.833 559.5,218.167 559.5,223.5C 543.5,223.5 527.5,223.5 511.5,223.5C 511.5,218.167 511.5,212.833 511.5,207.5 Z"/></g>
<g><path style="opacity:1" fill="#501e00" d="M 591.5,207.5 C 607.5,207.5 623.5,207.5 639.5,207.5C 639.5,212.833 639.5,218.167 639.5,223.5C 623.5,223.5 607.5,223.5 591.5,223.5C 591.5,218.167 591.5,212.833 591.5,207.5 Z"/></g>
<g><path style="opacity:1" fill="#2a1a0f" d="M 639.5,207.5 C 655.5,207.5 671.5,207.5 687.5,207.5C 687.5,212.833 687.5,218.167 687.5,223.5C 671.5,223.5 655.5,223.5 639.5,223.5C 639.5,218.167 639.5,212.833 639.5,207.5 Z"/></g>
<g><path style="opacity:1" fill="#501e00" d="M 351.5,223.5 C 351.5,228.833 351.5,234.167 351.5,239.5C 340.833,239.5 330.167,239.5 319.5,239.5C 319.5,234.167 319.5,228.833 319.5,223.5C 330.167,223.5 340.833,223.5 351.5,223.5 Z"/></g>
<g><path style="opacity:1" fill="#501e00" d="M 639.5,223.5 C 655.5,223.5 671.5,223.5 687.5,223.5C 687.5,228.833 687.5,234.167 687.5,239.5C 671.5,239.5 655.5,239.5 639.5,239.5C 639.5,234.167 639.5,228.833 639.5,223.5 Z"/></g>
<g><path style="opacity:1" fill="#000000" d="M 751.5,223.5 C 756.833,223.5 762.167,223.5 767.5,223.5C 767.5,234.167 767.5,244.833 767.5,255.5C 762.167,255.5 756.833,255.5 751.5,255.5C 751.5,244.833 751.5,234.167 751.5,223.5 Z"/></g>
<g><path style="opacity:1" fill="#2a1a0f" d="M 303.5,239.5 C 303.5,287.5 303.5,335.5 303.5,383.5C 298.167,383.5 292.833,383.5 287.5,383.5C 287.5,356.833 287.5,330.167 287.5,303.5C 287.5,282.167 287.5,260.833 287.5,239.5C 292.833,239.5 298.167,239.5 303.5,239.5 Z"/></g>
<g><path style="opacity:1" fill="#501e00" d="M 303.5,239.5 C 308.833,239.5 314.167,239.5 319.5,239.5C 319.5,287.5 319.5,335.5 319.5,383.5C 314.167,383.5 308.833,383.5 303.5,383.5C 303.5,335.5 303.5,287.5 303.5,239.5 Z"/></g>
<g><path style="opacity:1" fill="#3d1c07" d="M 687.5,239.5 C 698.167,239.5 708.833,239.5 719.5,239.5C 719.5,244.833 719.5,250.167 719.5,255.5C 714.167,255.5 708.833,255.5 703.5,255.5C 698.167,255.5 692.833,255.5 687.5,255.5C 687.5,250.167 687.5,244.833 687.5,239.5 Z"/></g>
<g><path style="opacity:1" fill="#501e00" d="M 703.5,255.5 C 708.833,255.5 714.167,255.5 719.5,255.5C 719.5,266.167 719.5,276.833 719.5,287.5C 714.167,287.5 708.833,287.5 703.5,287.5C 703.5,276.833 703.5,266.167 703.5,255.5 Z"/></g>
<g><path style="opacity:1" fill="#2a1a0f" d="M 719.5,255.5 C 724.833,255.5 730.167,255.5 735.5,255.5C 735.5,266.167 735.5,276.833 735.5,287.5C 730.167,287.5 724.833,287.5 719.5,287.5C 719.5,276.833 719.5,266.167 719.5,255.5 Z"/></g>
<g><path style="opacity:1" fill="#000000" d="M 767.5,255.5 C 772.833,255.5 778.167,255.5 783.5,255.5C 783.5,282.167 783.5,308.833 783.5,335.5C 778.167,335.5 772.833,335.5 767.5,335.5C 767.5,308.833 767.5,282.167 767.5,255.5 Z"/></g>
<g><path style="opacity:1" fill="#b7825d" d="M 703.5,287.5 C 708.833,287.5 714.167,287.5 719.5,287.5C 719.5,330.167 719.5,372.833 719.5,415.5C 724.833,415.5 730.167,415.5 735.5,415.5C 735.5,463.5 735.5,511.5 735.5,559.5C 735.5,564.833 735.5,570.167 735.5,575.5C 730.167,575.5 724.833,575.5 719.5,575.5C 719.5,596.833 719.5,618.167 719.5,639.5C 714.167,639.5 708.833,639.5 703.5,639.5C 703.5,650.167 703.5,660.833 703.5,671.5C 698.167,671.5 692.833,671.5 687.5,671.5C 687.5,698.167 687.5,724.833 687.5,751.5C 682.167,751.5 676.833,751.5 671.5,751.5C 671.5,756.833 671.5,762.167 671.5,767.5C 666.167,767.5 660.833,767.5 655.5,767.5C 655.5,772.833 655.5,778.167 655.5,783.5C 650.167,783.5 644.833,783.5 639.5,783.5C 639.5,794.167 639.5,804.833 639.5,815.5C 634.167,815.5 628.833,815.5 623.5,815.5C 623.5,836.833 623.5,858.167 623.5,879.5C 618.167,879.5 612.833,879.5 607.5,879.5C 607.5,884.833 607.5,890.167 607.5,895.5C 602.167,895.5 596.833,895.5 591.5,895.5C 591.5,900.833 591.5,906.167 591.5,911.5C 586.167,911.5 580.833,911.5 575.5,911.5C 538.167,911.5 500.833,911.5 463.5,911.5C 452.833,911.5 442.167,911.5 431.5,911.5C 431.5,906.167 431.5,900.833 431.5,895.5C 420.833,895.5 410.167,895.5 399.5,895.5C 399.5,884.833 399.5,874.167 399.5,863.5C 394.167,863.5 388.833,863.5 383.5,863.5C 383.5,847.5 383.5,831.5 383.5,815.5C 372.833,815.5 362.167,815.5 351.5,815.5C 351.5,804.833 351.5,794.167 351.5,783.5C 346.167,783.5 340.833,783.5 335.5,783.5C 335.5,778.167 335.5,772.833 335.5,767.5C 330.167,767.5 324.833,767.5 319.5,767.5C 319.5,762.167 319.5,756.833 319.5,751.5C 319.5,746.167 319.5,740.833 319.5,735.5C 324.833,735.5 330.167,735.5 335.5,735.5C 335.5,714.167 335.5,692.833 335.5,671.5C 340.833,671.5 346.167,671.5 351.5,671.5C 351.5,676.833 351.5,682.167 351.5,687.5C 356.833,687.5 362.167,687.5 367.5,687.5C 367.5,692.833 367.5,698.167 367.5,703.5C 383.5,703.5 399.5,703.5 415.5,703.5C 415.5,708.833 415.5,714.167 415.5,719.5C 420.833,719.5 426.167,719.5 431.5,719.5C 431.5,724.833 431.5,730.167 431.5,735.5C 420.833,735.5 410.167,735.5 399.5,735.5C 399.5,746.167 399.5,756.833 399.5,767.5C 410.167,767.5 420.833,767.5 431.5,767.5C 436.833,767.5 442.167,767.5 447.5,767.5C 447.5,772.833 447.5,778.167 447.5,783.5C 458.167,783.5 468.833,783.5 479.5,783.5C 479.5,788.833 479.5,794.167 479.5,799.5C 479.5,810.167 479.5,820.833 479.5,831.5C 506.167,831.5 532.833,831.5 559.5,831.5C 559.5,826.167 559.5,820.833 559.5,815.5C 564.833,815.5 570.167,815.5 575.5,815.5C 575.5,810.167 575.5,804.833 575.5,799.5C 570.167,799.5 564.833,799.5 559.5,799.5C 559.5,794.167 559.5,788.833 559.5,783.5C 575.5,783.5 591.5,783.5 607.5,783.5C 607.5,778.167 607.5,772.833 607.5,767.5C 612.833,767.5 618.167,767.5 623.5,767.5C 623.5,756.833 623.5,746.167 623.5,735.5C 618.167,735.5 612.833,735.5 607.5,735.5C 607.5,740.833 607.5,746.167 607.5,751.5C 602.167,751.5 596.833,751.5 591.5,751.5C 580.833,751.5 570.167,751.5 559.5,751.5C 532.833,751.5 506.167,751.5 479.5,751.5C 479.5,746.167 479.5,740.833 479.5,735.5C 516.833,735.5 554.167,735.5 591.5,735.5C 591.5,730.167 591.5,724.833 591.5,719.5C 607.5,719.5 623.5,719.5 639.5,719.5C 639.5,714.167 639.5,708.833 639.5,703.5C 644.833,703.5 650.167,703.5 655.5,703.5C 655.5,692.833 655.5,682.167 655.5,671.5C 660.833,671.5 666.167,671.5 671.5,671.5C 671.5,660.833 671.5,650.167 671.5,639.5C 676.833,639.5 682.167,639.5 687.5,639.5C 687.5,628.833 687.5,618.167 687.5,607.5C 692.833,607.5 698.167,607.5 703.5,607.5C 703.5,596.833 703.5,586.167 703.5,575.5C 666.167,575.5 628.833,575.5 591.5,575.5C 591.5,596.833 591.5,618.167 591.5,639.5C 586.167,639.5 580.833,639.5 575.5,639.5C 575.5,628.833 575.5,618.167 575.5,607.5C 575.5,586.167 575.5,564.833 575.5,543.5C 580.833,543.5 586.167,543.5 591.5,543.5C 591.5,548.833 591.5,554.167 591.5,559.5C 618.167,559.5 644.833,559.5 671.5,559.5C 671.5,554.167 671.5,548.833 671.5,543.5C 682.167,543.5 692.833,543.5 703.5,543.5C 703.5,532.833 703.5,522.167 703.5,511.5C 708.833,511.5 714.167,511.5 719.5,511.5C 719.5,506.167 719.5,500.833 719.5,495.5C 719.5,484.833 719.5,474.167 719.5,463.5C 708.833,463.5 698.167,463.5 687.5,463.5C 687.5,458.167 687.5,452.833 687.5,447.5C 687.5,415.5 687.5,383.5 687.5,351.5C 692.833,351.5 698.167,351.5 703.5,351.5C 703.5,346.167 703.5,340.833 703.5,335.5C 698.167,335.5 692.833,335.5 687.5,335.5C 687.5,324.833 687.5,314.167 687.5,303.5C 692.833,303.5 698.167,303.5 703.5,303.5C 703.5,298.167 703.5,292.833 703.5,287.5 Z"/></g>
<g><path style="opacity:1" fill="#501e00" d="M 719.5,287.5 C 724.833,287.5 730.167,287.5 735.5,287.5C 735.5,330.167 735.5,372.833 735.5,415.5C 730.167,415.5 724.833,415.5 719.5,415.5C 719.5,372.833 719.5,330.167 719.5,287.5 Z"/></g>
<g><path style="opacity:1" fill="#2d1a0f" d="M 735.5,287.5 C 740.833,287.5 746.167,287.5 751.5,287.5C 751.5,308.833 751.5,330.167 751.5,351.5C 751.5,367.5 751.5,383.5 751.5,399.5C 756.833,399.5 762.167,399.5 767.5,399.5C 767.5,436.833 767.5,474.167 767.5,511.5C 772.833,511.5 778.167,511.5 783.5,511.5C 783.5,516.833 783.5,522.167 783.5,527.5C 778.167,527.5 772.833,527.5 767.5,527.5C 767.5,538.167 767.5,548.833 767.5,559.5C 767.5,564.833 767.5,570.167 767.5,575.5C 762.167,575.5 756.833,575.5 751.5,575.5C 751.5,570.167 751.5,564.833 751.5,559.5C 751.5,511.5 751.5,463.5 751.5,415.5C 746.167,415.5 740.833,415.5 735.5,415.5C 735.5,372.833 735.5,330.167 735.5,287.5 Z"/></g>
<g><path style="opacity:1" fill="#69503e" d="M 287.5,303.5 C 287.5,330.167 287.5,356.833 287.5,383.5C 282.167,383.5 276.833,383.5 271.5,383.5C 271.5,394.167 271.5,404.833 271.5,415.5C 266.167,415.5 260.833,415.5 255.5,415.5C 255.5,388.833 255.5,362.167 255.5,335.5C 260.833,335.5 266.167,335.5 271.5,335.5C 271.5,324.833 271.5,314.167 271.5,303.5C 276.833,303.5 282.167,303.5 287.5,303.5 Z"/></g>
<g><path style="opacity:1" fill="#000000" d="M 783.5,335.5 C 788.833,335.5 794.167,335.5 799.5,335.5C 799.5,351.5 799.5,367.5 799.5,383.5C 794.167,383.5 788.833,383.5 783.5,383.5C 783.5,367.5 783.5,351.5 783.5,335.5 Z"/></g>
<g><path style="opacity:1" fill="#69503e" d="M 751.5,351.5 C 756.833,351.5 762.167,351.5 767.5,351.5C 767.5,362.167 767.5,372.833 767.5,383.5C 767.5,388.833 767.5,394.167 767.5,399.5C 762.167,399.5 756.833,399.5 751.5,399.5C 751.5,383.5 751.5,367.5 751.5,351.5 Z"/></g>
<g><path style="opacity:1" fill="#2a1a0f" d="M 287.5,383.5 C 287.5,394.167 287.5,404.833 287.5,415.5C 282.167,415.5 276.833,415.5 271.5,415.5C 271.5,404.833 271.5,394.167 271.5,383.5C 276.833,383.5 282.167,383.5 287.5,383.5 Z"/></g>
<g><path style="opacity:1" fill="#501e00" d="M 287.5,383.5 C 292.833,383.5 298.167,383.5 303.5,383.5C 303.5,394.167 303.5,404.833 303.5,415.5C 298.167,415.5 292.833,415.5 287.5,415.5C 287.5,404.833 287.5,394.167 287.5,383.5 Z"/></g>
<g><path style="opacity:1" fill="#b7825d" d="M 303.5,383.5 C 308.833,383.5 314.167,383.5 319.5,383.5C 324.833,383.5 330.167,383.5 335.5,383.5C 335.5,388.833 335.5,394.167 335.5,399.5C 330.167,399.5 324.833,399.5 319.5,399.5C 319.5,415.5 319.5,431.5 319.5,447.5C 319.5,452.833 319.5,458.167 319.5,463.5C 314.167,463.5 308.833,463.5 303.5,463.5C 303.5,468.833 303.5,474.167 303.5,479.5C 298.167,479.5 292.833,479.5 287.5,479.5C 287.5,458.167 287.5,436.833 287.5,415.5C 292.833,415.5 298.167,415.5 303.5,415.5C 303.5,404.833 303.5,394.167 303.5,383.5 Z"/></g>
<g><path style="opacity:1" fill="#000000" d="M 767.5,383.5 C 772.833,383.5 778.167,383.5 783.5,383.5C 783.5,426.167 783.5,468.833 783.5,511.5C 778.167,511.5 772.833,511.5 767.5,511.5C 767.5,474.167 767.5,436.833 767.5,399.5C 767.5,394.167 767.5,388.833 767.5,383.5 Z"/></g>
<g><path style="opacity:1" fill="#2a1a0f" d="M 255.5,415.5 C 260.833,415.5 266.167,415.5 271.5,415.5C 271.5,436.833 271.5,458.167 271.5,479.5C 266.167,479.5 260.833,479.5 255.5,479.5C 255.5,458.167 255.5,436.833 255.5,415.5 Z"/></g>
<g><path style="opacity:1" fill="#501e00" d="M 271.5,415.5 C 276.833,415.5 282.167,415.5 287.5,415.5C 287.5,436.833 287.5,458.167 287.5,479.5C 287.5,484.833 287.5,490.167 287.5,495.5C 287.5,511.5 287.5,527.5 287.5,543.5C 282.167,543.5 276.833,543.5 271.5,543.5C 271.5,532.833 271.5,522.167 271.5,511.5C 271.5,500.833 271.5,490.167 271.5,479.5C 271.5,458.167 271.5,436.833 271.5,415.5 Z"/></g>
<g><path style="opacity:1" fill="#501e00" d="M 735.5,415.5 C 740.833,415.5 746.167,415.5 751.5,415.5C 751.5,463.5 751.5,511.5 751.5,559.5C 746.167,559.5 740.833,559.5 735.5,559.5C 735.5,511.5 735.5,463.5 735.5,415.5 Z"/></g>
<g><path style="opacity:1" fill="#68381e" d="M 479.5,463.5 C 479.5,468.833 479.5,474.167 479.5,479.5C 474.167,479.5 468.833,479.5 463.5,479.5C 463.5,474.167 463.5,468.833 463.5,463.5C 447.5,463.5 431.5,463.5 415.5,463.5C 399.5,463.5 383.5,463.5 367.5,463.5C 367.5,468.833 367.5,474.167 367.5,479.5C 362.167,479.5 356.833,479.5 351.5,479.5C 340.833,479.5 330.167,479.5 319.5,479.5C 319.5,474.167 319.5,468.833 319.5,463.5C 319.5,458.167 319.5,452.833 319.5,447.5C 330.167,447.5 340.833,447.5 351.5,447.5C 351.5,442.167 351.5,436.833 351.5,431.5C 388.833,431.5 426.167,431.5 463.5,431.5C 463.5,436.833 463.5,442.167 463.5,447.5C 468.833,447.5 474.167,447.5 479.5,447.5C 479.5,452.833 479.5,458.167 479.5,463.5 Z"/></g>
<g><path style="opacity:1" fill="#b7825d" d="M 591.5,431.5 C 591.5,436.833 591.5,442.167 591.5,447.5C 580.833,447.5 570.167,447.5 559.5,447.5C 559.5,442.167 559.5,436.833 559.5,431.5C 570.167,431.5 580.833,431.5 591.5,431.5 Z"/></g>
<g><path style="opacity:1" fill="#68381e" d="M 591.5,431.5 C 596.833,431.5 602.167,431.5 607.5,431.5C 607.5,436.833 607.5,442.167 607.5,447.5C 628.833,447.5 650.167,447.5 671.5,447.5C 676.833,447.5 682.167,447.5 687.5,447.5C 687.5,452.833 687.5,458.167 687.5,463.5C 698.167,463.5 708.833,463.5 719.5,463.5C 719.5,474.167 719.5,484.833 719.5,495.5C 714.167,495.5 708.833,495.5 703.5,495.5C 703.5,490.167 703.5,484.833 703.5,479.5C 687.5,479.5 671.5,479.5 655.5,479.5C 628.833,479.5 602.167,479.5 575.5,479.5C 564.833,479.5 554.167,479.5 543.5,479.5C 543.5,474.167 543.5,468.833 543.5,463.5C 548.833,463.5 554.167,463.5 559.5,463.5C 559.5,458.167 559.5,452.833 559.5,447.5C 570.167,447.5 580.833,447.5 591.5,447.5C 591.5,442.167 591.5,436.833 591.5,431.5 Z"/></g>
<g><path style="opacity:1" fill="#b7825d" d="M 607.5,431.5 C 628.833,431.5 650.167,431.5 671.5,431.5C 671.5,436.833 671.5,442.167 671.5,447.5C 650.167,447.5 628.833,447.5 607.5,447.5C 607.5,442.167 607.5,436.833 607.5,431.5 Z"/></g>
<g><path style="opacity:1" fill="#b7825d" d="M 559.5,447.5 C 559.5,452.833 559.5,458.167 559.5,463.5C 554.167,463.5 548.833,463.5 543.5,463.5C 543.5,468.833 543.5,474.167 543.5,479.5C 543.5,484.833 543.5,490.167 543.5,495.5C 538.167,495.5 532.833,495.5 527.5,495.5C 527.5,479.5 527.5,463.5 527.5,447.5C 538.167,447.5 548.833,447.5 559.5,447.5 Z"/></g>
<g><path style="opacity:1" fill="#7b4929" d="M 319.5,463.5 C 319.5,468.833 319.5,474.167 319.5,479.5C 330.167,479.5 340.833,479.5 351.5,479.5C 351.5,484.833 351.5,490.167 351.5,495.5C 346.167,495.5 340.833,495.5 335.5,495.5C 335.5,506.167 335.5,516.833 335.5,527.5C 324.833,527.5 314.167,527.5 303.5,527.5C 303.5,516.833 303.5,506.167 303.5,495.5C 298.167,495.5 292.833,495.5 287.5,495.5C 287.5,490.167 287.5,484.833 287.5,479.5C 292.833,479.5 298.167,479.5 303.5,479.5C 303.5,474.167 303.5,468.833 303.5,463.5C 308.833,463.5 314.167,463.5 319.5,463.5 Z"/></g>
<g><path style="opacity:1" fill="#8e5534" d="M 415.5,463.5 C 415.5,468.833 415.5,474.167 415.5,479.5C 426.167,479.5 436.833,479.5 447.5,479.5C 447.5,484.833 447.5,490.167 447.5,495.5C 452.833,495.5 458.167,495.5 463.5,495.5C 463.5,506.167 463.5,516.833 463.5,527.5C 458.167,527.5 452.833,527.5 447.5,527.5C 447.5,532.833 447.5,538.167 447.5,543.5C 415.5,543.5 383.5,543.5 351.5,543.5C 351.5,538.167 351.5,532.833 351.5,527.5C 351.5,522.167 351.5,516.833 351.5,511.5C 362.167,511.5 372.833,511.5 383.5,511.5C 383.5,516.833 383.5,522.167 383.5,527.5C 394.167,527.5 404.833,527.5 415.5,527.5C 415.5,516.833 415.5,506.167 415.5,495.5C 394.167,495.5 372.833,495.5 351.5,495.5C 351.5,490.167 351.5,484.833 351.5,479.5C 356.833,479.5 362.167,479.5 367.5,479.5C 367.5,474.167 367.5,468.833 367.5,463.5C 383.5,463.5 399.5,463.5 415.5,463.5 Z"/></g>
<g><path style="opacity:1" fill="#7c4929" d="M 415.5,463.5 C 431.5,463.5 447.5,463.5 463.5,463.5C 463.5,468.833 463.5,474.167 463.5,479.5C 468.833,479.5 474.167,479.5 479.5,479.5C 479.5,490.167 479.5,500.833 479.5,511.5C 484.833,511.5 490.167,511.5 495.5,511.5C 495.5,516.833 495.5,522.167 495.5,527.5C 484.833,527.5 474.167,527.5 463.5,527.5C 463.5,516.833 463.5,506.167 463.5,495.5C 458.167,495.5 452.833,495.5 447.5,495.5C 447.5,490.167 447.5,484.833 447.5,479.5C 436.833,479.5 426.167,479.5 415.5,479.5C 415.5,474.167 415.5,468.833 415.5,463.5 Z"/></g>
<g><path style="opacity:1" fill="#b7825d" d="M 479.5,463.5 C 484.833,463.5 490.167,463.5 495.5,463.5C 495.5,474.167 495.5,484.833 495.5,495.5C 495.5,500.833 495.5,506.167 495.5,511.5C 490.167,511.5 484.833,511.5 479.5,511.5C 479.5,500.833 479.5,490.167 479.5,479.5C 479.5,474.167 479.5,468.833 479.5,463.5 Z"/></g>
<g><path style="opacity:1" fill="#000000" d="M 255.5,479.5 C 260.833,479.5 266.167,479.5 271.5,479.5C 271.5,490.167 271.5,500.833 271.5,511.5C 266.167,511.5 260.833,511.5 255.5,511.5C 255.5,500.833 255.5,490.167 255.5,479.5 Z"/></g>
<g><path style="opacity:1" fill="#7b4929" d="M 543.5,479.5 C 554.167,479.5 564.833,479.5 575.5,479.5C 575.5,484.833 575.5,490.167 575.5,495.5C 570.167,495.5 564.833,495.5 559.5,495.5C 559.5,506.167 559.5,516.833 559.5,527.5C 554.167,527.5 548.833,527.5 543.5,527.5C 543.5,516.833 543.5,506.167 543.5,495.5C 543.5,490.167 543.5,484.833 543.5,479.5 Z"/></g>
<g><path style="opacity:1" fill="#894d2c" d="M 575.5,479.5 C 602.167,479.5 628.833,479.5 655.5,479.5C 655.5,484.833 655.5,490.167 655.5,495.5C 628.833,495.5 602.167,495.5 575.5,495.5C 575.5,490.167 575.5,484.833 575.5,479.5 Z"/></g>
<g><path style="opacity:1" fill="#7b4929" d="M 655.5,479.5 C 671.5,479.5 687.5,479.5 703.5,479.5C 703.5,484.833 703.5,490.167 703.5,495.5C 708.833,495.5 714.167,495.5 719.5,495.5C 719.5,500.833 719.5,506.167 719.5,511.5C 714.167,511.5 708.833,511.5 703.5,511.5C 703.5,522.167 703.5,532.833 703.5,543.5C 692.833,543.5 682.167,543.5 671.5,543.5C 671.5,538.167 671.5,532.833 671.5,527.5C 676.833,527.5 682.167,527.5 687.5,527.5C 687.5,522.167 687.5,516.833 687.5,511.5C 682.167,511.5 676.833,511.5 671.5,511.5C 671.5,506.167 671.5,500.833 671.5,495.5C 666.167,495.5 660.833,495.5 655.5,495.5C 655.5,490.167 655.5,484.833 655.5,479.5 Z"/></g>
<g><path style="opacity:1" fill="#b7825d" d="M 287.5,495.5 C 292.833,495.5 298.167,495.5 303.5,495.5C 303.5,506.167 303.5,516.833 303.5,527.5C 314.167,527.5 324.833,527.5 335.5,527.5C 340.833,527.5 346.167,527.5 351.5,527.5C 351.5,532.833 351.5,538.167 351.5,543.5C 383.5,543.5 415.5,543.5 447.5,543.5C 447.5,538.167 447.5,532.833 447.5,527.5C 452.833,527.5 458.167,527.5 463.5,527.5C 474.167,527.5 484.833,527.5 495.5,527.5C 495.5,532.833 495.5,538.167 495.5,543.5C 490.167,543.5 484.833,543.5 479.5,543.5C 479.5,564.833 479.5,586.167 479.5,607.5C 474.167,607.5 468.833,607.5 463.5,607.5C 463.5,612.833 463.5,618.167 463.5,623.5C 458.167,623.5 452.833,623.5 447.5,623.5C 447.5,602.167 447.5,580.833 447.5,559.5C 404.833,559.5 362.167,559.5 319.5,559.5C 319.5,564.833 319.5,570.167 319.5,575.5C 314.167,575.5 308.833,575.5 303.5,575.5C 303.5,580.833 303.5,586.167 303.5,591.5C 298.167,591.5 292.833,591.5 287.5,591.5C 287.5,575.5 287.5,559.5 287.5,543.5C 287.5,527.5 287.5,511.5 287.5,495.5 Z"/></g>
<g><path style="opacity:1" fill="#2a1a0f" d="M 351.5,495.5 C 372.833,495.5 394.167,495.5 415.5,495.5C 415.5,506.167 415.5,516.833 415.5,527.5C 404.833,527.5 394.167,527.5 383.5,527.5C 383.5,522.167 383.5,516.833 383.5,511.5C 372.833,511.5 362.167,511.5 351.5,511.5C 351.5,516.833 351.5,522.167 351.5,527.5C 346.167,527.5 340.833,527.5 335.5,527.5C 335.5,516.833 335.5,506.167 335.5,495.5C 340.833,495.5 346.167,495.5 351.5,495.5 Z"/></g>
<g><path style="opacity:1" fill="#edc2a3" d="M 495.5,495.5 C 506.167,495.5 516.833,495.5 527.5,495.5C 527.5,522.167 527.5,548.833 527.5,575.5C 532.833,575.5 538.167,575.5 543.5,575.5C 543.5,602.167 543.5,628.833 543.5,655.5C 522.167,655.5 500.833,655.5 479.5,655.5C 479.5,639.5 479.5,623.5 479.5,607.5C 484.833,607.5 490.167,607.5 495.5,607.5C 495.5,586.167 495.5,564.833 495.5,543.5C 495.5,538.167 495.5,532.833 495.5,527.5C 495.5,522.167 495.5,516.833 495.5,511.5C 495.5,506.167 495.5,500.833 495.5,495.5 Z"/></g>
<g><path style="opacity:1" fill="#894d2c" d="M 527.5,495.5 C 532.833,495.5 538.167,495.5 543.5,495.5C 543.5,506.167 543.5,516.833 543.5,527.5C 548.833,527.5 554.167,527.5 559.5,527.5C 559.5,554.167 559.5,580.833 559.5,607.5C 564.833,607.5 570.167,607.5 575.5,607.5C 575.5,618.167 575.5,628.833 575.5,639.5C 580.833,639.5 586.167,639.5 591.5,639.5C 591.5,644.833 591.5,650.167 591.5,655.5C 596.833,655.5 602.167,655.5 607.5,655.5C 607.5,660.833 607.5,666.167 607.5,671.5C 602.167,671.5 596.833,671.5 591.5,671.5C 591.5,676.833 591.5,682.167 591.5,687.5C 586.167,687.5 580.833,687.5 575.5,687.5C 548.833,687.5 522.167,687.5 495.5,687.5C 479.5,687.5 463.5,687.5 447.5,687.5C 447.5,682.167 447.5,676.833 447.5,671.5C 447.5,655.5 447.5,639.5 447.5,623.5C 452.833,623.5 458.167,623.5 463.5,623.5C 463.5,618.167 463.5,612.833 463.5,607.5C 468.833,607.5 474.167,607.5 479.5,607.5C 479.5,623.5 479.5,639.5 479.5,655.5C 500.833,655.5 522.167,655.5 543.5,655.5C 543.5,628.833 543.5,602.167 543.5,575.5C 538.167,575.5 532.833,575.5 527.5,575.5C 527.5,548.833 527.5,522.167 527.5,495.5 Z"/></g>
<g><path style="opacity:1" fill="#8f5533" d="M 575.5,495.5 C 575.5,500.833 575.5,506.167 575.5,511.5C 586.167,511.5 596.833,511.5 607.5,511.5C 607.5,516.833 607.5,522.167 607.5,527.5C 618.167,527.5 628.833,527.5 639.5,527.5C 639.5,522.167 639.5,516.833 639.5,511.5C 644.833,511.5 650.167,511.5 655.5,511.5C 655.5,516.833 655.5,522.167 655.5,527.5C 660.833,527.5 666.167,527.5 671.5,527.5C 671.5,532.833 671.5,538.167 671.5,543.5C 671.5,548.833 671.5,554.167 671.5,559.5C 644.833,559.5 618.167,559.5 591.5,559.5C 591.5,554.167 591.5,548.833 591.5,543.5C 586.167,543.5 580.833,543.5 575.5,543.5C 575.5,538.167 575.5,532.833 575.5,527.5C 570.167,527.5 564.833,527.5 559.5,527.5C 559.5,516.833 559.5,506.167 559.5,495.5C 564.833,495.5 570.167,495.5 575.5,495.5 Z"/></g>
<g><path style="opacity:1" fill="#2a1a0f" d="M 575.5,495.5 C 602.167,495.5 628.833,495.5 655.5,495.5C 660.833,495.5 666.167,495.5 671.5,495.5C 671.5,500.833 671.5,506.167 671.5,511.5C 676.833,511.5 682.167,511.5 687.5,511.5C 687.5,516.833 687.5,522.167 687.5,527.5C 682.167,527.5 676.833,527.5 671.5,527.5C 666.167,527.5 660.833,527.5 655.5,527.5C 655.5,522.167 655.5,516.833 655.5,511.5C 650.167,511.5 644.833,511.5 639.5,511.5C 639.5,516.833 639.5,522.167 639.5,527.5C 628.833,527.5 618.167,527.5 607.5,527.5C 607.5,522.167 607.5,516.833 607.5,511.5C 596.833,511.5 586.167,511.5 575.5,511.5C 575.5,506.167 575.5,500.833 575.5,495.5 Z"/></g>
<g><path style="opacity:1" fill="#000000" d="M 255.5,511.5 C 255.5,516.833 255.5,522.167 255.5,527.5C 250.167,527.5 244.833,527.5 239.5,527.5C 234.167,527.5 228.833,527.5 223.5,527.5C 223.5,564.833 223.5,602.167 223.5,639.5C 218.167,639.5 212.833,639.5 207.5,639.5C 207.5,596.833 207.5,554.167 207.5,511.5C 223.5,511.5 239.5,511.5 255.5,511.5 Z"/></g>
<g><path style="opacity:1" fill="#3d1c07" d="M 255.5,511.5 C 260.833,511.5 266.167,511.5 271.5,511.5C 271.5,522.167 271.5,532.833 271.5,543.5C 271.5,548.833 271.5,554.167 271.5,559.5C 266.167,559.5 260.833,559.5 255.5,559.5C 255.5,554.167 255.5,548.833 255.5,543.5C 250.167,543.5 244.833,543.5 239.5,543.5C 239.5,538.167 239.5,532.833 239.5,527.5C 244.833,527.5 250.167,527.5 255.5,527.5C 255.5,522.167 255.5,516.833 255.5,511.5 Z"/></g>
<g><path style="opacity:1" fill="#000000" d="M 783.5,511.5 C 794.167,511.5 804.833,511.5 815.5,511.5C 815.5,548.833 815.5,586.167 815.5,623.5C 810.167,623.5 804.833,623.5 799.5,623.5C 799.5,591.5 799.5,559.5 799.5,527.5C 794.167,527.5 788.833,527.5 783.5,527.5C 783.5,522.167 783.5,516.833 783.5,511.5 Z"/></g>
<g><path style="opacity:1" fill="#915634" d="M 239.5,527.5 C 239.5,532.833 239.5,538.167 239.5,543.5C 244.833,543.5 250.167,543.5 255.5,543.5C 255.5,548.833 255.5,554.167 255.5,559.5C 260.833,559.5 266.167,559.5 271.5,559.5C 271.5,591.5 271.5,623.5 271.5,655.5C 276.833,655.5 282.167,655.5 287.5,655.5C 287.5,666.167 287.5,676.833 287.5,687.5C 276.833,687.5 266.167,687.5 255.5,687.5C 255.5,682.167 255.5,676.833 255.5,671.5C 250.167,671.5 244.833,671.5 239.5,671.5C 239.5,660.833 239.5,650.167 239.5,639.5C 234.167,639.5 228.833,639.5 223.5,639.5C 223.5,602.167 223.5,564.833 223.5,527.5C 228.833,527.5 234.167,527.5 239.5,527.5 Z"/></g>
<g><path style="opacity:1" fill="#7b4929" d="M 559.5,527.5 C 564.833,527.5 570.167,527.5 575.5,527.5C 575.5,532.833 575.5,538.167 575.5,543.5C 575.5,564.833 575.5,586.167 575.5,607.5C 570.167,607.5 564.833,607.5 559.5,607.5C 559.5,580.833 559.5,554.167 559.5,527.5 Z"/></g>
<g><path style="opacity:1" fill="#501e00" d="M 783.5,527.5 C 783.5,538.167 783.5,548.833 783.5,559.5C 778.167,559.5 772.833,559.5 767.5,559.5C 767.5,548.833 767.5,538.167 767.5,527.5C 772.833,527.5 778.167,527.5 783.5,527.5 Z"/></g>
<g><path style="opacity:1" fill="#915634" d="M 783.5,527.5 C 788.833,527.5 794.167,527.5 799.5,527.5C 799.5,559.5 799.5,591.5 799.5,623.5C 794.167,623.5 788.833,623.5 783.5,623.5C 783.5,639.5 783.5,655.5 783.5,671.5C 778.167,671.5 772.833,671.5 767.5,671.5C 767.5,676.833 767.5,682.167 767.5,687.5C 756.833,687.5 746.167,687.5 735.5,687.5C 735.5,682.167 735.5,676.833 735.5,671.5C 740.833,671.5 746.167,671.5 751.5,671.5C 751.5,639.5 751.5,607.5 751.5,575.5C 756.833,575.5 762.167,575.5 767.5,575.5C 767.5,570.167 767.5,564.833 767.5,559.5C 772.833,559.5 778.167,559.5 783.5,559.5C 783.5,548.833 783.5,538.167 783.5,527.5 Z"/></g>
<g><path style="opacity:1" fill="#7b4929" d="M 271.5,543.5 C 276.833,543.5 282.167,543.5 287.5,543.5C 287.5,559.5 287.5,575.5 287.5,591.5C 292.833,591.5 298.167,591.5 303.5,591.5C 303.5,612.833 303.5,634.167 303.5,655.5C 308.833,655.5 314.167,655.5 319.5,655.5C 319.5,660.833 319.5,666.167 319.5,671.5C 324.833,671.5 330.167,671.5 335.5,671.5C 335.5,692.833 335.5,714.167 335.5,735.5C 330.167,735.5 324.833,735.5 319.5,735.5C 319.5,740.833 319.5,746.167 319.5,751.5C 314.167,751.5 308.833,751.5 303.5,751.5C 303.5,735.5 303.5,719.5 303.5,703.5C 298.167,703.5 292.833,703.5 287.5,703.5C 287.5,698.167 287.5,692.833 287.5,687.5C 287.5,676.833 287.5,666.167 287.5,655.5C 282.167,655.5 276.833,655.5 271.5,655.5C 271.5,623.5 271.5,591.5 271.5,559.5C 271.5,554.167 271.5,548.833 271.5,543.5 Z"/></g>
<g><path style="opacity:1" fill="#874a29" d="M 495.5,543.5 C 495.5,564.833 495.5,586.167 495.5,607.5C 490.167,607.5 484.833,607.5 479.5,607.5C 479.5,586.167 479.5,564.833 479.5,543.5C 484.833,543.5 490.167,543.5 495.5,543.5 Z"/></g>
<g><path style="opacity:1" fill="#edbc98" d="M 447.5,623.5 C 442.167,623.5 436.833,623.5 431.5,623.5C 431.5,639.5 431.5,655.5 431.5,671.5C 436.833,671.5 442.167,671.5 447.5,671.5C 447.5,676.833 447.5,682.167 447.5,687.5C 463.5,687.5 479.5,687.5 495.5,687.5C 495.5,692.833 495.5,698.167 495.5,703.5C 522.167,703.5 548.833,703.5 575.5,703.5C 575.5,698.167 575.5,692.833 575.5,687.5C 580.833,687.5 586.167,687.5 591.5,687.5C 591.5,682.167 591.5,676.833 591.5,671.5C 596.833,671.5 602.167,671.5 607.5,671.5C 607.5,666.167 607.5,660.833 607.5,655.5C 602.167,655.5 596.833,655.5 591.5,655.5C 591.5,650.167 591.5,644.833 591.5,639.5C 591.5,618.167 591.5,596.833 591.5,575.5C 628.833,575.5 666.167,575.5 703.5,575.5C 703.5,586.167 703.5,596.833 703.5,607.5C 698.167,607.5 692.833,607.5 687.5,607.5C 687.5,618.167 687.5,628.833 687.5,639.5C 682.167,639.5 676.833,639.5 671.5,639.5C 671.5,650.167 671.5,660.833 671.5,671.5C 666.167,671.5 660.833,671.5 655.5,671.5C 655.5,682.167 655.5,692.833 655.5,703.5C 650.167,703.5 644.833,703.5 639.5,703.5C 639.5,708.833 639.5,714.167 639.5,719.5C 623.5,719.5 607.5,719.5 591.5,719.5C 591.5,724.833 591.5,730.167 591.5,735.5C 554.167,735.5 516.833,735.5 479.5,735.5C 463.5,735.5 447.5,735.5 431.5,735.5C 431.5,730.167 431.5,724.833 431.5,719.5C 426.167,719.5 420.833,719.5 415.5,719.5C 415.5,714.167 415.5,708.833 415.5,703.5C 399.5,703.5 383.5,703.5 367.5,703.5C 367.5,698.167 367.5,692.833 367.5,687.5C 362.167,687.5 356.833,687.5 351.5,687.5C 351.5,682.167 351.5,676.833 351.5,671.5C 346.167,671.5 340.833,671.5 335.5,671.5C 335.5,660.833 335.5,650.167 335.5,639.5C 330.167,639.5 324.833,639.5 319.5,639.5C 319.5,623.5 319.5,607.5 319.5,591.5C 314.167,591.5 308.833,591.5 303.5,591.5C 303.5,586.167 303.5,580.833 303.5,575.5C 308.833,575.5 314.167,575.5 319.5,575.5C 319.5,570.167 319.5,564.833 319.5,559.5C 362.167,559.5 404.833,559.5 447.5,559.5C 447.5,580.833 447.5,602.167 447.5,623.5 Z"/></g>
<g><path style="opacity:0.999" fill="#7a4728" d="M 735.5,559.5 C 740.833,559.5 746.167,559.5 751.5,559.5C 751.5,564.833 751.5,570.167 751.5,575.5C 751.5,607.5 751.5,639.5 751.5,671.5C 746.167,671.5 740.833,671.5 735.5,671.5C 735.5,676.833 735.5,682.167 735.5,687.5C 735.5,692.833 735.5,698.167 735.5,703.5C 730.167,703.5 724.833,703.5 719.5,703.5C 719.5,730.167 719.5,756.833 719.5,783.5C 714.167,783.5 708.833,783.5 703.5,783.5C 703.5,794.167 703.5,804.833 703.5,815.5C 698.167,815.5 692.833,815.5 687.5,815.5C 687.5,826.167 687.5,836.833 687.5,847.5C 692.833,847.5 698.167,847.5 703.5,847.5C 703.5,858.167 703.5,868.833 703.5,879.5C 708.833,879.5 714.167,879.5 719.5,879.5C 719.5,890.167 719.5,900.833 719.5,911.5C 724.833,911.5 730.167,911.5 735.5,911.5C 735.5,916.833 735.5,922.167 735.5,927.5C 746.167,927.5 756.833,927.5 767.5,927.5C 767.5,936.833 767.5,946.167 767.5,955.5C 727.347,978.888 684.68,996.221 639.5,1007.5C 639.5,1002.17 639.5,996.833 639.5,991.5C 644.833,991.5 650.167,991.5 655.5,991.5C 655.5,986.167 655.5,980.833 655.5,975.5C 660.833,975.5 666.167,975.5 671.5,975.5C 671.5,964.833 671.5,954.167 671.5,943.5C 676.833,943.5 682.167,943.5 687.5,943.5C 687.5,922.167 687.5,900.833 687.5,879.5C 676.833,879.5 666.167,879.5 655.5,879.5C 655.5,884.833 655.5,890.167 655.5,895.5C 650.167,895.5 644.833,895.5 639.5,895.5C 628.833,895.5 618.167,895.5 607.5,895.5C 607.5,890.167 607.5,884.833 607.5,879.5C 612.833,879.5 618.167,879.5 623.5,879.5C 623.5,858.167 623.5,836.833 623.5,815.5C 628.833,815.5 634.167,815.5 639.5,815.5C 639.5,804.833 639.5,794.167 639.5,783.5C 644.833,783.5 650.167,783.5 655.5,783.5C 655.5,778.167 655.5,772.833 655.5,767.5C 660.833,767.5 666.167,767.5 671.5,767.5C 671.5,762.167 671.5,756.833 671.5,751.5C 676.833,751.5 682.167,751.5 687.5,751.5C 687.5,724.833 687.5,698.167 687.5,671.5C 692.833,671.5 698.167,671.5 703.5,671.5C 703.5,660.833 703.5,650.167 703.5,639.5C 708.833,639.5 714.167,639.5 719.5,639.5C 719.5,618.167 719.5,596.833 719.5,575.5C 724.833,575.5 730.167,575.5 735.5,575.5C 735.5,570.167 735.5,564.833 735.5,559.5 Z"/></g>
<g><path style="opacity:1" fill="#b7825d" d="M 303.5,591.5 C 308.833,591.5 314.167,591.5 319.5,591.5C 319.5,607.5 319.5,623.5 319.5,639.5C 324.833,639.5 330.167,639.5 335.5,639.5C 335.5,650.167 335.5,660.833 335.5,671.5C 330.167,671.5 324.833,671.5 319.5,671.5C 319.5,666.167 319.5,660.833 319.5,655.5C 314.167,655.5 308.833,655.5 303.5,655.5C 303.5,634.167 303.5,612.833 303.5,591.5 Z"/></g>
<g><path style="opacity:1" fill="#b7825d" d="M 447.5,623.5 C 447.5,639.5 447.5,655.5 447.5,671.5C 442.167,671.5 436.833,671.5 431.5,671.5C 431.5,655.5 431.5,639.5 431.5,623.5C 436.833,623.5 442.167,623.5 447.5,623.5 Z"/></g>
<g><path style="opacity:1" fill="#000000" d="M 799.5,623.5 C 799.5,639.5 799.5,655.5 799.5,671.5C 794.167,671.5 788.833,671.5 783.5,671.5C 783.5,655.5 783.5,639.5 783.5,623.5C 788.833,623.5 794.167,623.5 799.5,623.5 Z"/></g>
<g><path style="opacity:1" fill="#000000" d="M 223.5,639.5 C 228.833,639.5 234.167,639.5 239.5,639.5C 239.5,650.167 239.5,660.833 239.5,671.5C 234.167,671.5 228.833,671.5 223.5,671.5C 223.5,660.833 223.5,650.167 223.5,639.5 Z"/></g>
<g><path style="opacity:1" fill="#000000" d="M 239.5,671.5 C 244.833,671.5 250.167,671.5 255.5,671.5C 255.5,676.833 255.5,682.167 255.5,687.5C 266.167,687.5 276.833,687.5 287.5,687.5C 287.5,692.833 287.5,698.167 287.5,703.5C 271.5,703.5 255.5,703.5 239.5,703.5C 239.5,692.833 239.5,682.167 239.5,671.5 Z"/></g>
<g><path style="opacity:1" fill="#000000" d="M 783.5,671.5 C 783.5,682.167 783.5,692.833 783.5,703.5C 767.5,703.5 751.5,703.5 735.5,703.5C 735.5,698.167 735.5,692.833 735.5,687.5C 746.167,687.5 756.833,687.5 767.5,687.5C 767.5,682.167 767.5,676.833 767.5,671.5C 772.833,671.5 778.167,671.5 783.5,671.5 Z"/></g>
<g><path style="opacity:1" fill="#b7825d" d="M 495.5,687.5 C 522.167,687.5 548.833,687.5 575.5,687.5C 575.5,692.833 575.5,698.167 575.5,703.5C 548.833,703.5 522.167,703.5 495.5,703.5C 495.5,698.167 495.5,692.833 495.5,687.5 Z"/></g>
<g><path style="opacity:1" fill="#000000" d="M 287.5,703.5 C 292.833,703.5 298.167,703.5 303.5,703.5C 303.5,719.5 303.5,735.5 303.5,751.5C 298.167,751.5 292.833,751.5 287.5,751.5C 287.5,735.5 287.5,719.5 287.5,703.5 Z"/></g>
<g><path style="opacity:1" fill="#000000" d="M 735.5,703.5 C 735.5,746.167 735.5,788.833 735.5,831.5C 730.167,831.5 724.833,831.5 719.5,831.5C 719.5,815.5 719.5,799.5 719.5,783.5C 719.5,756.833 719.5,730.167 719.5,703.5C 724.833,703.5 730.167,703.5 735.5,703.5 Z"/></g>
<g><path style="opacity:1" fill="#7b4929" d="M 431.5,735.5 C 447.5,735.5 463.5,735.5 479.5,735.5C 479.5,740.833 479.5,746.167 479.5,751.5C 474.167,751.5 468.833,751.5 463.5,751.5C 452.833,751.5 442.167,751.5 431.5,751.5C 431.5,756.833 431.5,762.167 431.5,767.5C 420.833,767.5 410.167,767.5 399.5,767.5C 399.5,756.833 399.5,746.167 399.5,735.5C 410.167,735.5 420.833,735.5 431.5,735.5 Z"/></g>
<g><path style="opacity:1" fill="#7b4929" d="M 607.5,767.5 C 602.167,767.5 596.833,767.5 591.5,767.5C 591.5,762.167 591.5,756.833 591.5,751.5C 596.833,751.5 602.167,751.5 607.5,751.5C 607.5,746.167 607.5,740.833 607.5,735.5C 612.833,735.5 618.167,735.5 623.5,735.5C 623.5,746.167 623.5,756.833 623.5,767.5C 618.167,767.5 612.833,767.5 607.5,767.5 Z"/></g>
<g><path style="opacity:1" fill="#000000" d="M 303.5,751.5 C 308.833,751.5 314.167,751.5 319.5,751.5C 319.5,756.833 319.5,762.167 319.5,767.5C 319.5,778.167 319.5,788.833 319.5,799.5C 314.167,799.5 308.833,799.5 303.5,799.5C 303.5,783.5 303.5,767.5 303.5,751.5 Z"/></g>
<g><path style="opacity:1" fill="#5d1504" d="M 463.5,751.5 C 463.5,756.833 463.5,762.167 463.5,767.5C 458.167,767.5 452.833,767.5 447.5,767.5C 442.167,767.5 436.833,767.5 431.5,767.5C 431.5,762.167 431.5,756.833 431.5,751.5C 442.167,751.5 452.833,751.5 463.5,751.5 Z"/></g>
<g><path style="opacity:1" fill="#751f0e" d="M 463.5,751.5 C 468.833,751.5 474.167,751.5 479.5,751.5C 506.167,751.5 532.833,751.5 559.5,751.5C 559.5,756.833 559.5,762.167 559.5,767.5C 554.167,767.5 548.833,767.5 543.5,767.5C 522.167,767.5 500.833,767.5 479.5,767.5C 474.167,767.5 468.833,767.5 463.5,767.5C 463.5,762.167 463.5,756.833 463.5,751.5 Z"/></g>
<g><path style="opacity:1" fill="#5d1504" d="M 559.5,751.5 C 570.167,751.5 580.833,751.5 591.5,751.5C 591.5,756.833 591.5,762.167 591.5,767.5C 580.833,767.5 570.167,767.5 559.5,767.5C 559.5,762.167 559.5,756.833 559.5,751.5 Z"/></g>
<g><path style="opacity:1" fill="#744222" d="M 319.5,767.5 C 324.833,767.5 330.167,767.5 335.5,767.5C 335.5,772.833 335.5,778.167 335.5,783.5C 340.833,783.5 346.167,783.5 351.5,783.5C 351.5,794.167 351.5,804.833 351.5,815.5C 362.167,815.5 372.833,815.5 383.5,815.5C 383.5,831.5 383.5,847.5 383.5,863.5C 388.833,863.5 394.167,863.5 399.5,863.5C 399.5,874.167 399.5,884.833 399.5,895.5C 394.167,895.5 388.833,895.5 383.5,895.5C 383.5,890.167 383.5,884.833 383.5,879.5C 378.167,879.5 372.833,879.5 367.5,879.5C 367.5,874.167 367.5,868.833 367.5,863.5C 367.5,858.167 367.5,852.833 367.5,847.5C 362.167,847.5 356.833,847.5 351.5,847.5C 351.5,842.167 351.5,836.833 351.5,831.5C 346.167,831.5 340.833,831.5 335.5,831.5C 335.5,820.833 335.5,810.167 335.5,799.5C 330.167,799.5 324.833,799.5 319.5,799.5C 319.5,788.833 319.5,778.167 319.5,767.5 Z"/></g>
<g><path style="opacity:1" fill="#915634" d="M 447.5,767.5 C 452.833,767.5 458.167,767.5 463.5,767.5C 468.833,767.5 474.167,767.5 479.5,767.5C 479.5,772.833 479.5,778.167 479.5,783.5C 468.833,783.5 458.167,783.5 447.5,783.5C 447.5,778.167 447.5,772.833 447.5,767.5 Z"/></g>
<g><path style="opacity:1" fill="#c58068" d="M 479.5,767.5 C 500.833,767.5 522.167,767.5 543.5,767.5C 543.5,778.167 543.5,788.833 543.5,799.5C 522.167,799.5 500.833,799.5 479.5,799.5C 479.5,794.167 479.5,788.833 479.5,783.5C 479.5,778.167 479.5,772.833 479.5,767.5 Z"/></g>
<g><path style="opacity:1" fill="#915634" d="M 543.5,767.5 C 548.833,767.5 554.167,767.5 559.5,767.5C 570.167,767.5 580.833,767.5 591.5,767.5C 596.833,767.5 602.167,767.5 607.5,767.5C 607.5,772.833 607.5,778.167 607.5,783.5C 591.5,783.5 575.5,783.5 559.5,783.5C 559.5,788.833 559.5,794.167 559.5,799.5C 554.167,799.5 548.833,799.5 543.5,799.5C 543.5,788.833 543.5,778.167 543.5,767.5 Z"/></g>
<g><path style="opacity:1" fill="#5e2c0d" d="M 719.5,783.5 C 719.5,799.5 719.5,815.5 719.5,831.5C 714.167,831.5 708.833,831.5 703.5,831.5C 703.5,826.167 703.5,820.833 703.5,815.5C 703.5,804.833 703.5,794.167 703.5,783.5C 708.833,783.5 714.167,783.5 719.5,783.5 Z"/></g>
<g><path style="opacity:1" fill="#130700" d="M 319.5,799.5 C 324.833,799.5 330.167,799.5 335.5,799.5C 335.5,810.167 335.5,820.833 335.5,831.5C 340.833,831.5 346.167,831.5 351.5,831.5C 351.5,836.833 351.5,842.167 351.5,847.5C 356.833,847.5 362.167,847.5 367.5,847.5C 367.5,852.833 367.5,858.167 367.5,863.5C 362.167,863.5 356.833,863.5 351.5,863.5C 351.5,874.167 351.5,884.833 351.5,895.5C 346.167,895.5 340.833,895.5 335.5,895.5C 335.5,879.5 335.5,863.5 335.5,847.5C 330.167,847.5 324.833,847.5 319.5,847.5C 319.5,831.5 319.5,815.5 319.5,799.5 Z"/></g>
<g><path style="opacity:1" fill="#7b4929" d="M 479.5,799.5 C 500.833,799.5 522.167,799.5 543.5,799.5C 548.833,799.5 554.167,799.5 559.5,799.5C 564.833,799.5 570.167,799.5 575.5,799.5C 575.5,804.833 575.5,810.167 575.5,815.5C 570.167,815.5 564.833,815.5 559.5,815.5C 559.5,820.833 559.5,826.167 559.5,831.5C 532.833,831.5 506.167,831.5 479.5,831.5C 479.5,820.833 479.5,810.167 479.5,799.5 Z"/></g>
<g><path style="opacity:1" fill="#501e00" d="M 703.5,815.5 C 703.5,820.833 703.5,826.167 703.5,831.5C 703.5,836.833 703.5,842.167 703.5,847.5C 698.167,847.5 692.833,847.5 687.5,847.5C 687.5,836.833 687.5,826.167 687.5,815.5C 692.833,815.5 698.167,815.5 703.5,815.5 Z"/></g>
<g><path style="opacity:1" fill="#000000" d="M 703.5,831.5 C 708.833,831.5 714.167,831.5 719.5,831.5C 719.5,847.5 719.5,863.5 719.5,879.5C 714.167,879.5 708.833,879.5 703.5,879.5C 703.5,868.833 703.5,858.167 703.5,847.5C 703.5,842.167 703.5,836.833 703.5,831.5 Z"/></g>
<g><path style="opacity:1" fill="#edbc98" d="M 447.5,847.5 C 495.5,847.5 543.5,847.5 591.5,847.5C 591.5,858.167 591.5,868.833 591.5,879.5C 580.833,879.5 570.167,879.5 559.5,879.5C 559.5,884.833 559.5,890.167 559.5,895.5C 527.5,895.5 495.5,895.5 463.5,895.5C 463.5,890.167 463.5,884.833 463.5,879.5C 458.167,879.5 452.833,879.5 447.5,879.5C 447.5,868.833 447.5,858.167 447.5,847.5 Z"/></g>
<g><path style="opacity:1" fill="#7b4929" d="M 367.5,863.5 C 367.5,868.833 367.5,874.167 367.5,879.5C 372.833,879.5 378.167,879.5 383.5,879.5C 383.5,884.833 383.5,890.167 383.5,895.5C 388.833,895.5 394.167,895.5 399.5,895.5C 399.5,900.833 399.5,906.167 399.5,911.5C 383.5,911.5 367.5,911.5 351.5,911.5C 351.5,927.5 351.5,943.5 351.5,959.5C 346.167,959.5 340.833,959.5 335.5,959.5C 335.5,948.833 335.5,938.167 335.5,927.5C 330.167,927.5 324.833,927.5 319.5,927.5C 319.5,922.167 319.5,916.833 319.5,911.5C 324.833,911.5 330.167,911.5 335.5,911.5C 335.5,906.167 335.5,900.833 335.5,895.5C 340.833,895.5 346.167,895.5 351.5,895.5C 351.5,884.833 351.5,874.167 351.5,863.5C 356.833,863.5 362.167,863.5 367.5,863.5 Z"/></g>
<g><path style="opacity:1" fill="#b7825d" d="M 639.5,1007.5 C 639.167,1007.5 638.833,1007.5 638.5,1007.5C 628.167,1007.5 617.833,1007.5 607.5,1007.5C 607.5,986.167 607.5,964.833 607.5,943.5C 612.833,943.5 618.167,943.5 623.5,943.5C 623.5,932.833 623.5,922.167 623.5,911.5C 628.833,911.5 634.167,911.5 639.5,911.5C 639.5,906.167 639.5,900.833 639.5,895.5C 644.833,895.5 650.167,895.5 655.5,895.5C 655.5,890.167 655.5,884.833 655.5,879.5C 666.167,879.5 676.833,879.5 687.5,879.5C 687.5,900.833 687.5,922.167 687.5,943.5C 682.167,943.5 676.833,943.5 671.5,943.5C 671.5,954.167 671.5,964.833 671.5,975.5C 666.167,975.5 660.833,975.5 655.5,975.5C 655.5,980.833 655.5,986.167 655.5,991.5C 650.167,991.5 644.833,991.5 639.5,991.5C 639.5,996.833 639.5,1002.17 639.5,1007.5 Z"/></g>
<g><path style="opacity:1" fill="#000000" d="M 719.5,879.5 C 724.833,879.5 730.167,879.5 735.5,879.5C 735.5,890.167 735.5,900.833 735.5,911.5C 730.167,911.5 724.833,911.5 719.5,911.5C 719.5,900.833 719.5,890.167 719.5,879.5 Z"/></g>
<g><path style="opacity:1" fill="#000000" d="M 335.5,895.5 C 335.5,900.833 335.5,906.167 335.5,911.5C 330.167,911.5 324.833,911.5 319.5,911.5C 308.833,911.5 298.167,911.5 287.5,911.5C 282.167,911.5 276.833,911.5 271.5,911.5C 271.5,906.167 271.5,900.833 271.5,895.5C 292.833,895.5 314.167,895.5 335.5,895.5 Z"/></g>
<g><path style="opacity:1" fill="#501e00" d="M 399.5,895.5 C 410.167,895.5 420.833,895.5 431.5,895.5C 431.5,900.833 431.5,906.167 431.5,911.5C 420.833,911.5 410.167,911.5 399.5,911.5C 399.5,906.167 399.5,900.833 399.5,895.5 Z"/></g>
<g><path style="opacity:1" fill="#5e2c0d" d="M 607.5,895.5 C 618.167,895.5 628.833,895.5 639.5,895.5C 639.5,900.833 639.5,906.167 639.5,911.5C 634.167,911.5 628.833,911.5 623.5,911.5C 618.167,911.5 612.833,911.5 607.5,911.5C 602.167,911.5 596.833,911.5 591.5,911.5C 591.5,906.167 591.5,900.833 591.5,895.5C 596.833,895.5 602.167,895.5 607.5,895.5 Z"/></g>
<g><path style="opacity:1" fill="#000000" d="M 271.5,911.5 C 271.5,916.833 271.5,922.167 271.5,927.5C 255.5,927.5 239.5,927.5 223.5,927.5C 223.5,922.167 223.5,916.833 223.5,911.5C 239.5,911.5 255.5,911.5 271.5,911.5 Z"/></g>
<g><path style="opacity:0.998" fill="#6a4f3e" d="M 271.5,911.5 C 276.833,911.5 282.167,911.5 287.5,911.5C 287.5,931.833 287.5,952.167 287.5,972.5C 282.167,969.833 276.833,967.167 271.5,964.5C 271.5,952.167 271.5,939.833 271.5,927.5C 271.5,922.167 271.5,916.833 271.5,911.5 Z"/></g>
<g><path style="opacity:0.997" fill="#b5815c" d="M 287.5,911.5 C 298.167,911.5 308.833,911.5 319.5,911.5C 319.5,916.833 319.5,922.167 319.5,927.5C 324.833,927.5 330.167,927.5 335.5,927.5C 335.5,938.167 335.5,948.833 335.5,959.5C 340.833,959.5 346.167,959.5 351.5,959.5C 351.5,943.5 351.5,927.5 351.5,911.5C 367.5,911.5 383.5,911.5 399.5,911.5C 399.5,916.833 399.5,922.167 399.5,927.5C 404.833,927.5 410.167,927.5 415.5,927.5C 415.5,932.833 415.5,938.167 415.5,943.5C 420.833,943.5 426.167,943.5 431.5,943.5C 431.5,948.833 431.5,954.167 431.5,959.5C 436.833,959.5 442.167,959.5 447.5,959.5C 447.5,964.833 447.5,970.167 447.5,975.5C 452.833,975.5 458.167,975.5 463.5,975.5C 463.5,990.833 463.5,1006.17 463.5,1021.5C 401.83,1015.75 343.163,999.417 287.5,972.5C 287.5,952.167 287.5,931.833 287.5,911.5 Z"/></g>
<g><path style="opacity:0.997" fill="#7c4929" d="M 399.5,911.5 C 410.167,911.5 420.833,911.5 431.5,911.5C 431.5,916.833 431.5,922.167 431.5,927.5C 442.167,927.5 452.833,927.5 463.5,927.5C 463.5,932.833 463.5,938.167 463.5,943.5C 500.833,943.5 538.167,943.5 575.5,943.5C 575.5,938.167 575.5,932.833 575.5,927.5C 586.167,927.5 596.833,927.5 607.5,927.5C 607.5,922.167 607.5,916.833 607.5,911.5C 612.833,911.5 618.167,911.5 623.5,911.5C 623.5,922.167 623.5,932.833 623.5,943.5C 618.167,943.5 612.833,943.5 607.5,943.5C 607.5,964.833 607.5,986.167 607.5,1007.5C 617.833,1007.5 628.167,1007.5 638.5,1007.5C 607.313,1015.75 575.646,1021.09 543.5,1023.5C 522.167,1023.5 500.833,1023.5 479.5,1023.5C 474.319,1022.68 468.986,1022.02 463.5,1021.5C 463.5,1006.17 463.5,990.833 463.5,975.5C 458.167,975.5 452.833,975.5 447.5,975.5C 447.5,970.167 447.5,964.833 447.5,959.5C 442.167,959.5 436.833,959.5 431.5,959.5C 431.5,954.167 431.5,948.833 431.5,943.5C 426.167,943.5 420.833,943.5 415.5,943.5C 415.5,938.167 415.5,932.833 415.5,927.5C 410.167,927.5 404.833,927.5 399.5,927.5C 399.5,922.167 399.5,916.833 399.5,911.5 Z"/></g>
<g><path style="opacity:1" fill="#501e00" d="M 431.5,911.5 C 442.167,911.5 452.833,911.5 463.5,911.5C 463.5,916.833 463.5,922.167 463.5,927.5C 452.833,927.5 442.167,927.5 431.5,927.5C 431.5,922.167 431.5,916.833 431.5,911.5 Z"/></g>
<g><path style="opacity:1" fill="#7b4929" d="M 463.5,911.5 C 500.833,911.5 538.167,911.5 575.5,911.5C 575.5,916.833 575.5,922.167 575.5,927.5C 538.167,927.5 500.833,927.5 463.5,927.5C 463.5,922.167 463.5,916.833 463.5,911.5 Z"/></g>
<g><path style="opacity:1" fill="#501e00" d="M 575.5,911.5 C 580.833,911.5 586.167,911.5 591.5,911.5C 596.833,911.5 602.167,911.5 607.5,911.5C 607.5,916.833 607.5,922.167 607.5,927.5C 596.833,927.5 586.167,927.5 575.5,927.5C 575.5,922.167 575.5,916.833 575.5,911.5 Z"/></g>
<g><path style="opacity:0.991" fill="#000000" d="M 735.5,911.5 C 767.5,911.5 799.5,911.5 831.5,911.5C 824.718,917.064 817.718,922.398 810.5,927.5C 796.167,927.5 781.833,927.5 767.5,927.5C 756.833,927.5 746.167,927.5 735.5,927.5C 735.5,922.167 735.5,916.833 735.5,911.5 Z"/></g>
<g><path style="opacity:0.987" fill="#1f1c1b" d="M 212.5,927.5 C 216.167,927.5 219.833,927.5 223.5,927.5C 239.5,927.5 255.5,927.5 271.5,927.5C 271.5,939.833 271.5,952.167 271.5,964.5C 250.955,953.404 231.289,941.07 212.5,927.5 Z"/></g>
<g><path style="opacity:1" fill="#501e00" d="M 463.5,927.5 C 500.833,927.5 538.167,927.5 575.5,927.5C 575.5,932.833 575.5,938.167 575.5,943.5C 538.167,943.5 500.833,943.5 463.5,943.5C 463.5,938.167 463.5,932.833 463.5,927.5 Z"/></g>
<g><path style="opacity:0.973" fill="#b47e5c" d="M 767.5,927.5 C 781.833,927.5 796.167,927.5 810.5,927.5C 796.729,937.587 782.396,946.92 767.5,955.5C 767.5,946.167 767.5,936.833 767.5,927.5 Z"/></g>
</svg>
