<?xml version="1.0" encoding="UTF-8"?>
<!DOCTYPE svg PUBLIC "-//W3C//DTD SVG 1.1//EN" "http://www.w3.org/Graphics/SVG/1.1/DTD/svg11.dtd">
<svg xmlns="http://www.w3.org/2000/svg" version="1.1" width="1024px" height="1024px" style="shape-rendering:geometricPrecision; text-rendering:geometricPrecision; image-rendering:optimizeQuality; fill-rule:evenodd; clip-rule:evenodd" xmlns:xlink="http://www.w3.org/1999/xlink">
<g><path style="opacity:0.113" fill="#fefffe" d="M 799.5,335.5 C 794.167,335.5 788.833,335.5 783.5,335.5C 783.5,308.833 783.5,282.167 783.5,255.5C 778.167,255.5 772.833,255.5 767.5,255.5C 767.5,244.833 767.5,234.167 767.5,223.5C 772.833,223.5 778.167,223.5 783.5,223.5C 783.5,212.833 783.5,202.167 783.5,191.5C 778.167,191.5 772.833,191.5 767.5,191.5C 767.5,180.833 767.5,170.167 767.5,159.5C 762.167,159.5 756.833,159.5 751.5,159.5C 751.5,148.833 751.5,138.167 751.5,127.5C 746.167,127.5 740.833,127.5 735.5,127.5C 735.5,122.167 735.5,116.833 735.5,111.5C 730.167,111.5 724.833,111.5 719.5,111.5C 719.5,106.167 719.5,100.833 719.5,95.5C 714.167,95.5 708.833,95.5 703.5,95.5C 703.5,90.1667 703.5,84.8333 703.5,79.5C 692.833,79.5 682.167,79.5 671.5,79.5C 671.5,74.1667 671.5,68.8333 671.5,63.5C 660.833,63.5 650.167,63.5 639.5,63.5C 639.5,58.1667 639.5,52.8333 639.5,47.5C 623.5,47.5 607.5,47.5 591.5,47.5C 591.5,42.1667 591.5,36.8333 591.5,31.5C 527.5,31.5 463.5,31.5 399.5,31.5C 399.5,36.8333 399.5,42.1667 399.5,47.5C 388.833,47.5 378.167,47.5 367.5,47.5C 367.5,52.8333 367.5,58.1667 367.5,63.5C 356.833,63.5 346.167,63.5 335.5,63.5C 335.5,68.8333 335.5,74.1667 335.5,79.5C 324.833,79.5 314.167,79.5 303.5,79.5C 303.5,84.8333 303.5,90.1667 303.5,95.5C 298.167,95.5 292.833,95.5 287.5,95.5C 287.5,106.167 287.5,116.833 287.5,127.5C 282.167,127.5 276.833,127.5 271.5,127.5C 271.5,132.833 271.5,138.167 271.5,143.5C 266.167,143.5 260.833,143.5 255.5,143.5C 255.5,148.833 255.5,154.167 255.5,159.5C 250.167,159.5 244.833,159.5 239.5,159.5C 239.5,266.167 239.5,372.833 239.5,479.5C 244.833,479.5 250.167,479.5 255.5,479.5C 255.5,490.167 255.5,500.833 255.5,511.5C 239.5,511.5 223.5,511.5 207.5,511.5C 207.5,554.167 207.5,596.833 207.5,639.5C 212.833,639.5 218.167,639.5 223.5,639.5C 223.5,650.167 223.5,660.833 223.5,671.5C 228.833,671.5 234.167,671.5 239.5,671.5C 239.5,682.167 239.5,692.833 239.5,703.5C 255.5,703.5 271.5,703.5 287.5,703.5C 287.5,719.5 287.5,735.5 287.5,751.5C 292.833,751.5 298.167,751.5 303.5,751.5C 303.5,767.5 303.5,783.5 303.5,799.5C 308.833,799.5 314.167,799.5 319.5,799.5C 319.5,815.5 319.5,831.5 319.5,847.5C 324.833,847.5 330.167,847.5 335.5,847.5C 335.5,863.5 335.5,879.5 335.5,895.5C 314.167,895.5 292.833,895.5 271.5,895.5C 271.5,900.833 271.5,906.167 271.5,911.5C 255.5,911.5 239.5,911.5 223.5,911.5C 223.5,916.833 223.5,922.167 223.5,927.5C 207.5,927.5 191.5,927.5 175.5,927.5C 175.5,932.833 175.5,938.167 175.5,943.5C 164.833,943.5 154.167,943.5 143.5,943.5C 143.5,948.833 143.5,954.167 143.5,959.5C 132.833,959.5 122.167,959.5 111.5,959.5C 111.5,964.833 111.5,970.167 111.5,975.5C 100.833,975.5 90.1667,975.5 79.5,975.5C 79.5,980.833 79.5,986.167 79.5,991.5C 68.8333,991.5 58.1667,991.5 47.5,991.5C 47.5,996.833 47.5,1002.17 47.5,1007.5C 36.8333,1007.5 26.1667,1007.5 15.5,1007.5C 15.5,1012.83 15.5,1018.17 15.5,1023.5C 14.8333,1023.5 14.1667,1023.5 13.5,1023.5C 13.6372,1018.99 13.8038,1014.32 14,1009.5C 14.2492,1008.38 14.7492,1007.38 15.5,1006.5C 25.4308,1006.49 35.4308,1006.33 45.5,1006C 46.6133,1002.56 46.6133,999.065 45.5,995.5C 45.4858,993.407 46.1524,991.574 47.5,990C 57.1811,990.197 66.8478,990.197 76.5,990C 77.3567,989.311 78.0233,988.478 78.5,987.5C 77.0351,982.855 77.3684,978.355 79.5,974C 89.511,973.781 99.511,973.781 109.5,974C 109.52,968.548 109.854,963.048 110.5,957.5C 120.152,957.562 129.819,957.895 139.5,958.5C 141.455,957.72 142.455,956.22 142.5,954C 141.216,949.816 141.216,945.649 142.5,941.5C 153.079,941.858 163.746,941.858 174.5,941.5C 173.446,936.143 173.446,930.81 174.5,925.5C 190.5,925.5 206.5,925.5 222.5,925.5C 221.865,920.332 222.198,915.165 223.5,910C 238.487,909.747 253.32,909.914 268,910.5C 269.299,909.91 270.132,908.91 270.5,907.5C 269.242,902.829 269.242,898.162 270.5,893.5C 291.529,893.592 312.529,893.592 333.5,893.5C 334.509,879.093 334.675,864.759 334,850.5C 328.928,849.529 323.762,849.195 318.5,849.5C 318.135,833.612 317.968,817.612 318,801.5C 313.045,801.398 307.878,801.398 302.5,801.5C 302.471,786.371 302.471,771.371 302.5,756.5C 302.167,755.833 301.833,755.167 301.5,754.5C 296.544,753.506 291.544,753.173 286.5,753.5C 286.417,737.535 286.25,721.535 286,705.5C 270.503,704.592 255.003,704.259 239.5,704.5C 238.808,703.975 238.308,703.308 238,702.5C 237.184,693.588 237.35,684.755 238.5,676C 237.809,674.933 237.309,673.766 237,672.5C 232.263,673.469 227.43,673.803 222.5,673.5C 222.359,662.879 222.192,652.212 222,641.5C 217.615,641.406 213.115,641.239 208.5,641C 207.333,640.5 206.5,639.667 206,638.5C 206.431,595.848 206.598,553.182 206.5,510.5C 222.5,510.5 238.5,510.5 254.5,510.5C 253.569,502.23 253.569,493.897 254.5,485.5C 254.101,483.803 253.601,482.137 253,480.5C 248.263,481.469 243.43,481.803 238.5,481.5C 238.803,375.346 238.47,269.18 237.5,163C 237.975,161.237 238.642,159.57 239.5,158C 244.418,157.805 249.251,157.305 254,156.5C 253.053,151.568 253.553,146.735 255.5,142C 259.755,141.204 263.921,141.371 268,142.5C 268.667,141.833 269.333,141.167 270,140.5C 269.174,135.511 269.341,130.511 270.5,125.5C 275.833,125.5 281.167,125.5 286.5,125.5C 286.306,114.737 286.306,104.07 286.5,93.5C 291.511,93.6659 296.511,93.4993 301.5,93C 301.556,89.3062 301.723,85.4728 302,81.5C 302.309,80.2341 302.809,79.0674 303.5,78C 313.459,77.6127 323.459,77.6127 333.5,78C 333.301,72.5637 333.634,67.0637 334.5,61.5C 344.178,61.6986 353.844,62.0319 363.5,62.5C 364.478,62.0233 365.311,61.3567 366,60.5C 365.496,55.4757 365.662,50.4757 366.5,45.5C 376.394,46.2506 386.227,46.584 396,46.5C 397.471,45.6195 398.304,44.2861 398.5,42.5C 397.17,38.1532 397.17,33.8199 398.5,29.5C 462.881,30.2674 527.215,30.434 591.5,30C 592.43,31.1939 593.097,32.5272 593.5,34C 592.231,37.7117 592.231,41.3784 593.5,45C 608.843,46.1706 624.176,46.504 639.5,46C 640.126,46.7504 640.626,47.5838 641,48.5C 641.499,52.8206 641.666,57.1539 641.5,61.5C 651.408,61.5459 661.408,61.7125 671.5,62C 672.126,62.7504 672.626,63.5838 673,64.5C 673.299,68.807 673.466,72.9737 673.5,77C 675.433,77.2511 677.266,77.7511 679,78.5C 687.088,77.3517 695.254,77.1851 703.5,78C 705.35,79.8449 705.683,81.8449 704.5,84C 705.13,87.1292 705.796,90.2959 706.5,93.5C 710.33,93.5086 714.33,93.6753 718.5,94C 719.308,94.3076 719.975,94.8076 720.5,95.5C 721.443,100.1 721.777,104.767 721.5,109.5C 726.233,109.223 730.9,109.557 735.5,110.5C 736.192,111.025 736.692,111.692 737,112.5C 737.499,116.821 737.666,121.154 737.5,125.5C 741.846,125.334 746.179,125.501 750.5,126C 751.308,126.308 751.975,126.808 752.5,127.5C 753.304,137.603 753.638,147.603 753.5,157.5C 757.846,157.334 762.179,157.501 766.5,158C 767.308,158.308 767.975,158.808 768.5,159.5C 769.662,168.702 769.662,178.035 768.5,187.5C 770.461,189.113 772.794,190.113 775.5,190.5C 778.366,189.205 781.199,189.205 784,190.5C 785.75,202.153 785.916,213.82 784.5,225.5C 779.515,225.336 774.682,225.336 770,225.5C 769.753,233.357 769.253,241.19 768.5,249C 768.645,250.226 768.978,251.393 769.5,252.5C 774.132,253.328 778.798,253.828 783.5,254C 784.126,254.75 784.626,255.584 785,256.5C 785.781,281.735 785.614,306.735 784.5,331.5C 784.709,332.086 785.043,332.586 785.5,333C 789.055,334.02 792.555,334.187 796,333.5C 797.699,333.387 798.866,334.053 799.5,335.5 Z"/></g>
<g><path style="opacity:0.995" fill="#000000" d="M 591.5,47.5 C 527.5,47.5 463.5,47.5 399.5,47.5C 399.5,42.1667 399.5,36.8333 399.5,31.5C 463.5,31.5 527.5,31.5 591.5,31.5C 591.5,36.8333 591.5,42.1667 591.5,47.5 Z"/></g>
<g><path style="opacity:0.993" fill="#000000" d="M 399.5,47.5 C 399.5,52.8333 399.5,58.1667 399.5,63.5C 394.167,63.5 388.833,63.5 383.5,63.5C 378.167,63.5 372.833,63.5 367.5,63.5C 367.5,58.1667 367.5,52.8333 367.5,47.5C 378.167,47.5 388.833,47.5 399.5,47.5 Z"/></g>
<g><path style="opacity:1" fill="#664d3c" d="M 399.5,47.5 C 463.5,47.5 527.5,47.5 591.5,47.5C 591.5,52.8333 591.5,58.1667 591.5,63.5C 607.5,63.5 623.5,63.5 639.5,63.5C 639.5,68.8333 639.5,74.1667 639.5,79.5C 650.167,79.5 660.833,79.5 671.5,79.5C 671.5,84.8333 671.5,90.1667 671.5,95.5C 660.833,95.5 650.167,95.5 639.5,95.5C 639.5,100.833 639.5,106.167 639.5,111.5C 639.5,116.833 639.5,122.167 639.5,127.5C 634.167,127.5 628.833,127.5 623.5,127.5C 618.167,127.5 612.833,127.5 607.5,127.5C 607.5,122.167 607.5,116.833 607.5,111.5C 602.167,111.5 596.833,111.5 591.5,111.5C 591.5,106.167 591.5,100.833 591.5,95.5C 580.833,95.5 570.167,95.5 559.5,95.5C 559.5,90.1667 559.5,84.8333 559.5,79.5C 554.167,79.5 548.833,79.5 543.5,79.5C 543.5,90.1667 543.5,100.833 543.5,111.5C 538.167,111.5 532.833,111.5 527.5,111.5C 527.5,106.167 527.5,100.833 527.5,95.5C 522.167,95.5 516.833,95.5 511.5,95.5C 511.5,90.1667 511.5,84.8333 511.5,79.5C 468.833,79.5 426.167,79.5 383.5,79.5C 383.5,74.1667 383.5,68.8333 383.5,63.5C 388.833,63.5 394.167,63.5 399.5,63.5C 399.5,58.1667 399.5,52.8333 399.5,47.5 Z"/></g>
<g><path style="opacity:0.995" fill="#000000" d="M 591.5,47.5 C 607.5,47.5 623.5,47.5 639.5,47.5C 639.5,52.8333 639.5,58.1667 639.5,63.5C 623.5,63.5 607.5,63.5 591.5,63.5C 591.5,58.1667 591.5,52.8333 591.5,47.5 Z"/></g>
<g><path style="opacity:0.992" fill="#000000" d="M 367.5,63.5 C 367.5,68.8333 367.5,74.1667 367.5,79.5C 356.833,79.5 346.167,79.5 335.5,79.5C 335.5,74.1667 335.5,68.8333 335.5,63.5C 346.167,63.5 356.833,63.5 367.5,63.5 Z"/></g>
<g><path style="opacity:1" fill="#342518" d="M 367.5,63.5 C 372.833,63.5 378.167,63.5 383.5,63.5C 383.5,68.8333 383.5,74.1667 383.5,79.5C 426.167,79.5 468.833,79.5 511.5,79.5C 511.5,84.8333 511.5,90.1667 511.5,95.5C 516.833,95.5 522.167,95.5 527.5,95.5C 527.5,100.833 527.5,106.167 527.5,111.5C 532.833,111.5 538.167,111.5 543.5,111.5C 543.5,100.833 543.5,90.1667 543.5,79.5C 548.833,79.5 554.167,79.5 559.5,79.5C 559.5,84.8333 559.5,90.1667 559.5,95.5C 570.167,95.5 580.833,95.5 591.5,95.5C 591.5,100.833 591.5,106.167 591.5,111.5C 596.833,111.5 602.167,111.5 607.5,111.5C 607.5,116.833 607.5,122.167 607.5,127.5C 612.833,127.5 618.167,127.5 623.5,127.5C 623.5,132.833 623.5,138.167 623.5,143.5C 634.167,143.5 644.833,143.5 655.5,143.5C 655.5,148.833 655.5,154.167 655.5,159.5C 660.833,159.5 666.167,159.5 671.5,159.5C 671.5,154.167 671.5,148.833 671.5,143.5C 676.833,143.5 682.167,143.5 687.5,143.5C 687.5,148.833 687.5,154.167 687.5,159.5C 703.5,159.5 719.5,159.5 735.5,159.5C 740.833,159.5 746.167,159.5 751.5,159.5C 751.5,170.167 751.5,180.833 751.5,191.5C 751.5,202.167 751.5,212.833 751.5,223.5C 751.5,234.167 751.5,244.833 751.5,255.5C 756.833,255.5 762.167,255.5 767.5,255.5C 767.5,282.167 767.5,308.833 767.5,335.5C 772.833,335.5 778.167,335.5 783.5,335.5C 783.5,351.5 783.5,367.5 783.5,383.5C 778.167,383.5 772.833,383.5 767.5,383.5C 767.5,372.833 767.5,362.167 767.5,351.5C 762.167,351.5 756.833,351.5 751.5,351.5C 751.5,330.167 751.5,308.833 751.5,287.5C 746.167,287.5 740.833,287.5 735.5,287.5C 735.5,276.833 735.5,266.167 735.5,255.5C 730.167,255.5 724.833,255.5 719.5,255.5C 719.5,250.167 719.5,244.833 719.5,239.5C 708.833,239.5 698.167,239.5 687.5,239.5C 687.5,234.167 687.5,228.833 687.5,223.5C 687.5,218.167 687.5,212.833 687.5,207.5C 698.167,207.5 708.833,207.5 719.5,207.5C 719.5,202.167 719.5,196.833 719.5,191.5C 714.167,191.5 708.833,191.5 703.5,191.5C 703.5,186.167 703.5,180.833 703.5,175.5C 692.833,175.5 682.167,175.5 671.5,175.5C 671.5,180.833 671.5,186.167 671.5,191.5C 666.167,191.5 660.833,191.5 655.5,191.5C 655.5,186.167 655.5,180.833 655.5,175.5C 650.167,175.5 644.833,175.5 639.5,175.5C 639.5,180.833 639.5,186.167 639.5,191.5C 634.167,191.5 628.833,191.5 623.5,191.5C 623.5,186.167 623.5,180.833 623.5,175.5C 612.833,175.5 602.167,175.5 591.5,175.5C 591.5,170.167 591.5,164.833 591.5,159.5C 559.5,159.5 527.5,159.5 495.5,159.5C 495.5,154.167 495.5,148.833 495.5,143.5C 468.833,143.5 442.167,143.5 415.5,143.5C 415.5,148.833 415.5,154.167 415.5,159.5C 394.167,159.5 372.833,159.5 351.5,159.5C 351.5,154.167 351.5,148.833 351.5,143.5C 356.833,143.5 362.167,143.5 367.5,143.5C 367.5,138.167 367.5,132.833 367.5,127.5C 346.167,127.5 324.833,127.5 303.5,127.5C 303.5,116.833 303.5,106.167 303.5,95.5C 314.167,95.5 324.833,95.5 335.5,95.5C 335.5,90.1667 335.5,84.8333 335.5,79.5C 346.167,79.5 356.833,79.5 367.5,79.5C 367.5,74.1667 367.5,68.8333 367.5,63.5 Z"/></g>
<g><path style="opacity:0.995" fill="#000000" d="M 639.5,63.5 C 650.167,63.5 660.833,63.5 671.5,63.5C 671.5,68.8333 671.5,74.1667 671.5,79.5C 660.833,79.5 650.167,79.5 639.5,79.5C 639.5,74.1667 639.5,68.8333 639.5,63.5 Z"/></g>
<g><path style="opacity:0.991" fill="#000000" d="M 335.5,79.5 C 335.5,84.8333 335.5,90.1667 335.5,95.5C 324.833,95.5 314.167,95.5 303.5,95.5C 303.5,90.1667 303.5,84.8333 303.5,79.5C 314.167,79.5 324.833,79.5 335.5,79.5 Z"/></g>
<g><path style="opacity:0.994" fill="#000000" d="M 671.5,79.5 C 682.167,79.5 692.833,79.5 703.5,79.5C 703.5,84.8333 703.5,90.1667 703.5,95.5C 692.833,95.5 682.167,95.5 671.5,95.5C 671.5,90.1667 671.5,84.8333 671.5,79.5 Z"/></g>
<g><path style="opacity:0.993" fill="#000000" d="M 303.5,95.5 C 303.5,106.167 303.5,116.833 303.5,127.5C 298.167,127.5 292.833,127.5 287.5,127.5C 287.5,116.833 287.5,106.167 287.5,95.5C 292.833,95.5 298.167,95.5 303.5,95.5 Z"/></g>
<g><path style="opacity:0.999" fill="#34251a" d="M 671.5,95.5 C 682.167,95.5 692.833,95.5 703.5,95.5C 708.833,95.5 714.167,95.5 719.5,95.5C 719.5,100.833 719.5,106.167 719.5,111.5C 714.167,111.5 708.833,111.5 703.5,111.5C 703.5,116.833 703.5,122.167 703.5,127.5C 692.833,127.5 682.167,127.5 671.5,127.5C 671.5,122.167 671.5,116.833 671.5,111.5C 660.833,111.5 650.167,111.5 639.5,111.5C 639.5,106.167 639.5,100.833 639.5,95.5C 650.167,95.5 660.833,95.5 671.5,95.5 Z"/></g>
<g><path style="opacity:0.999" fill="#614a39" d="M 639.5,111.5 C 650.167,111.5 660.833,111.5 671.5,111.5C 671.5,116.833 671.5,122.167 671.5,127.5C 682.167,127.5 692.833,127.5 703.5,127.5C 703.5,122.167 703.5,116.833 703.5,111.5C 708.833,111.5 714.167,111.5 719.5,111.5C 724.833,111.5 730.167,111.5 735.5,111.5C 735.5,116.833 735.5,122.167 735.5,127.5C 735.5,138.167 735.5,148.833 735.5,159.5C 719.5,159.5 703.5,159.5 687.5,159.5C 687.5,154.167 687.5,148.833 687.5,143.5C 682.167,143.5 676.833,143.5 671.5,143.5C 671.5,148.833 671.5,154.167 671.5,159.5C 666.167,159.5 660.833,159.5 655.5,159.5C 655.5,154.167 655.5,148.833 655.5,143.5C 644.833,143.5 634.167,143.5 623.5,143.5C 623.5,138.167 623.5,132.833 623.5,127.5C 628.833,127.5 634.167,127.5 639.5,127.5C 639.5,122.167 639.5,116.833 639.5,111.5 Z"/></g>
<g><path style="opacity:0.999" fill="#2f2016" d="M 287.5,127.5 C 287.5,138.167 287.5,148.833 287.5,159.5C 298.167,159.5 308.833,159.5 319.5,159.5C 319.5,164.833 319.5,170.167 319.5,175.5C 324.833,175.5 330.167,175.5 335.5,175.5C 335.5,180.833 335.5,186.167 335.5,191.5C 330.167,191.5 324.833,191.5 319.5,191.5C 319.5,196.833 319.5,202.167 319.5,207.5C 330.167,207.5 340.833,207.5 351.5,207.5C 351.5,212.833 351.5,218.167 351.5,223.5C 340.833,223.5 330.167,223.5 319.5,223.5C 319.5,228.833 319.5,234.167 319.5,239.5C 314.167,239.5 308.833,239.5 303.5,239.5C 298.167,239.5 292.833,239.5 287.5,239.5C 287.5,260.833 287.5,282.167 287.5,303.5C 282.167,303.5 276.833,303.5 271.5,303.5C 271.5,314.167 271.5,324.833 271.5,335.5C 266.167,335.5 260.833,335.5 255.5,335.5C 255.5,276.833 255.5,218.167 255.5,159.5C 255.5,154.167 255.5,148.833 255.5,143.5C 260.833,143.5 266.167,143.5 271.5,143.5C 271.5,138.167 271.5,132.833 271.5,127.5C 276.833,127.5 282.167,127.5 287.5,127.5 Z"/></g>
<g><path style="opacity:1" fill="#69503e" d="M 287.5,127.5 C 292.833,127.5 298.167,127.5 303.5,127.5C 324.833,127.5 346.167,127.5 367.5,127.5C 367.5,132.833 367.5,138.167 367.5,143.5C 362.167,143.5 356.833,143.5 351.5,143.5C 351.5,148.833 351.5,154.167 351.5,159.5C 372.833,159.5 394.167,159.5 415.5,159.5C 415.5,154.167 415.5,148.833 415.5,143.5C 442.167,143.5 468.833,143.5 495.5,143.5C 495.5,148.833 495.5,154.167 495.5,159.5C 527.5,159.5 559.5,159.5 591.5,159.5C 591.5,164.833 591.5,170.167 591.5,175.5C 580.833,175.5 570.167,175.5 559.5,175.5C 559.5,180.833 559.5,186.167 559.5,191.5C 543.5,191.5 527.5,191.5 511.5,191.5C 511.5,186.167 511.5,180.833 511.5,175.5C 468.833,175.5 426.167,175.5 383.5,175.5C 383.5,180.833 383.5,186.167 383.5,191.5C 372.833,191.5 362.167,191.5 351.5,191.5C 351.5,196.833 351.5,202.167 351.5,207.5C 340.833,207.5 330.167,207.5 319.5,207.5C 319.5,202.167 319.5,196.833 319.5,191.5C 324.833,191.5 330.167,191.5 335.5,191.5C 335.5,186.167 335.5,180.833 335.5,175.5C 330.167,175.5 324.833,175.5 319.5,175.5C 319.5,170.167 319.5,164.833 319.5,159.5C 308.833,159.5 298.167,159.5 287.5,159.5C 287.5,148.833 287.5,138.167 287.5,127.5 Z"/></g>
<g><path style="opacity:0.99" fill="#000000" d="M 735.5,127.5 C 740.833,127.5 746.167,127.5 751.5,127.5C 751.5,138.167 751.5,148.833 751.5,159.5C 746.167,159.5 740.833,159.5 735.5,159.5C 735.5,148.833 735.5,138.167 735.5,127.5 Z"/></g>
<g><path style="opacity:0.984" fill="#000000" d="M 255.5,159.5 C 255.5,218.167 255.5,276.833 255.5,335.5C 255.5,362.167 255.5,388.833 255.5,415.5C 255.5,436.833 255.5,458.167 255.5,479.5C 250.167,479.5 244.833,479.5 239.5,479.5C 239.5,372.833 239.5,266.167 239.5,159.5C 244.833,159.5 250.167,159.5 255.5,159.5 Z"/></g>
<g><path style="opacity:0.994" fill="#000000" d="M 751.5,159.5 C 756.833,159.5 762.167,159.5 767.5,159.5C 767.5,170.167 767.5,180.833 767.5,191.5C 762.167,191.5 756.833,191.5 751.5,191.5C 751.5,180.833 751.5,170.167 751.5,159.5 Z"/></g>
<g><path style="opacity:1" fill="#2a1a0f" d="M 511.5,191.5 C 468.833,191.5 426.167,191.5 383.5,191.5C 383.5,186.167 383.5,180.833 383.5,175.5C 426.167,175.5 468.833,175.5 511.5,175.5C 511.5,180.833 511.5,186.167 511.5,191.5 Z"/></g>
<g><path style="opacity:1" fill="#2a1a0f" d="M 591.5,175.5 C 591.5,180.833 591.5,186.167 591.5,191.5C 580.833,191.5 570.167,191.5 559.5,191.5C 559.5,186.167 559.5,180.833 559.5,175.5C 570.167,175.5 580.833,175.5 591.5,175.5 Z"/></g>
<g><path style="opacity:1" fill="#69503e" d="M 591.5,175.5 C 602.167,175.5 612.833,175.5 623.5,175.5C 623.5,180.833 623.5,186.167 623.5,191.5C 612.833,191.5 602.167,191.5 591.5,191.5C 591.5,186.167 591.5,180.833 591.5,175.5 Z"/></g>
<g><path style="opacity:1" fill="#69503e" d="M 687.5,207.5 C 671.5,207.5 655.5,207.5 639.5,207.5C 639.5,202.167 639.5,196.833 639.5,191.5C 639.5,186.167 639.5,180.833 639.5,175.5C 644.833,175.5 650.167,175.5 655.5,175.5C 655.5,180.833 655.5,186.167 655.5,191.5C 660.833,191.5 666.167,191.5 671.5,191.5C 671.5,186.167 671.5,180.833 671.5,175.5C 682.167,175.5 692.833,175.5 703.5,175.5C 703.5,180.833 703.5,186.167 703.5,191.5C 708.833,191.5 714.167,191.5 719.5,191.5C 719.5,196.833 719.5,202.167 719.5,207.5C 708.833,207.5 698.167,207.5 687.5,207.5 Z"/></g>
<g><path style="opacity:1" fill="#2a1a0f" d="M 383.5,191.5 C 383.5,196.833 383.5,202.167 383.5,207.5C 372.833,207.5 362.167,207.5 351.5,207.5C 351.5,202.167 351.5,196.833 351.5,191.5C 362.167,191.5 372.833,191.5 383.5,191.5 Z"/></g>
<g><path style="opacity:1" fill="#481d02" d="M 383.5,191.5 C 426.167,191.5 468.833,191.5 511.5,191.5C 511.5,196.833 511.5,202.167 511.5,207.5C 495.5,207.5 479.5,207.5 463.5,207.5C 436.833,207.5 410.167,207.5 383.5,207.5C 383.5,202.167 383.5,196.833 383.5,191.5 Z"/></g>
<g><path style="opacity:1" fill="#2a1a0f" d="M 511.5,191.5 C 527.5,191.5 543.5,191.5 559.5,191.5C 559.5,196.833 559.5,202.167 559.5,207.5C 543.5,207.5 527.5,207.5 511.5,207.5C 511.5,202.167 511.5,196.833 511.5,191.5 Z"/></g>
<g><path style="opacity:1" fill="#481d02" d="M 559.5,191.5 C 570.167,191.5 580.833,191.5 591.5,191.5C 602.167,191.5 612.833,191.5 623.5,191.5C 628.833,191.5 634.167,191.5 639.5,191.5C 639.5,196.833 639.5,202.167 639.5,207.5C 623.5,207.5 607.5,207.5 591.5,207.5C 580.833,207.5 570.167,207.5 559.5,207.5C 559.5,202.167 559.5,196.833 559.5,191.5 Z"/></g>
<g><path style="opacity:1" fill="#69503e" d="M 751.5,191.5 C 756.833,191.5 762.167,191.5 767.5,191.5C 767.5,202.167 767.5,212.833 767.5,223.5C 762.167,223.5 756.833,223.5 751.5,223.5C 751.5,212.833 751.5,202.167 751.5,191.5 Z"/></g>
<g><path style="opacity:0.941" fill="#000000" d="M 767.5,191.5 C 772.833,191.5 778.167,191.5 783.5,191.5C 783.5,202.167 783.5,212.833 783.5,223.5C 778.167,223.5 772.833,223.5 767.5,223.5C 767.5,212.833 767.5,202.167 767.5,191.5 Z"/></g>
<g><path style="opacity:1" fill="#481d02" d="M 351.5,207.5 C 362.167,207.5 372.833,207.5 383.5,207.5C 383.5,212.833 383.5,218.167 383.5,223.5C 372.833,223.5 362.167,223.5 351.5,223.5C 351.5,218.167 351.5,212.833 351.5,207.5 Z"/></g>
<g><path style="opacity:1" fill="#ecbb97" d="M 383.5,207.5 C 410.167,207.5 436.833,207.5 463.5,207.5C 463.5,212.833 463.5,218.167 463.5,223.5C 479.5,223.5 495.5,223.5 511.5,223.5C 527.5,223.5 543.5,223.5 559.5,223.5C 559.5,218.167 559.5,212.833 559.5,207.5C 570.167,207.5 580.833,207.5 591.5,207.5C 591.5,212.833 591.5,218.167 591.5,223.5C 607.5,223.5 623.5,223.5 639.5,223.5C 639.5,228.833 639.5,234.167 639.5,239.5C 655.5,239.5 671.5,239.5 687.5,239.5C 687.5,244.833 687.5,250.167 687.5,255.5C 692.833,255.5 698.167,255.5 703.5,255.5C 703.5,266.167 703.5,276.833 703.5,287.5C 703.5,292.833 703.5,298.167 703.5,303.5C 698.167,303.5 692.833,303.5 687.5,303.5C 687.5,314.167 687.5,324.833 687.5,335.5C 692.833,335.5 698.167,335.5 703.5,335.5C 703.5,340.833 703.5,346.167 703.5,351.5C 698.167,351.5 692.833,351.5 687.5,351.5C 687.5,383.5 687.5,415.5 687.5,447.5C 682.167,447.5 676.833,447.5 671.5,447.5C 671.5,442.167 671.5,436.833 671.5,431.5C 650.167,431.5 628.833,431.5 607.5,431.5C 602.167,431.5 596.833,431.5 591.5,431.5C 580.833,431.5 570.167,431.5 559.5,431.5C 559.5,436.833 559.5,442.167 559.5,447.5C 548.833,447.5 538.167,447.5 527.5,447.5C 527.5,463.5 527.5,479.5 527.5,495.5C 516.833,495.5 506.167,495.5 495.5,495.5C 495.5,484.833 495.5,474.167 495.5,463.5C 490.167,463.5 484.833,463.5 479.5,463.5C 479.5,458.167 479.5,452.833 479.5,447.5C 474.167,447.5 468.833,447.5 463.5,447.5C 463.5,442.167 463.5,436.833 463.5,431.5C 426.167,431.5 388.833,431.5 351.5,431.5C 351.5,436.833 351.5,442.167 351.5,447.5C 340.833,447.5 330.167,447.5 319.5,447.5C 319.5,431.5 319.5,415.5 319.5,399.5C 324.833,399.5 330.167,399.5 335.5,399.5C 335.5,394.167 335.5,388.833 335.5,383.5C 330.167,383.5 324.833,383.5 319.5,383.5C 319.5,335.5 319.5,287.5 319.5,239.5C 330.167,239.5 340.833,239.5 351.5,239.5C 351.5,234.167 351.5,228.833 351.5,223.5C 362.167,223.5 372.833,223.5 383.5,223.5C 383.5,218.167 383.5,212.833 383.5,207.5 Z"/></g>
<g><path style="opacity:1" fill="#b7825d" d="M 463.5,207.5 C 479.5,207.5 495.5,207.5 511.5,207.5C 511.5,212.833 511.5,218.167 511.5,223.5C 495.5,223.5 479.5,223.5 463.5,223.5C 463.5,218.167 463.5,212.833 463.5,207.5 Z"/></g>
<g><path style="opacity:1" fill="#501e00" d="M 511.5,207.5 C 527.5,207.5 543.5,207.5 559.5,207.5C 559.5,212.833 559.5,218.167 559.5,223.5C 543.5,223.5 527.5,223.5 511.5,223.5C 511.5,218.167 511.5,212.833 511.5,207.5 Z"/></g>
<g><path style="opacity:1" fill="#501e00" d="M 591.5,207.5 C 607.5,207.5 623.5,207.5 639.5,207.5C 639.5,212.833 639.5,218.167 639.5,223.5C 623.5,223.5 607.5,223.5 591.5,223.5C 591.5,218.167 591.5,212.833 591.5,207.5 Z"/></g>
<g><path style="opacity:1" fill="#2a1a0f" d="M 639.5,207.5 C 655.5,207.5 671.5,207.5 687.5,207.5C 687.5,212.833 687.5,218.167 687.5,223.5C 671.5,223.5 655.5,223.5 639.5,223.5C 639.5,218.167 639.5,212.833 639.5,207.5 Z"/></g>
<g><path style="opacity:1" fill="#501e00" d="M 351.5,223.5 C 351.5,228.833 351.5,234.167 351.5,239.5C 340.833,239.5 330.167,239.5 319.5,239.5C 319.5,234.167 319.5,228.833 319.5,223.5C 330.167,223.5 340.833,223.5 351.5,223.5 Z"/></g>
<g><path style="opacity:1" fill="#501e00" d="M 639.5,223.5 C 655.5,223.5 671.5,223.5 687.5,223.5C 687.5,228.833 687.5,234.167 687.5,239.5C 671.5,239.5 655.5,239.5 639.5,239.5C 639.5,234.167 639.5,228.833 639.5,223.5 Z"/></g>
<g><path style="opacity:0.996" fill="#000000" d="M 751.5,223.5 C 756.833,223.5 762.167,223.5 767.5,223.5C 767.5,234.167 767.5,244.833 767.5,255.5C 762.167,255.5 756.833,255.5 751.5,255.5C 751.5,244.833 751.5,234.167 751.5,223.5 Z"/></g>
<g><path style="opacity:1" fill="#2a1a0f" d="M 303.5,239.5 C 303.5,287.5 303.5,335.5 303.5,383.5C 298.167,383.5 292.833,383.5 287.5,383.5C 287.5,356.833 287.5,330.167 287.5,303.5C 287.5,282.167 287.5,260.833 287.5,239.5C 292.833,239.5 298.167,239.5 303.5,239.5 Z"/></g>
<g><path style="opacity:1" fill="#501e00" d="M 303.5,239.5 C 308.833,239.5 314.167,239.5 319.5,239.5C 319.5,287.5 319.5,335.5 319.5,383.5C 314.167,383.5 308.833,383.5 303.5,383.5C 303.5,335.5 303.5,287.5 303.5,239.5 Z"/></g>
<g><path style="opacity:1" fill="#3d1c07" d="M 687.5,239.5 C 698.167,239.5 708.833,239.5 719.5,239.5C 719.5,244.833 719.5,250.167 719.5,255.5C 714.167,255.5 708.833,255.5 703.5,255.5C 698.167,255.5 692.833,255.5 687.5,255.5C 687.5,250.167 687.5,244.833 687.5,239.5 Z"/></g>
<g><path style="opacity:1" fill="#501e00" d="M 703.5,255.5 C 708.833,255.5 714.167,255.5 719.5,255.5C 719.5,266.167 719.5,276.833 719.5,287.5C 714.167,287.5 708.833,287.5 703.5,287.5C 703.5,276.833 703.5,266.167 703.5,255.5 Z"/></g>
<g><path style="opacity:1" fill="#2a1a0f" d="M 719.5,255.5 C 724.833,255.5 730.167,255.5 735.5,255.5C 735.5,266.167 735.5,276.833 735.5,287.5C 730.167,287.5 724.833,287.5 719.5,287.5C 719.5,276.833 719.5,266.167 719.5,255.5 Z"/></g>
<g><path style="opacity:0.994" fill="#000000" d="M 767.5,255.5 C 772.833,255.5 778.167,255.5 783.5,255.5C 783.5,282.167 783.5,308.833 783.5,335.5C 778.167,335.5 772.833,335.5 767.5,335.5C 767.5,308.833 767.5,282.167 767.5,255.5 Z"/></g>
<g><path style="opacity:1" fill="#b7825d" d="M 703.5,287.5 C 708.833,287.5 714.167,287.5 719.5,287.5C 719.5,330.167 719.5,372.833 719.5,415.5C 724.833,415.5 730.167,415.5 735.5,415.5C 735.5,463.5 735.5,511.5 735.5,559.5C 735.5,564.833 735.5,570.167 735.5,575.5C 730.167,575.5 724.833,575.5 719.5,575.5C 719.5,596.833 719.5,618.167 719.5,639.5C 714.167,639.5 708.833,639.5 703.5,639.5C 703.5,650.167 703.5,660.833 703.5,671.5C 698.167,671.5 692.833,671.5 687.5,671.5C 687.5,698.167 687.5,724.833 687.5,751.5C 682.167,751.5 676.833,751.5 671.5,751.5C 671.5,756.833 671.5,762.167 671.5,767.5C 666.167,767.5 660.833,767.5 655.5,767.5C 655.5,772.833 655.5,778.167 655.5,783.5C 650.167,783.5 644.833,783.5 639.5,783.5C 639.5,794.167 639.5,804.833 639.5,815.5C 634.167,815.5 628.833,815.5 623.5,815.5C 623.5,836.833 623.5,858.167 623.5,879.5C 618.167,879.5 612.833,879.5 607.5,879.5C 607.5,884.833 607.5,890.167 607.5,895.5C 602.167,895.5 596.833,895.5 591.5,895.5C 591.5,900.833 591.5,906.167 591.5,911.5C 586.167,911.5 580.833,911.5 575.5,911.5C 538.167,911.5 500.833,911.5 463.5,911.5C 452.833,911.5 442.167,911.5 431.5,911.5C 431.5,906.167 431.5,900.833 431.5,895.5C 420.833,895.5 410.167,895.5 399.5,895.5C 399.5,884.833 399.5,874.167 399.5,863.5C 394.167,863.5 388.833,863.5 383.5,863.5C 383.5,847.5 383.5,831.5 383.5,815.5C 372.833,815.5 362.167,815.5 351.5,815.5C 351.5,804.833 351.5,794.167 351.5,783.5C 346.167,783.5 340.833,783.5 335.5,783.5C 335.5,778.167 335.5,772.833 335.5,767.5C 330.167,767.5 324.833,767.5 319.5,767.5C 319.5,762.167 319.5,756.833 319.5,751.5C 319.5,746.167 319.5,740.833 319.5,735.5C 324.833,735.5 330.167,735.5 335.5,735.5C 335.5,714.167 335.5,692.833 335.5,671.5C 340.833,671.5 346.167,671.5 351.5,671.5C 351.5,676.833 351.5,682.167 351.5,687.5C 356.833,687.5 362.167,687.5 367.5,687.5C 367.5,692.833 367.5,698.167 367.5,703.5C 383.5,703.5 399.5,703.5 415.5,703.5C 415.5,708.833 415.5,714.167 415.5,719.5C 420.833,719.5 426.167,719.5 431.5,719.5C 431.5,724.833 431.5,730.167 431.5,735.5C 420.833,735.5 410.167,735.5 399.5,735.5C 399.5,746.167 399.5,756.833 399.5,767.5C 410.167,767.5 420.833,767.5 431.5,767.5C 436.833,767.5 442.167,767.5 447.5,767.5C 447.5,772.833 447.5,778.167 447.5,783.5C 458.167,783.5 468.833,783.5 479.5,783.5C 479.5,788.833 479.5,794.167 479.5,799.5C 479.5,810.167 479.5,820.833 479.5,831.5C 506.167,831.5 532.833,831.5 559.5,831.5C 559.5,826.167 559.5,820.833 559.5,815.5C 564.833,815.5 570.167,815.5 575.5,815.5C 575.5,810.167 575.5,804.833 575.5,799.5C 570.167,799.5 564.833,799.5 559.5,799.5C 559.5,794.167 559.5,788.833 559.5,783.5C 575.5,783.5 591.5,783.5 607.5,783.5C 607.5,778.167 607.5,772.833 607.5,767.5C 612.833,767.5 618.167,767.5 623.5,767.5C 623.5,756.833 623.5,746.167 623.5,735.5C 618.167,735.5 612.833,735.5 607.5,735.5C 607.5,740.833 607.5,746.167 607.5,751.5C 602.167,751.5 596.833,751.5 591.5,751.5C 580.833,751.5 570.167,751.5 559.5,751.5C 532.833,751.5 506.167,751.5 479.5,751.5C 479.5,746.167 479.5,740.833 479.5,735.5C 516.833,735.5 554.167,735.5 591.5,735.5C 591.5,730.167 591.5,724.833 591.5,719.5C 607.5,719.5 623.5,719.5 639.5,719.5C 639.5,714.167 639.5,708.833 639.5,703.5C 644.833,703.5 650.167,703.5 655.5,703.5C 655.5,692.833 655.5,682.167 655.5,671.5C 660.833,671.5 666.167,671.5 671.5,671.5C 671.5,660.833 671.5,650.167 671.5,639.5C 676.833,639.5 682.167,639.5 687.5,639.5C 687.5,628.833 687.5,618.167 687.5,607.5C 692.833,607.5 698.167,607.5 703.5,607.5C 703.5,596.833 703.5,586.167 703.5,575.5C 666.167,575.5 628.833,575.5 591.5,575.5C 591.5,596.833 591.5,618.167 591.5,639.5C 586.167,639.5 580.833,639.5 575.5,639.5C 575.5,628.833 575.5,618.167 575.5,607.5C 575.5,586.167 575.5,564.833 575.5,543.5C 580.833,543.5 586.167,543.5 591.5,543.5C 591.5,548.833 591.5,554.167 591.5,559.5C 618.167,559.5 644.833,559.5 671.5,559.5C 671.5,554.167 671.5,548.833 671.5,543.5C 682.167,543.5 692.833,543.5 703.5,543.5C 703.5,532.833 703.5,522.167 703.5,511.5C 708.833,511.5 714.167,511.5 719.5,511.5C 719.5,506.167 719.5,500.833 719.5,495.5C 719.5,484.833 719.5,474.167 719.5,463.5C 708.833,463.5 698.167,463.5 687.5,463.5C 687.5,458.167 687.5,452.833 687.5,447.5C 687.5,415.5 687.5,383.5 687.5,351.5C 692.833,351.5 698.167,351.5 703.5,351.5C 703.5,346.167 703.5,340.833 703.5,335.5C 698.167,335.5 692.833,335.5 687.5,335.5C 687.5,324.833 687.5,314.167 687.5,303.5C 692.833,303.5 698.167,303.5 703.5,303.5C 703.5,298.167 703.5,292.833 703.5,287.5 Z"/></g>
<g><path style="opacity:1" fill="#501e00" d="M 719.5,287.5 C 724.833,287.5 730.167,287.5 735.5,287.5C 735.5,330.167 735.5,372.833 735.5,415.5C 730.167,415.5 724.833,415.5 719.5,415.5C 719.5,372.833 719.5,330.167 719.5,287.5 Z"/></g>
<g><path style="opacity:1" fill="#2d1a0f" d="M 735.5,287.5 C 740.833,287.5 746.167,287.5 751.5,287.5C 751.5,308.833 751.5,330.167 751.5,351.5C 751.5,367.5 751.5,383.5 751.5,399.5C 756.833,399.5 762.167,399.5 767.5,399.5C 767.5,436.833 767.5,474.167 767.5,511.5C 772.833,511.5 778.167,511.5 783.5,511.5C 783.5,516.833 783.5,522.167 783.5,527.5C 778.167,527.5 772.833,527.5 767.5,527.5C 767.5,538.167 767.5,548.833 767.5,559.5C 767.5,564.833 767.5,570.167 767.5,575.5C 762.167,575.5 756.833,575.5 751.5,575.5C 751.5,570.167 751.5,564.833 751.5,559.5C 751.5,511.5 751.5,463.5 751.5,415.5C 746.167,415.5 740.833,415.5 735.5,415.5C 735.5,372.833 735.5,330.167 735.5,287.5 Z"/></g>
<g><path style="opacity:1" fill="#69503e" d="M 287.5,303.5 C 287.5,330.167 287.5,356.833 287.5,383.5C 282.167,383.5 276.833,383.5 271.5,383.5C 271.5,394.167 271.5,404.833 271.5,415.5C 266.167,415.5 260.833,415.5 255.5,415.5C 255.5,388.833 255.5,362.167 255.5,335.5C 260.833,335.5 266.167,335.5 271.5,335.5C 271.5,324.833 271.5,314.167 271.5,303.5C 276.833,303.5 282.167,303.5 287.5,303.5 Z"/></g>
<g><path style="opacity:0.948" fill="#000000" d="M 783.5,335.5 C 788.833,335.5 794.167,335.5 799.5,335.5C 799.5,351.5 799.5,367.5 799.5,383.5C 794.167,383.5 788.833,383.5 783.5,383.5C 783.5,367.5 783.5,351.5 783.5,335.5 Z"/></g>
<g><path style="opacity:0.114" fill="#fefffe" d="M 799.5,335.5 C 800.847,339.422 801.514,343.589 801.5,348C 801.285,359.47 801.118,370.97 801,382.5C 800.626,383.416 800.126,384.25 799.5,385C 794.885,385.239 790.385,385.406 786,385.5C 785.739,426.256 785.239,466.922 784.5,507.5C 784.833,508.167 785.167,508.833 785.5,509.5C 796.061,510.177 806.561,510.844 817,511.5C 816.669,549.527 816.502,587.527 816.5,625.5C 812.973,625.496 809.473,625.163 806,624.5C 803.966,624.354 802.299,625.02 801,626.5C 800.43,640.781 800.43,655.114 801,669.5C 800.691,670.766 800.191,671.933 799.5,673C 795.442,673.767 791.442,673.6 787.5,672.5C 786.167,673.167 785.167,674.167 784.5,675.5C 785.14,680.117 785.473,684.783 785.5,689.5C 785.614,694.609 785.114,699.609 784,704.5C 774.416,705.057 764.749,705.057 755,704.5C 748.757,704.524 742.757,705.19 737,706.5C 737.133,747.754 737.133,789.087 737,830.5C 736.626,831.416 736.126,832.25 735.5,833C 732.145,833.546 728.812,833.379 725.5,832.5C 723.626,832.39 722.126,833.056 721,834.5C 720.721,848.124 720.721,861.791 721,875.5C 725.531,877.247 730.365,878.08 735.5,878C 736.126,878.75 736.626,879.584 737,880.5C 737.207,890.086 737.373,899.586 737.5,909C 739.137,909.601 740.803,910.101 742.5,910.5C 777.477,909.347 812.477,909.18 847.5,910C 848.126,910.75 848.626,911.584 849,912.5C 849.499,916.821 849.666,921.154 849.5,925.5C 859.172,925.334 868.839,925.5 878.5,926C 879.667,926.5 880.5,927.333 881,928.5C 881.499,932.821 881.666,937.154 881.5,941.5C 891.506,941.334 901.506,941.5 911.5,942C 912.126,942.75 912.626,943.584 913,944.5C 913.499,948.821 913.666,953.154 913.5,957.5C 928.504,957.333 943.504,957.5 958.5,958C 960.368,958.899 961.368,960.399 961.5,962.5C 960.504,965.797 960.337,969.131 961,972.5C 961.75,973.126 962.584,973.626 963.5,974C 972.694,973.851 982.027,973.851 991.5,974C 992.43,975.194 993.097,976.527 993.5,978C 992.693,981.087 992.36,984.087 992.5,987C 993.167,988 993.833,989 994.5,990C 1004.16,990.5 1013.83,990.666 1023.5,990.5C 1023.5,990.833 1023.5,991.167 1023.5,991.5C 1012.83,991.5 1002.17,991.5 991.5,991.5C 991.5,986.167 991.5,980.833 991.5,975.5C 980.833,975.5 970.167,975.5 959.5,975.5C 959.5,970.167 959.5,964.833 959.5,959.5C 943.5,959.5 927.5,959.5 911.5,959.5C 911.5,954.167 911.5,948.833 911.5,943.5C 900.833,943.5 890.167,943.5 879.5,943.5C 879.5,938.167 879.5,932.833 879.5,927.5C 868.833,927.5 858.167,927.5 847.5,927.5C 847.5,922.167 847.5,916.833 847.5,911.5C 810.167,911.5 772.833,911.5 735.5,911.5C 735.5,900.833 735.5,890.167 735.5,879.5C 730.167,879.5 724.833,879.5 719.5,879.5C 719.5,863.5 719.5,847.5 719.5,831.5C 724.833,831.5 730.167,831.5 735.5,831.5C 735.5,788.833 735.5,746.167 735.5,703.5C 751.5,703.5 767.5,703.5 783.5,703.5C 783.5,692.833 783.5,682.167 783.5,671.5C 788.833,671.5 794.167,671.5 799.5,671.5C 799.5,655.5 799.5,639.5 799.5,623.5C 804.833,623.5 810.167,623.5 815.5,623.5C 815.5,586.167 815.5,548.833 815.5,511.5C 804.833,511.5 794.167,511.5 783.5,511.5C 783.5,468.833 783.5,426.167 783.5,383.5C 788.833,383.5 794.167,383.5 799.5,383.5C 799.5,367.5 799.5,351.5 799.5,335.5 Z"/></g>
<g><path style="opacity:1" fill="#69503e" d="M 751.5,351.5 C 756.833,351.5 762.167,351.5 767.5,351.5C 767.5,362.167 767.5,372.833 767.5,383.5C 767.5,388.833 767.5,394.167 767.5,399.5C 762.167,399.5 756.833,399.5 751.5,399.5C 751.5,383.5 751.5,367.5 751.5,351.5 Z"/></g>
<g><path style="opacity:1" fill="#2a1a0f" d="M 287.5,383.5 C 287.5,394.167 287.5,404.833 287.5,415.5C 282.167,415.5 276.833,415.5 271.5,415.5C 271.5,404.833 271.5,394.167 271.5,383.5C 276.833,383.5 282.167,383.5 287.5,383.5 Z"/></g>
<g><path style="opacity:1" fill="#501e00" d="M 287.5,383.5 C 292.833,383.5 298.167,383.5 303.5,383.5C 303.5,394.167 303.5,404.833 303.5,415.5C 298.167,415.5 292.833,415.5 287.5,415.5C 287.5,404.833 287.5,394.167 287.5,383.5 Z"/></g>
<g><path style="opacity:1" fill="#b7825d" d="M 303.5,383.5 C 308.833,383.5 314.167,383.5 319.5,383.5C 324.833,383.5 330.167,383.5 335.5,383.5C 335.5,388.833 335.5,394.167 335.5,399.5C 330.167,399.5 324.833,399.5 319.5,399.5C 319.5,415.5 319.5,431.5 319.5,447.5C 319.5,452.833 319.5,458.167 319.5,463.5C 314.167,463.5 308.833,463.5 303.5,463.5C 303.5,468.833 303.5,474.167 303.5,479.5C 298.167,479.5 292.833,479.5 287.5,479.5C 287.5,458.167 287.5,436.833 287.5,415.5C 292.833,415.5 298.167,415.5 303.5,415.5C 303.5,404.833 303.5,394.167 303.5,383.5 Z"/></g>
<g><path style="opacity:0.995" fill="#000000" d="M 767.5,383.5 C 772.833,383.5 778.167,383.5 783.5,383.5C 783.5,426.167 783.5,468.833 783.5,511.5C 778.167,511.5 772.833,511.5 767.5,511.5C 767.5,474.167 767.5,436.833 767.5,399.5C 767.5,394.167 767.5,388.833 767.5,383.5 Z"/></g>
<g><path style="opacity:1" fill="#2a1a0f" d="M 255.5,415.5 C 260.833,415.5 266.167,415.5 271.5,415.5C 271.5,436.833 271.5,458.167 271.5,479.5C 266.167,479.5 260.833,479.5 255.5,479.5C 255.5,458.167 255.5,436.833 255.5,415.5 Z"/></g>
<g><path style="opacity:1" fill="#501e00" d="M 271.5,415.5 C 276.833,415.5 282.167,415.5 287.5,415.5C 287.5,436.833 287.5,458.167 287.5,479.5C 287.5,484.833 287.5,490.167 287.5,495.5C 287.5,511.5 287.5,527.5 287.5,543.5C 282.167,543.5 276.833,543.5 271.5,543.5C 271.5,532.833 271.5,522.167 271.5,511.5C 271.5,500.833 271.5,490.167 271.5,479.5C 271.5,458.167 271.5,436.833 271.5,415.5 Z"/></g>
<g><path style="opacity:1" fill="#501e00" d="M 735.5,415.5 C 740.833,415.5 746.167,415.5 751.5,415.5C 751.5,463.5 751.5,511.5 751.5,559.5C 746.167,559.5 740.833,559.5 735.5,559.5C 735.5,511.5 735.5,463.5 735.5,415.5 Z"/></g>
<g><path style="opacity:1" fill="#68381e" d="M 479.5,463.5 C 479.5,468.833 479.5,474.167 479.5,479.5C 474.167,479.5 468.833,479.5 463.5,479.5C 463.5,474.167 463.5,468.833 463.5,463.5C 447.5,463.5 431.5,463.5 415.5,463.5C 399.5,463.5 383.5,463.5 367.5,463.5C 367.5,468.833 367.5,474.167 367.5,479.5C 362.167,479.5 356.833,479.5 351.5,479.5C 340.833,479.5 330.167,479.5 319.5,479.5C 319.5,474.167 319.5,468.833 319.5,463.5C 319.5,458.167 319.5,452.833 319.5,447.5C 330.167,447.5 340.833,447.5 351.5,447.5C 351.5,442.167 351.5,436.833 351.5,431.5C 388.833,431.5 426.167,431.5 463.5,431.5C 463.5,436.833 463.5,442.167 463.5,447.5C 468.833,447.5 474.167,447.5 479.5,447.5C 479.5,452.833 479.5,458.167 479.5,463.5 Z"/></g>
<g><path style="opacity:1" fill="#b7825d" d="M 591.5,431.5 C 591.5,436.833 591.5,442.167 591.5,447.5C 580.833,447.5 570.167,447.5 559.5,447.5C 559.5,442.167 559.5,436.833 559.5,431.5C 570.167,431.5 580.833,431.5 591.5,431.5 Z"/></g>
<g><path style="opacity:1" fill="#68381e" d="M 591.5,431.5 C 596.833,431.5 602.167,431.5 607.5,431.5C 607.5,436.833 607.5,442.167 607.5,447.5C 628.833,447.5 650.167,447.5 671.5,447.5C 676.833,447.5 682.167,447.5 687.5,447.5C 687.5,452.833 687.5,458.167 687.5,463.5C 698.167,463.5 708.833,463.5 719.5,463.5C 719.5,474.167 719.5,484.833 719.5,495.5C 714.167,495.5 708.833,495.5 703.5,495.5C 703.5,490.167 703.5,484.833 703.5,479.5C 687.5,479.5 671.5,479.5 655.5,479.5C 628.833,479.5 602.167,479.5 575.5,479.5C 564.833,479.5 554.167,479.5 543.5,479.5C 543.5,474.167 543.5,468.833 543.5,463.5C 548.833,463.5 554.167,463.5 559.5,463.5C 559.5,458.167 559.5,452.833 559.5,447.5C 570.167,447.5 580.833,447.5 591.5,447.5C 591.5,442.167 591.5,436.833 591.5,431.5 Z"/></g>
<g><path style="opacity:1" fill="#b7825d" d="M 607.5,431.5 C 628.833,431.5 650.167,431.5 671.5,431.5C 671.5,436.833 671.5,442.167 671.5,447.5C 650.167,447.5 628.833,447.5 607.5,447.5C 607.5,442.167 607.5,436.833 607.5,431.5 Z"/></g>
<g><path style="opacity:1" fill="#b7825d" d="M 559.5,447.5 C 559.5,452.833 559.5,458.167 559.5,463.5C 554.167,463.5 548.833,463.5 543.5,463.5C 543.5,468.833 543.5,474.167 543.5,479.5C 543.5,484.833 543.5,490.167 543.5,495.5C 538.167,495.5 532.833,495.5 527.5,495.5C 527.5,479.5 527.5,463.5 527.5,447.5C 538.167,447.5 548.833,447.5 559.5,447.5 Z"/></g>
<g><path style="opacity:1" fill="#7b4929" d="M 319.5,463.5 C 319.5,468.833 319.5,474.167 319.5,479.5C 330.167,479.5 340.833,479.5 351.5,479.5C 351.5,484.833 351.5,490.167 351.5,495.5C 346.167,495.5 340.833,495.5 335.5,495.5C 335.5,506.167 335.5,516.833 335.5,527.5C 324.833,527.5 314.167,527.5 303.5,527.5C 303.5,516.833 303.5,506.167 303.5,495.5C 298.167,495.5 292.833,495.5 287.5,495.5C 287.5,490.167 287.5,484.833 287.5,479.5C 292.833,479.5 298.167,479.5 303.5,479.5C 303.5,474.167 303.5,468.833 303.5,463.5C 308.833,463.5 314.167,463.5 319.5,463.5 Z"/></g>
<g><path style="opacity:1" fill="#8e5534" d="M 415.5,463.5 C 415.5,468.833 415.5,474.167 415.5,479.5C 426.167,479.5 436.833,479.5 447.5,479.5C 447.5,484.833 447.5,490.167 447.5,495.5C 452.833,495.5 458.167,495.5 463.5,495.5C 463.5,506.167 463.5,516.833 463.5,527.5C 458.167,527.5 452.833,527.5 447.5,527.5C 447.5,532.833 447.5,538.167 447.5,543.5C 415.5,543.5 383.5,543.5 351.5,543.5C 351.5,538.167 351.5,532.833 351.5,527.5C 351.5,522.167 351.5,516.833 351.5,511.5C 362.167,511.5 372.833,511.5 383.5,511.5C 383.5,516.833 383.5,522.167 383.5,527.5C 394.167,527.5 404.833,527.5 415.5,527.5C 415.5,516.833 415.5,506.167 415.5,495.5C 394.167,495.5 372.833,495.5 351.5,495.5C 351.5,490.167 351.5,484.833 351.5,479.5C 356.833,479.5 362.167,479.5 367.5,479.5C 367.5,474.167 367.5,468.833 367.5,463.5C 383.5,463.5 399.5,463.5 415.5,463.5 Z"/></g>
<g><path style="opacity:1" fill="#7c4929" d="M 415.5,463.5 C 431.5,463.5 447.5,463.5 463.5,463.5C 463.5,468.833 463.5,474.167 463.5,479.5C 468.833,479.5 474.167,479.5 479.5,479.5C 479.5,490.167 479.5,500.833 479.5,511.5C 484.833,511.5 490.167,511.5 495.5,511.5C 495.5,516.833 495.5,522.167 495.5,527.5C 484.833,527.5 474.167,527.5 463.5,527.5C 463.5,516.833 463.5,506.167 463.5,495.5C 458.167,495.5 452.833,495.5 447.5,495.5C 447.5,490.167 447.5,484.833 447.5,479.5C 436.833,479.5 426.167,479.5 415.5,479.5C 415.5,474.167 415.5,468.833 415.5,463.5 Z"/></g>
<g><path style="opacity:1" fill="#b7825d" d="M 479.5,463.5 C 484.833,463.5 490.167,463.5 495.5,463.5C 495.5,474.167 495.5,484.833 495.5,495.5C 495.5,500.833 495.5,506.167 495.5,511.5C 490.167,511.5 484.833,511.5 479.5,511.5C 479.5,500.833 479.5,490.167 479.5,479.5C 479.5,474.167 479.5,468.833 479.5,463.5 Z"/></g>
<g><path style="opacity:0.995" fill="#000000" d="M 255.5,479.5 C 260.833,479.5 266.167,479.5 271.5,479.5C 271.5,490.167 271.5,500.833 271.5,511.5C 266.167,511.5 260.833,511.5 255.5,511.5C 255.5,500.833 255.5,490.167 255.5,479.5 Z"/></g>
<g><path style="opacity:1" fill="#7b4929" d="M 543.5,479.5 C 554.167,479.5 564.833,479.5 575.5,479.5C 575.5,484.833 575.5,490.167 575.5,495.5C 570.167,495.5 564.833,495.5 559.5,495.5C 559.5,506.167 559.5,516.833 559.5,527.5C 554.167,527.5 548.833,527.5 543.5,527.5C 543.5,516.833 543.5,506.167 543.5,495.5C 543.5,490.167 543.5,484.833 543.5,479.5 Z"/></g>
<g><path style="opacity:1" fill="#894d2c" d="M 575.5,479.5 C 602.167,479.5 628.833,479.5 655.5,479.5C 655.5,484.833 655.5,490.167 655.5,495.5C 628.833,495.5 602.167,495.5 575.5,495.5C 575.5,490.167 575.5,484.833 575.5,479.5 Z"/></g>
<g><path style="opacity:1" fill="#7b4929" d="M 655.5,479.5 C 671.5,479.5 687.5,479.5 703.5,479.5C 703.5,484.833 703.5,490.167 703.5,495.5C 708.833,495.5 714.167,495.5 719.5,495.5C 719.5,500.833 719.5,506.167 719.5,511.5C 714.167,511.5 708.833,511.5 703.5,511.5C 703.5,522.167 703.5,532.833 703.5,543.5C 692.833,543.5 682.167,543.5 671.5,543.5C 671.5,538.167 671.5,532.833 671.5,527.5C 676.833,527.5 682.167,527.5 687.5,527.5C 687.5,522.167 687.5,516.833 687.5,511.5C 682.167,511.5 676.833,511.5 671.5,511.5C 671.5,506.167 671.5,500.833 671.5,495.5C 666.167,495.5 660.833,495.5 655.5,495.5C 655.5,490.167 655.5,484.833 655.5,479.5 Z"/></g>
<g><path style="opacity:1" fill="#b7825d" d="M 287.5,495.5 C 292.833,495.5 298.167,495.5 303.5,495.5C 303.5,506.167 303.5,516.833 303.5,527.5C 314.167,527.5 324.833,527.5 335.5,527.5C 340.833,527.5 346.167,527.5 351.5,527.5C 351.5,532.833 351.5,538.167 351.5,543.5C 383.5,543.5 415.5,543.5 447.5,543.5C 447.5,538.167 447.5,532.833 447.5,527.5C 452.833,527.5 458.167,527.5 463.5,527.5C 474.167,527.5 484.833,527.5 495.5,527.5C 495.5,532.833 495.5,538.167 495.5,543.5C 490.167,543.5 484.833,543.5 479.5,543.5C 479.5,564.833 479.5,586.167 479.5,607.5C 474.167,607.5 468.833,607.5 463.5,607.5C 463.5,612.833 463.5,618.167 463.5,623.5C 458.167,623.5 452.833,623.5 447.5,623.5C 447.5,602.167 447.5,580.833 447.5,559.5C 404.833,559.5 362.167,559.5 319.5,559.5C 319.5,564.833 319.5,570.167 319.5,575.5C 314.167,575.5 308.833,575.5 303.5,575.5C 303.5,580.833 303.5,586.167 303.5,591.5C 298.167,591.5 292.833,591.5 287.5,591.5C 287.5,575.5 287.5,559.5 287.5,543.5C 287.5,527.5 287.5,511.5 287.5,495.5 Z"/></g>
<g><path style="opacity:1" fill="#2a1a0f" d="M 351.5,495.5 C 372.833,495.5 394.167,495.5 415.5,495.5C 415.5,506.167 415.5,516.833 415.5,527.5C 404.833,527.5 394.167,527.5 383.5,527.5C 383.5,522.167 383.5,516.833 383.5,511.5C 372.833,511.5 362.167,511.5 351.5,511.5C 351.5,516.833 351.5,522.167 351.5,527.5C 346.167,527.5 340.833,527.5 335.5,527.5C 335.5,516.833 335.5,506.167 335.5,495.5C 340.833,495.5 346.167,495.5 351.5,495.5 Z"/></g>
<g><path style="opacity:1" fill="#edc2a3" d="M 495.5,495.5 C 506.167,495.5 516.833,495.5 527.5,495.5C 527.5,522.167 527.5,548.833 527.5,575.5C 532.833,575.5 538.167,575.5 543.5,575.5C 543.5,602.167 543.5,628.833 543.5,655.5C 522.167,655.5 500.833,655.5 479.5,655.5C 479.5,639.5 479.5,623.5 479.5,607.5C 484.833,607.5 490.167,607.5 495.5,607.5C 495.5,586.167 495.5,564.833 495.5,543.5C 495.5,538.167 495.5,532.833 495.5,527.5C 495.5,522.167 495.5,516.833 495.5,511.5C 495.5,506.167 495.5,500.833 495.5,495.5 Z"/></g>
<g><path style="opacity:1" fill="#894d2c" d="M 527.5,495.5 C 532.833,495.5 538.167,495.5 543.5,495.5C 543.5,506.167 543.5,516.833 543.5,527.5C 548.833,527.5 554.167,527.5 559.5,527.5C 559.5,554.167 559.5,580.833 559.5,607.5C 564.833,607.5 570.167,607.5 575.5,607.5C 575.5,618.167 575.5,628.833 575.5,639.5C 580.833,639.5 586.167,639.5 591.5,639.5C 591.5,644.833 591.5,650.167 591.5,655.5C 596.833,655.5 602.167,655.5 607.5,655.5C 607.5,660.833 607.5,666.167 607.5,671.5C 602.167,671.5 596.833,671.5 591.5,671.5C 591.5,676.833 591.5,682.167 591.5,687.5C 586.167,687.5 580.833,687.5 575.5,687.5C 548.833,687.5 522.167,687.5 495.5,687.5C 479.5,687.5 463.5,687.5 447.5,687.5C 447.5,682.167 447.5,676.833 447.5,671.5C 447.5,655.5 447.5,639.5 447.5,623.5C 452.833,623.5 458.167,623.5 463.5,623.5C 463.5,618.167 463.5,612.833 463.5,607.5C 468.833,607.5 474.167,607.5 479.5,607.5C 479.5,623.5 479.5,639.5 479.5,655.5C 500.833,655.5 522.167,655.5 543.5,655.5C 543.5,628.833 543.5,602.167 543.5,575.5C 538.167,575.5 532.833,575.5 527.5,575.5C 527.5,548.833 527.5,522.167 527.5,495.5 Z"/></g>
<g><path style="opacity:1" fill="#8f5533" d="M 575.5,495.5 C 575.5,500.833 575.5,506.167 575.5,511.5C 586.167,511.5 596.833,511.5 607.5,511.5C 607.5,516.833 607.5,522.167 607.5,527.5C 618.167,527.5 628.833,527.5 639.5,527.5C 639.5,522.167 639.5,516.833 639.5,511.5C 644.833,511.5 650.167,511.5 655.5,511.5C 655.5,516.833 655.5,522.167 655.5,527.5C 660.833,527.5 666.167,527.5 671.5,527.5C 671.5,532.833 671.5,538.167 671.5,543.5C 671.5,548.833 671.5,554.167 671.5,559.5C 644.833,559.5 618.167,559.5 591.5,559.5C 591.5,554.167 591.5,548.833 591.5,543.5C 586.167,543.5 580.833,543.5 575.5,543.5C 575.5,538.167 575.5,532.833 575.5,527.5C 570.167,527.5 564.833,527.5 559.5,527.5C 559.5,516.833 559.5,506.167 559.5,495.5C 564.833,495.5 570.167,495.5 575.5,495.5 Z"/></g>
<g><path style="opacity:1" fill="#2a1a0f" d="M 575.5,495.5 C 602.167,495.5 628.833,495.5 655.5,495.5C 660.833,495.5 666.167,495.5 671.5,495.5C 671.5,500.833 671.5,506.167 671.5,511.5C 676.833,511.5 682.167,511.5 687.5,511.5C 687.5,516.833 687.5,522.167 687.5,527.5C 682.167,527.5 676.833,527.5 671.5,527.5C 666.167,527.5 660.833,527.5 655.5,527.5C 655.5,522.167 655.5,516.833 655.5,511.5C 650.167,511.5 644.833,511.5 639.5,511.5C 639.5,516.833 639.5,522.167 639.5,527.5C 628.833,527.5 618.167,527.5 607.5,527.5C 607.5,522.167 607.5,516.833 607.5,511.5C 596.833,511.5 586.167,511.5 575.5,511.5C 575.5,506.167 575.5,500.833 575.5,495.5 Z"/></g>
<g><path style="opacity:0.989" fill="#000000" d="M 255.5,511.5 C 255.5,516.833 255.5,522.167 255.5,527.5C 250.167,527.5 244.833,527.5 239.5,527.5C 234.167,527.5 228.833,527.5 223.5,527.5C 223.5,564.833 223.5,602.167 223.5,639.5C 218.167,639.5 212.833,639.5 207.5,639.5C 207.5,596.833 207.5,554.167 207.5,511.5C 223.5,511.5 239.5,511.5 255.5,511.5 Z"/></g>
<g><path style="opacity:1" fill="#3d1c07" d="M 255.5,511.5 C 260.833,511.5 266.167,511.5 271.5,511.5C 271.5,522.167 271.5,532.833 271.5,543.5C 271.5,548.833 271.5,554.167 271.5,559.5C 266.167,559.5 260.833,559.5 255.5,559.5C 255.5,554.167 255.5,548.833 255.5,543.5C 250.167,543.5 244.833,543.5 239.5,543.5C 239.5,538.167 239.5,532.833 239.5,527.5C 244.833,527.5 250.167,527.5 255.5,527.5C 255.5,522.167 255.5,516.833 255.5,511.5 Z"/></g>
<g><path style="opacity:0.992" fill="#000000" d="M 783.5,511.5 C 794.167,511.5 804.833,511.5 815.5,511.5C 815.5,548.833 815.5,586.167 815.5,623.5C 810.167,623.5 804.833,623.5 799.5,623.5C 799.5,591.5 799.5,559.5 799.5,527.5C 794.167,527.5 788.833,527.5 783.5,527.5C 783.5,522.167 783.5,516.833 783.5,511.5 Z"/></g>
<g><path style="opacity:1" fill="#915634" d="M 239.5,527.5 C 239.5,532.833 239.5,538.167 239.5,543.5C 244.833,543.5 250.167,543.5 255.5,543.5C 255.5,548.833 255.5,554.167 255.5,559.5C 260.833,559.5 266.167,559.5 271.5,559.5C 271.5,591.5 271.5,623.5 271.5,655.5C 276.833,655.5 282.167,655.5 287.5,655.5C 287.5,666.167 287.5,676.833 287.5,687.5C 276.833,687.5 266.167,687.5 255.5,687.5C 255.5,682.167 255.5,676.833 255.5,671.5C 250.167,671.5 244.833,671.5 239.5,671.5C 239.5,660.833 239.5,650.167 239.5,639.5C 234.167,639.5 228.833,639.5 223.5,639.5C 223.5,602.167 223.5,564.833 223.5,527.5C 228.833,527.5 234.167,527.5 239.5,527.5 Z"/></g>
<g><path style="opacity:1" fill="#7b4929" d="M 559.5,527.5 C 564.833,527.5 570.167,527.5 575.5,527.5C 575.5,532.833 575.5,538.167 575.5,543.5C 575.5,564.833 575.5,586.167 575.5,607.5C 570.167,607.5 564.833,607.5 559.5,607.5C 559.5,580.833 559.5,554.167 559.5,527.5 Z"/></g>
<g><path style="opacity:1" fill="#501e00" d="M 783.5,527.5 C 783.5,538.167 783.5,548.833 783.5,559.5C 778.167,559.5 772.833,559.5 767.5,559.5C 767.5,548.833 767.5,538.167 767.5,527.5C 772.833,527.5 778.167,527.5 783.5,527.5 Z"/></g>
<g><path style="opacity:1" fill="#915634" d="M 783.5,527.5 C 788.833,527.5 794.167,527.5 799.5,527.5C 799.5,559.5 799.5,591.5 799.5,623.5C 794.167,623.5 788.833,623.5 783.5,623.5C 783.5,639.5 783.5,655.5 783.5,671.5C 778.167,671.5 772.833,671.5 767.5,671.5C 767.5,676.833 767.5,682.167 767.5,687.5C 756.833,687.5 746.167,687.5 735.5,687.5C 735.5,682.167 735.5,676.833 735.5,671.5C 740.833,671.5 746.167,671.5 751.5,671.5C 751.5,639.5 751.5,607.5 751.5,575.5C 756.833,575.5 762.167,575.5 767.5,575.5C 767.5,570.167 767.5,564.833 767.5,559.5C 772.833,559.5 778.167,559.5 783.5,559.5C 783.5,548.833 783.5,538.167 783.5,527.5 Z"/></g>
<g><path style="opacity:1" fill="#7b492a" d="M 271.5,543.5 C 276.833,543.5 282.167,543.5 287.5,543.5C 287.5,559.5 287.5,575.5 287.5,591.5C 292.833,591.5 298.167,591.5 303.5,591.5C 303.5,612.833 303.5,634.167 303.5,655.5C 308.833,655.5 314.167,655.5 319.5,655.5C 319.5,660.833 319.5,666.167 319.5,671.5C 324.833,671.5 330.167,671.5 335.5,671.5C 335.5,692.833 335.5,714.167 335.5,735.5C 330.167,735.5 324.833,735.5 319.5,735.5C 319.5,740.833 319.5,746.167 319.5,751.5C 314.167,751.5 308.833,751.5 303.5,751.5C 303.5,735.5 303.5,719.5 303.5,703.5C 298.167,703.5 292.833,703.5 287.5,703.5C 287.5,698.167 287.5,692.833 287.5,687.5C 287.5,676.833 287.5,666.167 287.5,655.5C 282.167,655.5 276.833,655.5 271.5,655.5C 271.5,623.5 271.5,591.5 271.5,559.5C 271.5,554.167 271.5,548.833 271.5,543.5 Z"/></g>
<g><path style="opacity:1" fill="#874a29" d="M 495.5,543.5 C 495.5,564.833 495.5,586.167 495.5,607.5C 490.167,607.5 484.833,607.5 479.5,607.5C 479.5,586.167 479.5,564.833 479.5,543.5C 484.833,543.5 490.167,543.5 495.5,543.5 Z"/></g>
<g><path style="opacity:1" fill="#edbc98" d="M 447.5,623.5 C 442.167,623.5 436.833,623.5 431.5,623.5C 431.5,639.5 431.5,655.5 431.5,671.5C 436.833,671.5 442.167,671.5 447.5,671.5C 447.5,676.833 447.5,682.167 447.5,687.5C 463.5,687.5 479.5,687.5 495.5,687.5C 495.5,692.833 495.5,698.167 495.5,703.5C 522.167,703.5 548.833,703.5 575.5,703.5C 575.5,698.167 575.5,692.833 575.5,687.5C 580.833,687.5 586.167,687.5 591.5,687.5C 591.5,682.167 591.5,676.833 591.5,671.5C 596.833,671.5 602.167,671.5 607.5,671.5C 607.5,666.167 607.5,660.833 607.5,655.5C 602.167,655.5 596.833,655.5 591.5,655.5C 591.5,650.167 591.5,644.833 591.5,639.5C 591.5,618.167 591.5,596.833 591.5,575.5C 628.833,575.5 666.167,575.5 703.5,575.5C 703.5,586.167 703.5,596.833 703.5,607.5C 698.167,607.5 692.833,607.5 687.5,607.5C 687.5,618.167 687.5,628.833 687.5,639.5C 682.167,639.5 676.833,639.5 671.5,639.5C 671.5,650.167 671.5,660.833 671.5,671.5C 666.167,671.5 660.833,671.5 655.5,671.5C 655.5,682.167 655.5,692.833 655.5,703.5C 650.167,703.5 644.833,703.5 639.5,703.5C 639.5,708.833 639.5,714.167 639.5,719.5C 623.5,719.5 607.5,719.5 591.5,719.5C 591.5,724.833 591.5,730.167 591.5,735.5C 554.167,735.5 516.833,735.5 479.5,735.5C 463.5,735.5 447.5,735.5 431.5,735.5C 431.5,730.167 431.5,724.833 431.5,719.5C 426.167,719.5 420.833,719.5 415.5,719.5C 415.5,714.167 415.5,708.833 415.5,703.5C 399.5,703.5 383.5,703.5 367.5,703.5C 367.5,698.167 367.5,692.833 367.5,687.5C 362.167,687.5 356.833,687.5 351.5,687.5C 351.5,682.167 351.5,676.833 351.5,671.5C 346.167,671.5 340.833,671.5 335.5,671.5C 335.5,660.833 335.5,650.167 335.5,639.5C 330.167,639.5 324.833,639.5 319.5,639.5C 319.5,623.5 319.5,607.5 319.5,591.5C 314.167,591.5 308.833,591.5 303.5,591.5C 303.5,586.167 303.5,580.833 303.5,575.5C 308.833,575.5 314.167,575.5 319.5,575.5C 319.5,570.167 319.5,564.833 319.5,559.5C 362.167,559.5 404.833,559.5 447.5,559.5C 447.5,580.833 447.5,602.167 447.5,623.5 Z"/></g>
<g><path style="opacity:1" fill="#7a4728" d="M 735.5,559.5 C 740.833,559.5 746.167,559.5 751.5,559.5C 751.5,564.833 751.5,570.167 751.5,575.5C 751.5,607.5 751.5,639.5 751.5,671.5C 746.167,671.5 740.833,671.5 735.5,671.5C 735.5,676.833 735.5,682.167 735.5,687.5C 735.5,692.833 735.5,698.167 735.5,703.5C 730.167,703.5 724.833,703.5 719.5,703.5C 719.5,730.167 719.5,756.833 719.5,783.5C 714.167,783.5 708.833,783.5 703.5,783.5C 703.5,794.167 703.5,804.833 703.5,815.5C 698.167,815.5 692.833,815.5 687.5,815.5C 687.5,826.167 687.5,836.833 687.5,847.5C 692.833,847.5 698.167,847.5 703.5,847.5C 703.5,858.167 703.5,868.833 703.5,879.5C 708.833,879.5 714.167,879.5 719.5,879.5C 719.5,890.167 719.5,900.833 719.5,911.5C 724.833,911.5 730.167,911.5 735.5,911.5C 735.5,916.833 735.5,922.167 735.5,927.5C 746.167,927.5 756.833,927.5 767.5,927.5C 767.5,938.167 767.5,948.833 767.5,959.5C 762.167,959.5 756.833,959.5 751.5,959.5C 751.5,964.833 751.5,970.167 751.5,975.5C 746.167,975.5 740.833,975.5 735.5,975.5C 735.5,991.5 735.5,1007.5 735.5,1023.5C 644.833,1023.5 554.167,1023.5 463.5,1023.5C 463.5,1007.5 463.5,991.5 463.5,975.5C 458.167,975.5 452.833,975.5 447.5,975.5C 447.5,970.167 447.5,964.833 447.5,959.5C 442.167,959.5 436.833,959.5 431.5,959.5C 431.5,954.167 431.5,948.833 431.5,943.5C 426.167,943.5 420.833,943.5 415.5,943.5C 415.5,938.167 415.5,932.833 415.5,927.5C 410.167,927.5 404.833,927.5 399.5,927.5C 399.5,922.167 399.5,916.833 399.5,911.5C 410.167,911.5 420.833,911.5 431.5,911.5C 431.5,916.833 431.5,922.167 431.5,927.5C 442.167,927.5 452.833,927.5 463.5,927.5C 463.5,932.833 463.5,938.167 463.5,943.5C 500.833,943.5 538.167,943.5 575.5,943.5C 575.5,938.167 575.5,932.833 575.5,927.5C 586.167,927.5 596.833,927.5 607.5,927.5C 607.5,922.167 607.5,916.833 607.5,911.5C 612.833,911.5 618.167,911.5 623.5,911.5C 623.5,922.167 623.5,932.833 623.5,943.5C 618.167,943.5 612.833,943.5 607.5,943.5C 607.5,964.833 607.5,986.167 607.5,1007.5C 618.167,1007.5 628.833,1007.5 639.5,1007.5C 639.5,1002.17 639.5,996.833 639.5,991.5C 644.833,991.5 650.167,991.5 655.5,991.5C 655.5,986.167 655.5,980.833 655.5,975.5C 660.833,975.5 666.167,975.5 671.5,975.5C 671.5,964.833 671.5,954.167 671.5,943.5C 676.833,943.5 682.167,943.5 687.5,943.5C 687.5,922.167 687.5,900.833 687.5,879.5C 676.833,879.5 666.167,879.5 655.5,879.5C 655.5,884.833 655.5,890.167 655.5,895.5C 650.167,895.5 644.833,895.5 639.5,895.5C 628.833,895.5 618.167,895.5 607.5,895.5C 607.5,890.167 607.5,884.833 607.5,879.5C 612.833,879.5 618.167,879.5 623.5,879.5C 623.5,858.167 623.5,836.833 623.5,815.5C 628.833,815.5 634.167,815.5 639.5,815.5C 639.5,804.833 639.5,794.167 639.5,783.5C 644.833,783.5 650.167,783.5 655.5,783.5C 655.5,778.167 655.5,772.833 655.5,767.5C 660.833,767.5 666.167,767.5 671.5,767.5C 671.5,762.167 671.5,756.833 671.5,751.5C 676.833,751.5 682.167,751.5 687.5,751.5C 687.5,724.833 687.5,698.167 687.5,671.5C 692.833,671.5 698.167,671.5 703.5,671.5C 703.5,660.833 703.5,650.167 703.5,639.5C 708.833,639.5 714.167,639.5 719.5,639.5C 719.5,618.167 719.5,596.833 719.5,575.5C 724.833,575.5 730.167,575.5 735.5,575.5C 735.5,570.167 735.5,564.833 735.5,559.5 Z"/></g>
<g><path style="opacity:1" fill="#b7825d" d="M 303.5,591.5 C 308.833,591.5 314.167,591.5 319.5,591.5C 319.5,607.5 319.5,623.5 319.5,639.5C 324.833,639.5 330.167,639.5 335.5,639.5C 335.5,650.167 335.5,660.833 335.5,671.5C 330.167,671.5 324.833,671.5 319.5,671.5C 319.5,666.167 319.5,660.833 319.5,655.5C 314.167,655.5 308.833,655.5 303.5,655.5C 303.5,634.167 303.5,612.833 303.5,591.5 Z"/></g>
<g><path style="opacity:1" fill="#b7825d" d="M 447.5,623.5 C 447.5,639.5 447.5,655.5 447.5,671.5C 442.167,671.5 436.833,671.5 431.5,671.5C 431.5,655.5 431.5,639.5 431.5,623.5C 436.833,623.5 442.167,623.5 447.5,623.5 Z"/></g>
<g><path style="opacity:0.991" fill="#000000" d="M 799.5,623.5 C 799.5,639.5 799.5,655.5 799.5,671.5C 794.167,671.5 788.833,671.5 783.5,671.5C 783.5,655.5 783.5,639.5 783.5,623.5C 788.833,623.5 794.167,623.5 799.5,623.5 Z"/></g>
<g><path style="opacity:0.985" fill="#000000" d="M 223.5,639.5 C 228.833,639.5 234.167,639.5 239.5,639.5C 239.5,650.167 239.5,660.833 239.5,671.5C 234.167,671.5 228.833,671.5 223.5,671.5C 223.5,660.833 223.5,650.167 223.5,639.5 Z"/></g>
<g><path style="opacity:0.984" fill="#000000" d="M 239.5,671.5 C 244.833,671.5 250.167,671.5 255.5,671.5C 255.5,676.833 255.5,682.167 255.5,687.5C 266.167,687.5 276.833,687.5 287.5,687.5C 287.5,692.833 287.5,698.167 287.5,703.5C 271.5,703.5 255.5,703.5 239.5,703.5C 239.5,692.833 239.5,682.167 239.5,671.5 Z"/></g>
<g><path style="opacity:0.984" fill="#000000" d="M 783.5,671.5 C 783.5,682.167 783.5,692.833 783.5,703.5C 767.5,703.5 751.5,703.5 735.5,703.5C 735.5,698.167 735.5,692.833 735.5,687.5C 746.167,687.5 756.833,687.5 767.5,687.5C 767.5,682.167 767.5,676.833 767.5,671.5C 772.833,671.5 778.167,671.5 783.5,671.5 Z"/></g>
<g><path style="opacity:1" fill="#b7825d" d="M 495.5,687.5 C 522.167,687.5 548.833,687.5 575.5,687.5C 575.5,692.833 575.5,698.167 575.5,703.5C 548.833,703.5 522.167,703.5 495.5,703.5C 495.5,698.167 495.5,692.833 495.5,687.5 Z"/></g>
<g><path style="opacity:0.988" fill="#000000" d="M 287.5,703.5 C 292.833,703.5 298.167,703.5 303.5,703.5C 303.5,719.5 303.5,735.5 303.5,751.5C 298.167,751.5 292.833,751.5 287.5,751.5C 287.5,735.5 287.5,719.5 287.5,703.5 Z"/></g>
<g><path style="opacity:0.995" fill="#000000" d="M 735.5,703.5 C 735.5,746.167 735.5,788.833 735.5,831.5C 730.167,831.5 724.833,831.5 719.5,831.5C 719.5,815.5 719.5,799.5 719.5,783.5C 719.5,756.833 719.5,730.167 719.5,703.5C 724.833,703.5 730.167,703.5 735.5,703.5 Z"/></g>
<g><path style="opacity:1" fill="#7b4929" d="M 431.5,735.5 C 447.5,735.5 463.5,735.5 479.5,735.5C 479.5,740.833 479.5,746.167 479.5,751.5C 474.167,751.5 468.833,751.5 463.5,751.5C 452.833,751.5 442.167,751.5 431.5,751.5C 431.5,756.833 431.5,762.167 431.5,767.5C 420.833,767.5 410.167,767.5 399.5,767.5C 399.5,756.833 399.5,746.167 399.5,735.5C 410.167,735.5 420.833,735.5 431.5,735.5 Z"/></g>
<g><path style="opacity:1" fill="#7b4929" d="M 607.5,767.5 C 602.167,767.5 596.833,767.5 591.5,767.5C 591.5,762.167 591.5,756.833 591.5,751.5C 596.833,751.5 602.167,751.5 607.5,751.5C 607.5,746.167 607.5,740.833 607.5,735.5C 612.833,735.5 618.167,735.5 623.5,735.5C 623.5,746.167 623.5,756.833 623.5,767.5C 618.167,767.5 612.833,767.5 607.5,767.5 Z"/></g>
<g><path style="opacity:0.988" fill="#000000" d="M 303.5,751.5 C 308.833,751.5 314.167,751.5 319.5,751.5C 319.5,756.833 319.5,762.167 319.5,767.5C 319.5,778.167 319.5,788.833 319.5,799.5C 314.167,799.5 308.833,799.5 303.5,799.5C 303.5,783.5 303.5,767.5 303.5,751.5 Z"/></g>
<g><path style="opacity:1" fill="#5d1504" d="M 463.5,751.5 C 463.5,756.833 463.5,762.167 463.5,767.5C 458.167,767.5 452.833,767.5 447.5,767.5C 442.167,767.5 436.833,767.5 431.5,767.5C 431.5,762.167 431.5,756.833 431.5,751.5C 442.167,751.5 452.833,751.5 463.5,751.5 Z"/></g>
<g><path style="opacity:1" fill="#751f0e" d="M 463.5,751.5 C 468.833,751.5 474.167,751.5 479.5,751.5C 506.167,751.5 532.833,751.5 559.5,751.5C 559.5,756.833 559.5,762.167 559.5,767.5C 554.167,767.5 548.833,767.5 543.5,767.5C 522.167,767.5 500.833,767.5 479.5,767.5C 474.167,767.5 468.833,767.5 463.5,767.5C 463.5,762.167 463.5,756.833 463.5,751.5 Z"/></g>
<g><path style="opacity:1" fill="#5d1504" d="M 559.5,751.5 C 570.167,751.5 580.833,751.5 591.5,751.5C 591.5,756.833 591.5,762.167 591.5,767.5C 580.833,767.5 570.167,767.5 559.5,767.5C 559.5,762.167 559.5,756.833 559.5,751.5 Z"/></g>
<g><path style="opacity:1" fill="#744222" d="M 319.5,767.5 C 324.833,767.5 330.167,767.5 335.5,767.5C 335.5,772.833 335.5,778.167 335.5,783.5C 340.833,783.5 346.167,783.5 351.5,783.5C 351.5,794.167 351.5,804.833 351.5,815.5C 362.167,815.5 372.833,815.5 383.5,815.5C 383.5,831.5 383.5,847.5 383.5,863.5C 388.833,863.5 394.167,863.5 399.5,863.5C 399.5,874.167 399.5,884.833 399.5,895.5C 394.167,895.5 388.833,895.5 383.5,895.5C 383.5,890.167 383.5,884.833 383.5,879.5C 378.167,879.5 372.833,879.5 367.5,879.5C 367.5,874.167 367.5,868.833 367.5,863.5C 367.5,858.167 367.5,852.833 367.5,847.5C 362.167,847.5 356.833,847.5 351.5,847.5C 351.5,842.167 351.5,836.833 351.5,831.5C 346.167,831.5 340.833,831.5 335.5,831.5C 335.5,820.833 335.5,810.167 335.5,799.5C 330.167,799.5 324.833,799.5 319.5,799.5C 319.5,788.833 319.5,778.167 319.5,767.5 Z"/></g>
<g><path style="opacity:1" fill="#915634" d="M 447.5,767.5 C 452.833,767.5 458.167,767.5 463.5,767.5C 468.833,767.5 474.167,767.5 479.5,767.5C 479.5,772.833 479.5,778.167 479.5,783.5C 468.833,783.5 458.167,783.5 447.5,783.5C 447.5,778.167 447.5,772.833 447.5,767.5 Z"/></g>
<g><path style="opacity:1" fill="#c58068" d="M 479.5,767.5 C 500.833,767.5 522.167,767.5 543.5,767.5C 543.5,778.167 543.5,788.833 543.5,799.5C 522.167,799.5 500.833,799.5 479.5,799.5C 479.5,794.167 479.5,788.833 479.5,783.5C 479.5,778.167 479.5,772.833 479.5,767.5 Z"/></g>
<g><path style="opacity:1" fill="#915634" d="M 543.5,767.5 C 548.833,767.5 554.167,767.5 559.5,767.5C 570.167,767.5 580.833,767.5 591.5,767.5C 596.833,767.5 602.167,767.5 607.5,767.5C 607.5,772.833 607.5,778.167 607.5,783.5C 591.5,783.5 575.5,783.5 559.5,783.5C 559.5,788.833 559.5,794.167 559.5,799.5C 554.167,799.5 548.833,799.5 543.5,799.5C 543.5,788.833 543.5,778.167 543.5,767.5 Z"/></g>
<g><path style="opacity:1" fill="#5e2c0d" d="M 719.5,783.5 C 719.5,799.5 719.5,815.5 719.5,831.5C 714.167,831.5 708.833,831.5 703.5,831.5C 703.5,826.167 703.5,820.833 703.5,815.5C 703.5,804.833 703.5,794.167 703.5,783.5C 708.833,783.5 714.167,783.5 719.5,783.5 Z"/></g>
<g><path style="opacity:0.994" fill="#140700" d="M 319.5,799.5 C 324.833,799.5 330.167,799.5 335.5,799.5C 335.5,810.167 335.5,820.833 335.5,831.5C 340.833,831.5 346.167,831.5 351.5,831.5C 351.5,836.833 351.5,842.167 351.5,847.5C 356.833,847.5 362.167,847.5 367.5,847.5C 367.5,852.833 367.5,858.167 367.5,863.5C 362.167,863.5 356.833,863.5 351.5,863.5C 351.5,874.167 351.5,884.833 351.5,895.5C 346.167,895.5 340.833,895.5 335.5,895.5C 335.5,879.5 335.5,863.5 335.5,847.5C 330.167,847.5 324.833,847.5 319.5,847.5C 319.5,831.5 319.5,815.5 319.5,799.5 Z"/></g>
<g><path style="opacity:1" fill="#7b4929" d="M 479.5,799.5 C 500.833,799.5 522.167,799.5 543.5,799.5C 548.833,799.5 554.167,799.5 559.5,799.5C 564.833,799.5 570.167,799.5 575.5,799.5C 575.5,804.833 575.5,810.167 575.5,815.5C 570.167,815.5 564.833,815.5 559.5,815.5C 559.5,820.833 559.5,826.167 559.5,831.5C 532.833,831.5 506.167,831.5 479.5,831.5C 479.5,820.833 479.5,810.167 479.5,799.5 Z"/></g>
<g><path style="opacity:1" fill="#501e00" d="M 703.5,815.5 C 703.5,820.833 703.5,826.167 703.5,831.5C 703.5,836.833 703.5,842.167 703.5,847.5C 698.167,847.5 692.833,847.5 687.5,847.5C 687.5,836.833 687.5,826.167 687.5,815.5C 692.833,815.5 698.167,815.5 703.5,815.5 Z"/></g>
<g><path style="opacity:0.994" fill="#000000" d="M 703.5,831.5 C 708.833,831.5 714.167,831.5 719.5,831.5C 719.5,847.5 719.5,863.5 719.5,879.5C 714.167,879.5 708.833,879.5 703.5,879.5C 703.5,868.833 703.5,858.167 703.5,847.5C 703.5,842.167 703.5,836.833 703.5,831.5 Z"/></g>
<g><path style="opacity:1" fill="#edbc98" d="M 447.5,847.5 C 495.5,847.5 543.5,847.5 591.5,847.5C 591.5,858.167 591.5,868.833 591.5,879.5C 580.833,879.5 570.167,879.5 559.5,879.5C 559.5,884.833 559.5,890.167 559.5,895.5C 527.5,895.5 495.5,895.5 463.5,895.5C 463.5,890.167 463.5,884.833 463.5,879.5C 458.167,879.5 452.833,879.5 447.5,879.5C 447.5,868.833 447.5,858.167 447.5,847.5 Z"/></g>
<g><path style="opacity:1" fill="#7b4929" d="M 367.5,863.5 C 367.5,868.833 367.5,874.167 367.5,879.5C 372.833,879.5 378.167,879.5 383.5,879.5C 383.5,884.833 383.5,890.167 383.5,895.5C 388.833,895.5 394.167,895.5 399.5,895.5C 399.5,900.833 399.5,906.167 399.5,911.5C 383.5,911.5 367.5,911.5 351.5,911.5C 351.5,927.5 351.5,943.5 351.5,959.5C 346.167,959.5 340.833,959.5 335.5,959.5C 335.5,948.833 335.5,938.167 335.5,927.5C 330.167,927.5 324.833,927.5 319.5,927.5C 319.5,922.167 319.5,916.833 319.5,911.5C 324.833,911.5 330.167,911.5 335.5,911.5C 335.5,906.167 335.5,900.833 335.5,895.5C 340.833,895.5 346.167,895.5 351.5,895.5C 351.5,884.833 351.5,874.167 351.5,863.5C 356.833,863.5 362.167,863.5 367.5,863.5 Z"/></g>
<g><path style="opacity:1" fill="#b7825d" d="M 623.5,911.5 C 628.833,911.5 634.167,911.5 639.5,911.5C 639.5,906.167 639.5,900.833 639.5,895.5C 644.833,895.5 650.167,895.5 655.5,895.5C 655.5,890.167 655.5,884.833 655.5,879.5C 666.167,879.5 676.833,879.5 687.5,879.5C 687.5,900.833 687.5,922.167 687.5,943.5C 682.167,943.5 676.833,943.5 671.5,943.5C 671.5,954.167 671.5,964.833 671.5,975.5C 666.167,975.5 660.833,975.5 655.5,975.5C 655.5,980.833 655.5,986.167 655.5,991.5C 650.167,991.5 644.833,991.5 639.5,991.5C 639.5,996.833 639.5,1002.17 639.5,1007.5C 628.833,1007.5 618.167,1007.5 607.5,1007.5C 607.5,986.167 607.5,964.833 607.5,943.5C 612.833,943.5 618.167,943.5 623.5,943.5C 623.5,932.833 623.5,922.167 623.5,911.5 Z"/></g>
<g><path style="opacity:0.994" fill="#000000" d="M 719.5,879.5 C 724.833,879.5 730.167,879.5 735.5,879.5C 735.5,890.167 735.5,900.833 735.5,911.5C 730.167,911.5 724.833,911.5 719.5,911.5C 719.5,900.833 719.5,890.167 719.5,879.5 Z"/></g>
<g><path style="opacity:0.994" fill="#000000" d="M 335.5,895.5 C 335.5,900.833 335.5,906.167 335.5,911.5C 330.167,911.5 324.833,911.5 319.5,911.5C 308.833,911.5 298.167,911.5 287.5,911.5C 282.167,911.5 276.833,911.5 271.5,911.5C 271.5,906.167 271.5,900.833 271.5,895.5C 292.833,895.5 314.167,895.5 335.5,895.5 Z"/></g>
<g><path style="opacity:1" fill="#501e00" d="M 399.5,895.5 C 410.167,895.5 420.833,895.5 431.5,895.5C 431.5,900.833 431.5,906.167 431.5,911.5C 420.833,911.5 410.167,911.5 399.5,911.5C 399.5,906.167 399.5,900.833 399.5,895.5 Z"/></g>
<g><path style="opacity:1" fill="#5e2c0d" d="M 607.5,895.5 C 618.167,895.5 628.833,895.5 639.5,895.5C 639.5,900.833 639.5,906.167 639.5,911.5C 634.167,911.5 628.833,911.5 623.5,911.5C 618.167,911.5 612.833,911.5 607.5,911.5C 602.167,911.5 596.833,911.5 591.5,911.5C 591.5,906.167 591.5,900.833 591.5,895.5C 596.833,895.5 602.167,895.5 607.5,895.5 Z"/></g>
<g><path style="opacity:0.993" fill="#000000" d="M 271.5,911.5 C 271.5,916.833 271.5,922.167 271.5,927.5C 255.5,927.5 239.5,927.5 223.5,927.5C 223.5,922.167 223.5,916.833 223.5,911.5C 239.5,911.5 255.5,911.5 271.5,911.5 Z"/></g>
<g><path style="opacity:1" fill="#69503e" d="M 271.5,911.5 C 276.833,911.5 282.167,911.5 287.5,911.5C 287.5,932.833 287.5,954.167 287.5,975.5C 282.167,975.5 276.833,975.5 271.5,975.5C 271.5,959.5 271.5,943.5 271.5,927.5C 271.5,922.167 271.5,916.833 271.5,911.5 Z"/></g>
<g><path style="opacity:1" fill="#b5815c" d="M 287.5,911.5 C 298.167,911.5 308.833,911.5 319.5,911.5C 319.5,916.833 319.5,922.167 319.5,927.5C 324.833,927.5 330.167,927.5 335.5,927.5C 335.5,938.167 335.5,948.833 335.5,959.5C 340.833,959.5 346.167,959.5 351.5,959.5C 351.5,943.5 351.5,927.5 351.5,911.5C 367.5,911.5 383.5,911.5 399.5,911.5C 399.5,916.833 399.5,922.167 399.5,927.5C 404.833,927.5 410.167,927.5 415.5,927.5C 415.5,932.833 415.5,938.167 415.5,943.5C 420.833,943.5 426.167,943.5 431.5,943.5C 431.5,948.833 431.5,954.167 431.5,959.5C 436.833,959.5 442.167,959.5 447.5,959.5C 447.5,964.833 447.5,970.167 447.5,975.5C 452.833,975.5 458.167,975.5 463.5,975.5C 463.5,991.5 463.5,1007.5 463.5,1023.5C 410.167,1023.5 356.833,1023.5 303.5,1023.5C 303.5,1018.17 303.5,1012.83 303.5,1007.5C 298.167,1007.5 292.833,1007.5 287.5,1007.5C 287.5,996.833 287.5,986.167 287.5,975.5C 287.5,954.167 287.5,932.833 287.5,911.5 Z"/></g>
<g><path style="opacity:1" fill="#501e00" d="M 431.5,911.5 C 442.167,911.5 452.833,911.5 463.5,911.5C 463.5,916.833 463.5,922.167 463.5,927.5C 452.833,927.5 442.167,927.5 431.5,927.5C 431.5,922.167 431.5,916.833 431.5,911.5 Z"/></g>
<g><path style="opacity:1" fill="#7b4929" d="M 463.5,911.5 C 500.833,911.5 538.167,911.5 575.5,911.5C 575.5,916.833 575.5,922.167 575.5,927.5C 538.167,927.5 500.833,927.5 463.5,927.5C 463.5,922.167 463.5,916.833 463.5,911.5 Z"/></g>
<g><path style="opacity:1" fill="#501e00" d="M 575.5,911.5 C 580.833,911.5 586.167,911.5 591.5,911.5C 596.833,911.5 602.167,911.5 607.5,911.5C 607.5,916.833 607.5,922.167 607.5,927.5C 596.833,927.5 586.167,927.5 575.5,927.5C 575.5,922.167 575.5,916.833 575.5,911.5 Z"/></g>
<g><path style="opacity:0.996" fill="#000000" d="M 735.5,911.5 C 772.833,911.5 810.167,911.5 847.5,911.5C 847.5,916.833 847.5,922.167 847.5,927.5C 836.833,927.5 826.167,927.5 815.5,927.5C 799.5,927.5 783.5,927.5 767.5,927.5C 756.833,927.5 746.167,927.5 735.5,927.5C 735.5,922.167 735.5,916.833 735.5,911.5 Z"/></g>
<g><path style="opacity:0.994" fill="#000000" d="M 223.5,927.5 C 223.5,932.833 223.5,938.167 223.5,943.5C 207.5,943.5 191.5,943.5 175.5,943.5C 175.5,938.167 175.5,932.833 175.5,927.5C 191.5,927.5 207.5,927.5 223.5,927.5 Z"/></g>
<g><path style="opacity:1" fill="#1f1d1b" d="M 223.5,927.5 C 239.5,927.5 255.5,927.5 271.5,927.5C 271.5,943.5 271.5,959.5 271.5,975.5C 276.833,975.5 282.167,975.5 287.5,975.5C 287.5,986.167 287.5,996.833 287.5,1007.5C 292.833,1007.5 298.167,1007.5 303.5,1007.5C 303.5,1012.83 303.5,1018.17 303.5,1023.5C 218.167,1023.5 132.833,1023.5 47.5,1023.5C 47.5,1018.17 47.5,1012.83 47.5,1007.5C 58.1667,1007.5 68.8333,1007.5 79.5,1007.5C 79.5,1002.17 79.5,996.833 79.5,991.5C 90.1667,991.5 100.833,991.5 111.5,991.5C 111.5,986.167 111.5,980.833 111.5,975.5C 122.167,975.5 132.833,975.5 143.5,975.5C 143.5,970.167 143.5,964.833 143.5,959.5C 154.167,959.5 164.833,959.5 175.5,959.5C 175.5,954.167 175.5,948.833 175.5,943.5C 191.5,943.5 207.5,943.5 223.5,943.5C 223.5,938.167 223.5,932.833 223.5,927.5 Z"/></g>
<g><path style="opacity:1" fill="#501e00" d="M 463.5,927.5 C 500.833,927.5 538.167,927.5 575.5,927.5C 575.5,932.833 575.5,938.167 575.5,943.5C 538.167,943.5 500.833,943.5 463.5,943.5C 463.5,938.167 463.5,932.833 463.5,927.5 Z"/></g>
<g><path style="opacity:1" fill="#b37f5b" d="M 767.5,927.5 C 783.5,927.5 799.5,927.5 815.5,927.5C 815.5,943.5 815.5,959.5 815.5,975.5C 810.167,975.5 804.833,975.5 799.5,975.5C 799.5,986.167 799.5,996.833 799.5,1007.5C 794.167,1007.5 788.833,1007.5 783.5,1007.5C 783.5,1012.83 783.5,1018.17 783.5,1023.5C 767.5,1023.5 751.5,1023.5 735.5,1023.5C 735.5,1007.5 735.5,991.5 735.5,975.5C 740.833,975.5 746.167,975.5 751.5,975.5C 751.5,970.167 751.5,964.833 751.5,959.5C 756.833,959.5 762.167,959.5 767.5,959.5C 767.5,948.833 767.5,938.167 767.5,927.5 Z"/></g>
<g><path style="opacity:1" fill="#201d1b" d="M 815.5,927.5 C 826.167,927.5 836.833,927.5 847.5,927.5C 847.5,932.833 847.5,938.167 847.5,943.5C 858.167,943.5 868.833,943.5 879.5,943.5C 879.5,948.833 879.5,954.167 879.5,959.5C 890.167,959.5 900.833,959.5 911.5,959.5C 911.5,964.833 911.5,970.167 911.5,975.5C 927.5,975.5 943.5,975.5 959.5,975.5C 959.5,980.833 959.5,986.167 959.5,991.5C 970.167,991.5 980.833,991.5 991.5,991.5C 991.5,996.833 991.5,1002.17 991.5,1007.5C 1002.17,1007.5 1012.83,1007.5 1023.5,1007.5C 1023.5,1012.83 1023.5,1018.17 1023.5,1023.5C 943.5,1023.5 863.5,1023.5 783.5,1023.5C 783.5,1018.17 783.5,1012.83 783.5,1007.5C 788.833,1007.5 794.167,1007.5 799.5,1007.5C 804.833,1007.5 810.167,1007.5 815.5,1007.5C 815.5,996.833 815.5,986.167 815.5,975.5C 815.5,959.5 815.5,943.5 815.5,927.5 Z"/></g>
<g><path style="opacity:0.992" fill="#000000" d="M 847.5,927.5 C 858.167,927.5 868.833,927.5 879.5,927.5C 879.5,932.833 879.5,938.167 879.5,943.5C 868.833,943.5 858.167,943.5 847.5,943.5C 847.5,938.167 847.5,932.833 847.5,927.5 Z"/></g>
<g><path style="opacity:0.991" fill="#000000" d="M 175.5,943.5 C 175.5,948.833 175.5,954.167 175.5,959.5C 164.833,959.5 154.167,959.5 143.5,959.5C 143.5,954.167 143.5,948.833 143.5,943.5C 154.167,943.5 164.833,943.5 175.5,943.5 Z"/></g>
<g><path style="opacity:0.993" fill="#000000" d="M 879.5,943.5 C 890.167,943.5 900.833,943.5 911.5,943.5C 911.5,948.833 911.5,954.167 911.5,959.5C 900.833,959.5 890.167,959.5 879.5,959.5C 879.5,954.167 879.5,948.833 879.5,943.5 Z"/></g>
<g><path style="opacity:0.99" fill="#000000" d="M 143.5,959.5 C 143.5,964.833 143.5,970.167 143.5,975.5C 132.833,975.5 122.167,975.5 111.5,975.5C 111.5,970.167 111.5,964.833 111.5,959.5C 122.167,959.5 132.833,959.5 143.5,959.5 Z"/></g>
<g><path style="opacity:0.995" fill="#000000" d="M 911.5,959.5 C 927.5,959.5 943.5,959.5 959.5,959.5C 959.5,964.833 959.5,970.167 959.5,975.5C 943.5,975.5 927.5,975.5 911.5,975.5C 911.5,970.167 911.5,964.833 911.5,959.5 Z"/></g>
<g><path style="opacity:0.991" fill="#000000" d="M 111.5,975.5 C 111.5,980.833 111.5,986.167 111.5,991.5C 100.833,991.5 90.1667,991.5 79.5,991.5C 79.5,986.167 79.5,980.833 79.5,975.5C 90.1667,975.5 100.833,975.5 111.5,975.5 Z"/></g>
<g><path style="opacity:1" fill="#7b4929" d="M 815.5,975.5 C 815.5,986.167 815.5,996.833 815.5,1007.5C 810.167,1007.5 804.833,1007.5 799.5,1007.5C 799.5,996.833 799.5,986.167 799.5,975.5C 804.833,975.5 810.167,975.5 815.5,975.5 Z"/></g>
<g><path style="opacity:0.994" fill="#000000" d="M 959.5,975.5 C 970.167,975.5 980.833,975.5 991.5,975.5C 991.5,980.833 991.5,986.167 991.5,991.5C 980.833,991.5 970.167,991.5 959.5,991.5C 959.5,986.167 959.5,980.833 959.5,975.5 Z"/></g>
<g><path style="opacity:0.991" fill="#000000" d="M 79.5,991.5 C 79.5,996.833 79.5,1002.17 79.5,1007.5C 68.8333,1007.5 58.1667,1007.5 47.5,1007.5C 47.5,1002.17 47.5,996.833 47.5,991.5C 58.1667,991.5 68.8333,991.5 79.5,991.5 Z"/></g>
<g><path style="opacity:0.995" fill="#000000" d="M 991.5,991.5 C 1002.17,991.5 1012.83,991.5 1023.5,991.5C 1023.5,996.833 1023.5,1002.17 1023.5,1007.5C 1012.83,1007.5 1002.17,1007.5 991.5,1007.5C 991.5,1002.17 991.5,996.833 991.5,991.5 Z"/></g>
<g><path style="opacity:0.99" fill="#000000" d="M 47.5,1007.5 C 47.5,1012.83 47.5,1018.17 47.5,1023.5C 36.8333,1023.5 26.1667,1023.5 15.5,1023.5C 15.5,1018.17 15.5,1012.83 15.5,1007.5C 26.1667,1007.5 36.8333,1007.5 47.5,1007.5 Z"/></g>
</svg>
